<svg width="14" height="12" viewBox="0 0 14 12" fill="none" xmlns="http://www.w3.org/2000/svg">
<path d="M12.3594 11.2529H4.92188C4.01714 11.2529 3.28125 10.6614 3.28125 9.9342V3.9561C3.28125 3.22889 4.01714 2.6374 4.92188 2.6374H12.3594C13.2641 2.6374 14 3.22889 14 3.9561V9.9342C14 10.6614 13.2641 11.2529 12.3594 11.2529ZM4.92188 3.51653C4.62032 3.51653 4.375 3.71372 4.375 3.9561V9.9342C4.375 10.1766 4.62032 10.3738 4.92188 10.3738H12.3594C12.6609 10.3738 12.9062 10.1766 12.9062 9.9342V3.9561C12.9062 3.71372 12.6609 3.51653 12.3594 3.51653H4.92188ZM2.1875 7.73637H1.64062C1.33907 7.73637 1.09375 7.53918 1.09375 7.2968V1.3187C1.09375 1.07632 1.33907 0.879133 1.64062 0.879133H9.07812C9.37967 0.879133 9.625 1.07632 9.625 1.3187V1.73629H10.7188V1.3187C10.7188 0.591492 9.98286 0 9.07812 0H1.64062C0.735889 0 0 0.591492 0 1.3187V7.2968C0 8.02401 0.735889 8.6155 1.64062 8.6155H2.1875V7.73637Z" fill="#7D97BD"/>
</svg>
