<svg width="20" height="20" viewBox="0 0 20 20" fill="none" xmlns="http://www.w3.org/2000/svg">
<g clip-path="url(#clip0_43_835)">
<path d="M1.06918 8.79136C1.86523 6.05628 2.76297 4.64307 2.77746 4.61772C2.82863 4.55526 4.09723 3.03714 7.15477 1.91425L7.55879 3.01425C6.10422 3.54846 5.07227 4.20018 4.50473 4.62128C6.1991 4.1153 8.21477 3.80542 10 3.80542C11.7852 3.80542 13.8009 4.1153 15.4953 4.62128C14.9278 4.20022 13.8958 3.54846 12.4412 3.01425L12.8453 1.91425C15.9027 3.03714 17.1713 4.55526 17.2225 4.61772C17.237 4.64307 18.1348 6.05628 18.9308 8.79136C19.698 11.4271 19.9894 15.1455 20 15.2946C19.9316 15.4014 18.3594 18.0858 14.0745 18.0858L12.9884 16.5131C14.2052 16.19 15.3655 15.669 16.4276 14.962L15.7782 13.9865C14.0648 15.127 12.0667 15.7299 10 15.7299C7.93332 15.7299 5.93523 15.127 4.22176 13.9865L3.57242 14.962C4.63449 15.669 5.79481 16.19 7.0116 16.5131L5.92551 18.0858C1.64062 18.0858 0.0683594 15.4014 0 15.2946C0.0105858 15.1455 0.302031 11.4271 1.06918 8.79136ZM12.7093 11.8571H13.8812V9.90393H12.7093V11.8571ZM6.11883 11.8571H7.2907V9.90393H6.11883V11.8571Z" fill="#424D5C"/>
</g>
<defs>
<clipPath id="clip0_43_835">
<rect width="20" height="20" fill="white" transform="matrix(-1 0 0 1 20 0)"/>
</clipPath>
</defs>
</svg>
