<svg width="23" height="27" viewBox="0 0 23 27" fill="none" xmlns="http://www.w3.org/2000/svg">
<path d="M19.3938 10.9921H10.0808C10.5114 10.4971 10.7731 9.85135 10.7731 9.14525C10.7731 7.59139 9.50896 6.32727 7.9551 6.32727C6.40125 6.32727 5.13712 7.59139 5.13712 9.14525C5.13712 9.85135 5.39879 10.4971 5.82939 10.9921H3.60627C2.26287 10.9921 1.16992 12.085 1.16992 13.4284V16.3033C1.16992 16.5724 1.38807 16.7906 1.65719 16.7906C1.92631 16.7906 2.14446 16.5724 2.14446 16.3033V13.4284C2.14446 12.6224 2.80023 11.9666 3.60627 11.9666H17.2498C18.0559 11.9666 18.7116 12.6224 18.7116 13.4284V16.0597H13.644C12.3006 16.0597 11.2077 17.1526 11.2077 18.496C11.2077 19.8394 12.3006 20.9324 13.644 20.9324H18.7116V23.5637C18.7116 24.3697 18.0559 25.0255 17.2498 25.0255H3.60627C2.80023 25.0255 2.14446 24.3697 2.14446 23.5637V20.685C2.14446 20.4158 1.92631 20.1977 1.65719 20.1977C1.38807 20.1977 1.16992 20.4158 1.16992 20.685V23.5637C1.16992 24.9071 2.26287 26 3.60627 26H19.3938C20.7372 26 21.8302 24.9071 21.8302 23.5637V13.4284C21.8302 12.085 20.7372 10.9921 19.3938 10.9921ZM7.9551 7.30186C8.97159 7.30186 9.79854 8.1288 9.79854 9.1453C9.79854 10.1618 8.97159 10.9887 7.9551 10.9887C6.93866 10.9887 6.11166 10.1618 6.11166 9.1453C6.11166 8.1288 6.93861 7.30186 7.9551 7.30186ZM19.1976 11.9666H19.3938C20.1998 11.9666 20.8556 12.6224 20.8556 13.4284V16.0597H19.6862V13.4284C19.6862 12.8804 19.5042 12.3741 19.1976 11.9666ZM12.1822 18.496C12.1822 17.69 12.838 17.0342 13.644 17.0342H20.8556V19.9579H13.644C12.838 19.9579 12.1822 19.3021 12.1822 18.496ZM19.3938 25.0255H19.1976C19.5042 24.618 19.6862 24.1117 19.6862 23.5637V20.9324H20.8556V23.5637C20.8556 24.3697 20.1998 25.0255 19.3938 25.0255Z" fill="#72849F" stroke="#72849F" stroke-width="0.5"/>
<path d="M13.5193 18.0088C13.3906 18.0088 13.2649 18.0609 13.1743 18.1516C13.0836 18.2422 13.032 18.3679 13.032 18.4961C13.032 18.6242 13.0836 18.7499 13.1743 18.8406C13.2654 18.9312 13.3906 18.9833 13.5193 18.9833C13.6474 18.9833 13.7726 18.9312 13.8638 18.8406C13.9544 18.7499 14.0065 18.6242 14.0065 18.4961C14.0065 18.3679 13.9544 18.2422 13.8638 18.1516C13.7731 18.0609 13.6474 18.0088 13.5193 18.0088Z" fill="#72849F" stroke="#72849F" stroke-width="0.5"/>
<path d="M15.045 7.70773C16.5989 7.70773 17.863 6.44361 17.863 4.88975C17.863 3.33595 16.5989 2.07178 15.045 2.07178C13.4912 2.07178 12.2271 3.3359 12.2271 4.88975C12.2271 6.44361 13.4912 7.70773 15.045 7.70773ZM15.045 3.04637C16.0615 3.04637 16.8885 3.87331 16.8885 4.8898C16.8885 5.9063 16.0615 6.73324 15.045 6.73324C14.0285 6.73324 13.2016 5.9063 13.2016 4.8898C13.2016 3.87331 14.0285 3.04637 15.045 3.04637Z" fill="#72849F" stroke="#72849F" stroke-width="0.5"/>
<path d="M10.2859 5.80355C10.555 5.80355 10.7731 5.5854 10.7731 5.31628V1.48727C10.7731 1.21815 10.555 1 10.2859 1C10.0167 1 9.79858 1.21815 9.79858 1.48727V5.31628C9.79858 5.5854 10.0167 5.80355 10.2859 5.80355Z" fill="#72849F" stroke="#72849F" stroke-width="0.5"/>
<path d="M7.94698 4.11853C8.21609 4.11853 8.43424 3.90038 8.43424 3.63126V1.48727C8.43424 1.21815 8.21609 1 7.94698 1C7.67786 1 7.45972 1.21815 7.45972 1.48727V3.63126C7.45972 3.90038 7.67786 4.11853 7.94698 4.11853Z" fill="#72849F" stroke="#72849F" stroke-width="0.5"/>
<path d="M1.65719 18.9833C1.78534 18.9833 1.91105 18.9312 2.00169 18.8406C2.09232 18.7499 2.14446 18.6242 2.14446 18.4961C2.14446 18.3679 2.09232 18.2422 2.00169 18.1516C1.91105 18.0609 1.78583 18.0088 1.65719 18.0088C1.52904 18.0088 1.40332 18.0609 1.31269 18.1516C1.22206 18.2422 1.16992 18.3679 1.16992 18.4961C1.16992 18.6242 1.22206 18.7499 1.31269 18.8406C1.40332 18.9312 1.52899 18.9833 1.65719 18.9833Z" fill="#72849F" stroke="#72849F" stroke-width="0.5"/>
</svg>
