<svg width="18" height="18" viewBox="0 0 18 18" fill="none" xmlns="http://www.w3.org/2000/svg">
<path d="M17.9966 0.675984C17.9955 0.664875 17.9935 0.654117 17.9919 0.643184C17.99 0.62993 17.9884 0.616641 17.9858 0.603457C17.9833 0.590871 17.9799 0.578672 17.9768 0.566332C17.9739 0.554977 17.9714 0.543551 17.968 0.532301C17.9644 0.520172 17.9598 0.508465 17.9555 0.496617C17.9515 0.485402 17.9478 0.474082 17.9432 0.463008C17.9387 0.451934 17.9332 0.441352 17.9282 0.430559C17.9228 0.419168 17.9177 0.407672 17.9118 0.396492C17.9062 0.386156 17.8999 0.376312 17.8939 0.366258C17.8874 0.355324 17.8812 0.34425 17.874 0.333562C17.8666 0.322453 17.8583 0.312012 17.8503 0.301324C17.8437 0.29243 17.8375 0.283289 17.8304 0.274605C17.8148 0.255656 17.7984 0.23741 17.7811 0.220078C17.7809 0.219938 17.7808 0.219797 17.7807 0.219656C17.7806 0.219516 17.7804 0.219445 17.7803 0.219305C17.7629 0.201973 17.7447 0.185555 17.7258 0.16998C17.7171 0.162844 17.7079 0.156656 17.699 0.149977C17.6883 0.141996 17.6779 0.133734 17.6668 0.126316C17.6561 0.11918 17.645 0.112992 17.6341 0.106453C17.624 0.100441 17.6142 0.0941484 17.6039 0.0885938C17.5927 0.0826172 17.5812 0.0775547 17.5698 0.0721758C17.559 0.0670781 17.5484 0.0616992 17.5373 0.0570937C17.5263 0.0525234 17.515 0.0487969 17.5037 0.0447891C17.4919 0.0405352 17.4802 0.036 17.4681 0.0323437C17.4568 0.0289336 17.4454 0.0264375 17.434 0.0235898C17.4217 0.0204609 17.4095 0.0170156 17.3969 0.0145195C17.3838 0.011918 17.3705 0.0103359 17.3572 0.0084375C17.3463 0.00689062 17.3355 0.00478125 17.3244 0.00369141C17.2998 0.00130078 17.2751 0 17.2504 0H12.0003C11.5861 0 11.2504 0.335777 11.2504 0.749988C11.2504 1.1642 11.5861 1.49998 12.0003 1.49998H15.4397L9.97003 6.96966C9.67714 7.26254 9.67714 7.73743 9.97003 8.03032C10.2629 8.32321 10.7378 8.32321 11.0307 8.03032L16.5003 2.56068V6.00001C16.5003 6.41422 16.8361 6.75 17.2503 6.75C17.6645 6.75 18.0004 6.41422 18.0004 6.00001V0.750059C18.0004 0.725309 17.9991 0.700594 17.9966 0.675984Z" fill="#5C6A7E"/>
<path d="M6.96966 9.9697L1.50001 15.4393V12C1.50001 11.5858 1.16423 11.25 0.750023 11.25C0.335777 11.25 0 11.5858 0 12V17.25C0 17.2747 0.00130078 17.2994 0.00372656 17.324C0.00481641 17.3351 0.00689062 17.3458 0.00847265 17.3568C0.0103711 17.3701 0.011918 17.3834 0.0145547 17.3965C0.0170508 17.4091 0.0204961 17.4213 0.023625 17.4336C0.0264727 17.445 0.0289687 17.4564 0.0323789 17.4677C0.0360352 17.4798 0.0405703 17.4915 0.0448242 17.5033C0.0488672 17.5145 0.0525586 17.5259 0.0571289 17.5369C0.0616992 17.548 0.0671133 17.5586 0.0722109 17.5694C0.0775898 17.5808 0.0826523 17.5923 0.0886289 17.6035C0.0941836 17.6138 0.100477 17.6236 0.106488 17.6337C0.113027 17.6446 0.119215 17.6557 0.126352 17.6664C0.13377 17.6775 0.142031 17.6879 0.150012 17.6986C0.156691 17.7075 0.162879 17.7167 0.170016 17.7253C0.18559 17.7443 0.202008 17.7626 0.21934 17.7799C0.21948 17.78 0.219551 17.7802 0.219691 17.7803C0.219832 17.7804 0.219973 17.7805 0.220113 17.7807C0.237445 17.798 0.255691 17.8144 0.274641 17.83C0.283324 17.8371 0.292465 17.8433 0.301359 17.8499C0.312047 17.8579 0.322488 17.8662 0.333598 17.8736C0.34425 17.8808 0.355324 17.887 0.366293 17.8935C0.376348 17.8995 0.386156 17.9058 0.396527 17.9114C0.407707 17.9173 0.419203 17.9224 0.430594 17.9278C0.441387 17.9329 0.452004 17.9382 0.463043 17.9428C0.474117 17.9474 0.485402 17.9511 0.496652 17.9551C0.5085 17.9594 0.520207 17.9639 0.532336 17.9676C0.543586 17.971 0.555012 17.9735 0.566367 17.9764C0.578707 17.9795 0.590906 17.9829 0.603492 17.9854C0.616676 17.988 0.629965 17.9896 0.643219 17.9915C0.654152 17.993 0.664945 17.9951 0.676019 17.9962C0.700629 17.9986 0.725309 17.9999 0.749988 17.9999H0.750023H6.00001C6.41422 17.9999 6.75 17.6642 6.75 17.25C6.75 16.8358 6.41422 16.5 6.00001 16.5H2.56068L8.03035 11.0303C8.32324 10.7374 8.32324 10.2625 8.03035 9.96963C7.73747 9.67674 7.26258 9.67681 6.96966 9.9697Z" fill="#5C6A7E"/>
</svg>
