<svg width="32" height="33" viewBox="0 0 32 33" fill="none" xmlns="http://www.w3.org/2000/svg">
<circle cx="16" cy="16.9883" r="16" fill="#1A1A20"/>
<path d="M16.0001 4.98828C9.3735 4.98828 4 10.4968 4 17.2921C4 22.7282 7.43839 27.3402 12.2064 28.9671C12.8061 29.081 13.0263 28.7002 13.0263 28.3753C13.0263 28.0819 13.0152 27.1126 13.01 26.0845C9.67157 26.8288 8.96712 24.6328 8.96712 24.6328C8.42125 23.2107 7.63473 22.8326 7.63473 22.8326C6.54596 22.0689 7.7168 22.0846 7.7168 22.0846C8.92181 22.1714 9.55632 23.3525 9.55632 23.3525C10.6266 25.2335 12.3636 24.6897 13.0484 24.3753C13.1561 23.5801 13.4671 23.0373 13.8102 22.7301C11.1449 22.4189 8.34295 21.3639 8.34295 16.6495C8.34295 15.3062 8.81172 14.2086 9.57937 13.347C9.45477 13.0371 9.04402 11.7857 9.69562 10.0909C9.69562 10.0909 10.7033 9.76021 12.9965 11.3521C13.9537 11.0795 14.9803 10.9428 16.0001 10.9381C17.0199 10.9428 18.0473 11.0795 19.0063 11.3521C21.2967 9.76021 22.303 10.0909 22.303 10.0909C22.9562 11.7857 22.5452 13.0371 22.4206 13.347C23.1901 14.2086 23.6557 15.3062 23.6557 16.6495C23.6557 21.3752 20.8484 22.4157 18.1762 22.7203C18.6067 23.1021 18.9902 23.8509 18.9902 24.9988C18.9902 26.645 18.9763 27.97 18.9763 28.3753C18.9763 28.7027 19.1923 29.0863 19.8006 28.9655C24.566 27.3368 28 22.7264 28 17.2921C28 10.4968 22.6273 4.98828 16.0001 4.98828Z" fill="#FEFEFE"/>
<path d="M8.58043 22.5694C8.55405 22.63 8.46043 22.6481 8.37514 22.6066C8.28827 22.5668 8.23947 22.4843 8.26764 22.4236C8.29342 22.3612 8.38724 22.3439 8.47392 22.3857C8.56099 22.4254 8.61058 22.5087 8.58043 22.5694Z" fill="#FEFEFE"/>
<path d="M9.06559 23.1198C9.00846 23.1736 8.89679 23.1486 8.82103 23.0635C8.74268 22.9786 8.728 22.865 8.78592 22.8103C8.84483 22.7564 8.95312 22.7817 9.03167 22.8666C9.11002 22.9525 9.12529 23.0653 9.06559 23.1198Z" fill="#FEFEFE"/>
<path d="M9.53784 23.8214C9.46445 23.8733 9.34445 23.8246 9.27027 23.7163C9.19688 23.608 9.19688 23.4781 9.27186 23.426C9.34624 23.374 9.46445 23.4208 9.53963 23.5283C9.61282 23.6384 9.61282 23.7684 9.53784 23.8214Z" fill="#FEFEFE"/>
<path d="M10.1848 24.4992C10.1192 24.5729 9.97936 24.5531 9.87701 24.4526C9.77229 24.3544 9.74313 24.215 9.80898 24.1414C9.87543 24.0675 10.0161 24.0883 10.1192 24.188C10.2231 24.286 10.2549 24.4264 10.1848 24.4992Z" fill="#FEFEFE"/>
<path d="M11.0774 24.8928C11.0485 24.9883 10.9138 25.0316 10.7781 24.9911C10.6426 24.9493 10.554 24.8376 10.5813 24.7411C10.6095 24.6451 10.7448 24.5999 10.8814 24.6433C11.0167 24.6848 11.1056 24.7958 11.0774 24.8928Z" fill="#FEFEFE"/>
<path d="M12.0576 24.9659C12.061 25.0663 11.946 25.1496 11.8036 25.1515C11.6604 25.1547 11.5445 25.0734 11.5429 24.9745C11.5429 24.8731 11.6554 24.7906 11.7986 24.7881C11.941 24.7853 12.0576 24.866 12.0576 24.9659Z" fill="#FEFEFE"/>
<path d="M12.9699 24.8079C12.9869 24.9059 12.8879 25.0066 12.7465 25.0334C12.6075 25.0593 12.4787 24.9987 12.4611 24.9015C12.4438 24.801 12.5446 24.7004 12.6834 24.6744C12.8251 24.6493 12.9518 24.7082 12.9699 24.8079Z" fill="#FEFEFE"/>
</svg>
