<svg width="5" height="16" viewBox="0 0 5 16" fill="none" xmlns="http://www.w3.org/2000/svg">
<path d="M0.625 7.62485C0.625 8.59499 1.41448 9.38447 2.38462 9.38447C3.35475 9.38447 4.14423 8.59499 4.14423 7.62485C4.14423 6.65472 3.35475 5.86523 2.38462 5.86523C1.41448 5.86523 0.625 6.65472 0.625 7.62485Z" fill="#72849F"/>
<path d="M0.625 13.4901C0.625 14.4602 1.41448 15.2497 2.38462 15.2497C3.35475 15.2497 4.14423 14.4602 4.14423 13.4901C4.14423 12.5199 3.35475 11.7305 2.38462 11.7305C1.41448 11.7305 0.625 12.5199 0.625 13.4901Z" fill="#72849F"/>
<path d="M0.625 1.75962C0.625 2.72975 1.41448 3.51923 2.38462 3.51923C3.35475 3.51923 4.14423 2.72975 4.14423 1.75962C4.14423 0.789481 3.35475 0 2.38462 0C1.41448 0 0.625 0.789481 0.625 1.75962Z" fill="#72849F"/>
</svg>
