<svg width="19" height="24" viewBox="0 0 19 24" fill="none" xmlns="http://www.w3.org/2000/svg">
<path d="M9.47321 13.4367C8.14522 13.437 6.84698 13.0431 5.74268 12.3051C4.63838 11.567 3.77761 10.5178 3.26925 9.2902C2.76088 8.0626 2.62775 6.71172 2.88668 5.40841C3.14562 4.1051 3.78499 2.90789 4.72394 1.96819C5.66289 1.02849 6.85924 0.388508 8.1617 0.129182C9.46416 -0.130144 10.8142 0.00283153 12.0412 0.511293C13.2681 1.01975 14.3168 1.88086 15.0546 2.98572C15.7924 4.09057 16.1862 5.38954 16.1862 6.71836C16.1846 8.49949 15.4769 10.2072 14.2184 11.4668C12.9598 12.7263 11.2532 13.4348 9.47321 13.4367ZM9.47321 2.39378C8.61808 2.39354 7.78209 2.64707 7.07098 3.1223C6.35986 3.59754 5.80557 4.27312 5.47822 5.0636C5.15087 5.85408 5.06515 6.72395 5.23192 7.56318C5.39869 8.40241 5.81045 9.1733 6.41512 9.77835C7.01979 10.3834 7.7902 10.7954 8.62892 10.9623C9.46763 11.1292 10.337 11.0434 11.127 10.7158C11.9169 10.3883 12.5921 9.83364 13.067 9.12209C13.542 8.41053 13.7954 7.57402 13.7951 6.71836C13.7935 5.5719 13.3377 4.47284 12.5275 3.66217C11.7173 2.85149 10.619 2.39536 9.47321 2.39378Z" fill="url(#paint0_linear_1760_2435)"/>
<path d="M17.7491 23.9268C17.432 23.9268 17.128 23.8008 16.9037 23.5764C16.6795 23.3521 16.5536 23.0478 16.5536 22.7305V19.9695C16.5526 19.1889 16.2423 18.4407 15.6908 17.8887C15.1392 17.3368 14.3914 17.0263 13.6113 17.0254H5.33335C4.5533 17.0263 3.80548 17.3368 3.25391 17.8887C2.70234 18.4407 2.39205 19.1889 2.3911 19.9695V21.5342H13.5252C13.8423 21.5342 14.1464 21.6603 14.3706 21.8846C14.5948 22.109 14.7208 22.4132 14.7208 22.7305C14.7208 23.0478 14.5948 23.3521 14.3706 23.5764C14.1464 23.8008 13.8423 23.9268 13.5252 23.9268H1.19555C0.87847 23.9268 0.574377 23.8008 0.350168 23.5764C0.125959 23.3521 0 23.0478 0 22.7305V19.9695C0.00158219 18.5546 0.563995 17.1981 1.56385 16.1976C2.5637 15.1972 3.91934 14.6344 5.33335 14.6328H13.6113C15.0253 14.6344 16.381 15.1972 17.3808 16.1976C18.3807 17.1981 18.9431 18.5546 18.9447 19.9695V22.7305C18.9447 23.0478 18.8187 23.3521 18.5945 23.5764C18.3703 23.8008 18.0662 23.9268 17.7491 23.9268Z" fill="url(#paint1_linear_1760_2435)"/>
<defs>
<linearGradient id="paint0_linear_1760_2435" x1="5.56457" y1="-9.74162" x2="21.3107" y2="-7.57898" gradientUnits="userSpaceOnUse">
<stop stop-color="#7517F8"/>
<stop offset="1" stop-color="#E423FF"/>
</linearGradient>
<linearGradient id="paint1_linear_1760_2435" x1="3.95975" y1="7.89467" x2="24.9463" y2="13.7737" gradientUnits="userSpaceOnUse">
<stop stop-color="#7517F8"/>
<stop offset="1" stop-color="#E423FF"/>
</linearGradient>
</defs>
</svg>
