<svg width="32" height="33" viewBox="0 0 32 33" fill="none" xmlns="http://www.w3.org/2000/svg">
<path fill-rule="evenodd" clip-rule="evenodd" d="M-9.07879e-08 16.9883C-4.06471e-08 8.15173 7.16344 0.988281 16 0.988281C24.8366 0.988281 32 8.15173 32 16.9883C32 25.8248 24.8366 32.9883 16 32.9883C7.16344 32.9883 -1.40929e-07 25.8248 -9.07879e-08 16.9883Z" fill="#1A1A20"/>
<path fill-rule="evenodd" clip-rule="evenodd" d="M16.0009 8.45508C13.6834 8.45508 13.3925 8.46521 12.4823 8.50663C11.5739 8.54823 10.9538 8.69206 10.4112 8.90308C9.84993 9.12104 9.37384 9.4126 8.89952 9.88709C8.42485 10.3614 8.13329 10.8375 7.91462 11.3986C7.70307 11.9413 7.55906 12.5616 7.51818 13.4697C7.47746 14.3799 7.4668 14.671 7.4668 16.9885C7.4668 19.306 7.47711 19.596 7.51835 20.5062C7.56013 21.4147 7.70395 22.0348 7.9148 22.5774C8.13294 23.1386 8.4245 23.6147 8.89899 24.089C9.37313 24.5637 9.84922 24.856 10.4101 25.0739C10.9531 25.2849 11.5733 25.4288 12.4816 25.4704C13.3918 25.5118 13.6825 25.5219 15.9999 25.5219C18.3176 25.5219 18.6075 25.5118 19.5178 25.4704C20.4262 25.4288 21.047 25.2849 21.59 25.0739C22.151 24.856 22.6264 24.5637 23.1006 24.089C23.5752 23.6147 23.8668 23.1386 24.0855 22.5775C24.2952 22.0348 24.4392 21.4145 24.4819 20.5064C24.5228 19.5962 24.5335 19.306 24.5335 16.9885C24.5335 14.671 24.5228 14.3801 24.4819 13.4699C24.4392 12.5614 24.2952 11.9413 24.0855 11.3988C23.8668 10.8375 23.5752 10.3614 23.1006 9.88709C22.6259 9.41242 22.1512 9.12086 21.5894 8.90308C21.0454 8.69206 20.425 8.54823 19.5165 8.50663C18.6063 8.46521 18.3165 8.45508 15.9983 8.45508L16.0009 8.45508ZM15.2354 9.99285C15.4626 9.99249 15.7161 9.99285 16.0009 9.99285C18.2793 9.99285 18.5494 10.001 19.4491 10.0419C20.2811 10.08 20.7327 10.219 21.0335 10.3358C21.4317 10.4905 21.7156 10.6753 22.0141 10.974C22.3128 11.2727 22.4977 11.5571 22.6527 11.9554C22.7695 12.2558 22.9087 12.7074 22.9466 13.5394C22.9875 14.4389 22.9963 14.7092 22.9963 16.9865C22.9963 19.2639 22.9875 19.5341 22.9466 20.4337C22.9085 21.2657 22.7695 21.7172 22.6527 22.0177C22.498 22.4159 22.3128 22.6995 22.0141 22.998C21.7154 23.2966 21.4319 23.4815 21.0335 23.6362C20.733 23.7535 20.2811 23.8922 19.4491 23.9302C18.5495 23.9711 18.2793 23.98 16.0009 23.98C13.7223 23.98 13.4522 23.9711 12.5527 23.9302C11.7207 23.8918 11.2691 23.7528 10.9681 23.636C10.5699 23.4813 10.2855 23.2965 9.98679 22.9978C9.68812 22.6991 9.50323 22.4154 9.3482 22.017C9.2314 21.7165 9.0922 21.265 9.05433 20.433C9.01344 19.5334 9.00527 19.2632 9.00527 16.9844C9.00527 14.7056 9.01344 14.4368 9.05433 13.5372C9.09238 12.7052 9.2314 12.2537 9.3482 11.9529C9.50287 11.5546 9.68812 11.2702 9.98679 10.9715C10.2855 10.6729 10.5699 10.488 10.9681 10.3329C11.2689 10.2156 11.7207 10.0769 12.5527 10.0387C13.3399 10.0032 13.645 9.99249 15.2354 9.99071L15.2354 9.99285ZM20.556 11.4098C19.9906 11.4098 19.532 11.8679 19.532 12.4334C19.532 12.9987 19.9906 13.4574 20.556 13.4574C21.1213 13.4574 21.58 12.9987 21.58 12.4334C21.58 11.8681 21.1213 11.4098 20.556 11.4098ZM16.0009 12.6062C13.5808 12.6062 11.6187 14.5684 11.6187 16.9885C11.6187 19.4086 13.5808 21.3699 16.0009 21.3699C18.4211 21.3699 20.3825 19.4086 20.3825 16.9885C20.3825 14.5684 18.4211 12.6062 16.0009 12.6062ZM16.0009 14.144C17.5718 14.144 18.8454 15.4174 18.8454 16.9885C18.8454 18.5593 17.5718 19.833 16.0009 19.833C14.4299 19.833 13.1564 18.5593 13.1564 16.9885C13.1564 15.4174 14.4299 14.144 16.0009 14.144Z" fill="#FEFEFE"/>
</svg>
