<svg width="35" height="35" viewBox="0 0 35 35" fill="none" xmlns="http://www.w3.org/2000/svg">
<path fill-rule="evenodd" clip-rule="evenodd" d="M4.07349 16.6843C3.69106 16.661 3.32758 16.5098 3.04149 16.2549C2.7554 16.0001 2.56333 15.6564 2.49618 15.2792C2.42902 14.902 2.49068 14.5132 2.67124 14.1752C2.8518 13.8373 3.14076 13.5699 3.49165 13.4161C3.13266 13.857 2.96285 14.5018 3.08239 15.1751C3.20192 15.8484 3.58427 16.395 4.07191 16.6843H4.07349ZM6.3676 25.8988C6.02815 26.0764 5.63886 26.1346 5.26233 26.0641C4.88579 25.9937 4.54388 25.7987 4.29156 25.5105C4.03923 25.2222 3.89116 24.8575 3.87113 24.475C3.85111 24.0924 3.9603 23.7143 4.18115 23.4013C4.10199 23.9645 4.28921 24.6041 4.73964 25.1191C5.19007 25.634 5.80159 25.904 6.36998 25.8988H6.3676ZM13.0267 28.9981C12.7159 29.3507 12.2956 29.5886 11.8333 29.6735C11.371 29.7583 10.8936 29.6853 10.4779 29.466C10.0621 29.2467 9.73225 28.8939 9.54125 28.4645C9.35025 28.035 9.30924 27.5537 9.42483 27.0982C9.58077 27.7774 10.0759 28.4285 10.8181 28.8191C11.5602 29.2098 12.3803 29.2534 13.0291 28.9981H13.0267ZM20.2379 28.0651C20.8285 27.9606 21.3858 28.3177 21.4839 28.8643C21.5821 29.4109 21.1803 29.9389 20.5898 30.0442C19.9993 30.1495 19.442 29.7917 19.3438 29.2454C19.2456 28.6992 19.6466 28.1708 20.2379 28.0651ZM6.73451 18.2965C7.52613 18.1555 8.2936 18.7402 8.44678 19.6026C8.59996 20.4651 8.08185 21.2765 7.28983 21.417C6.49782 21.5576 5.73035 20.9745 5.57717 20.1132C5.42399 19.2519 5.9425 18.4382 6.73451 18.2965ZM6.52513 9.82606C7.02306 9.73739 7.51465 10.1581 7.62311 10.7669C7.73156 11.3757 7.4157 11.9401 6.91659 12.028C6.41747 12.1158 5.92706 11.6963 5.81743 11.0871C5.70779 10.478 6.02602 9.91551 6.52513 9.82645V9.82606ZM19.6007 33.3255C20.0164 33.5446 20.4936 33.6178 20.9559 33.5333C21.4182 33.4488 21.8387 33.2116 22.1501 32.8596C21.5006 33.1141 20.6832 33.0718 19.9411 32.6803C19.1989 32.2888 18.7042 31.6373 18.549 30.9581C18.4335 31.4135 18.4744 31.8945 18.6651 32.3238C18.8558 32.7532 19.1853 33.1059 19.6007 33.3255ZM32.4759 22.1085C31.0855 28.3968 26.044 33.5424 19.3094 34.7409C10.3775 36.3309 1.84707 30.3787 0.257107 21.4459C-1.29961 12.7036 4.37075 4.34602 12.9895 2.5043C10.4973 4.1381 8.58358 6.51586 7.5202 9.29962C7.75602 9.44351 7.9585 9.63597 8.11417 9.86418C8.26984 10.0924 8.37513 10.3512 8.42303 10.6232C8.60946 11.6773 7.91798 12.6814 6.87621 12.8679C6.80775 12.8803 6.73864 12.8889 6.66921 12.8936C6.53872 14.1931 6.58908 15.5044 6.81882 16.79C6.86289 17.0394 6.91368 17.2852 6.97121 17.5274C8.14834 17.5143 9.20001 18.3645 9.41572 19.5761C9.48706 19.9709 9.46171 20.3771 9.34184 20.7599C9.22197 21.1428 9.01115 21.4909 8.72741 21.7745C9.81701 23.521 11.2745 25.0089 12.9982 26.1343C14.7219 27.2596 16.6704 27.9954 18.7077 28.2903C18.8662 27.9613 19.1158 27.6846 19.4268 27.4931C19.7378 27.3016 20.0973 27.2034 20.4625 27.21C20.8276 27.2167 21.1833 27.328 21.4871 27.5307C21.7909 27.7334 22.0302 28.019 22.1766 28.3537C22.5107 28.3177 22.8471 28.2709 23.1831 28.2112C25.0654 27.8786 26.8602 27.1659 28.4579 26.1167C30.0556 25.0675 31.4228 23.7037 32.4759 22.1085Z" fill="url(#paint0_linear_931_272)"/>
<path fill-rule="evenodd" clip-rule="evenodd" d="M24.445 11.9298L23.7571 11.2415L23.068 10.5536L23.5263 9.75798L24.3816 10.6149L25.239 11.4715L24.445 11.9298ZM25.7456 11.1778L24.783 10.214L23.8184 9.25213L24.4434 8.17156L22.5855 7.52124L24.4117 5.69417L26.3318 5.81845C28.7332 3.32958 31.2711 0.994283 35 0C34.0045 3.72935 31.6693 6.2673 29.1816 8.66831L29.3059 10.5876L27.4796 12.4147L26.8293 10.5567L25.7456 11.1778ZM23.4523 11.5435L22.8645 10.9557L15.0528 20.0329L24.0401 12.1333L23.4523 11.5435Z" fill="url(#paint1_linear_931_272)"/>
<defs>
<linearGradient id="paint0_linear_931_272" x1="16.238" y1="2.5043" x2="16.238" y2="34.9979" gradientUnits="userSpaceOnUse">
<stop stop-color="#76D0F8"/>
<stop offset="0.239583" stop-color="#9892FA"/>
<stop offset="0.505208" stop-color="#B182FB"/>
<stop offset="0.75" stop-color="#D16CFC"/>
<stop offset="1" stop-color="#F952FE"/>
</linearGradient>
<linearGradient id="paint1_linear_931_272" x1="25.0264" y1="0" x2="25.0264" y2="20.0329" gradientUnits="userSpaceOnUse">
<stop stop-color="#76D0F8"/>
<stop offset="0.239583" stop-color="#9892FA"/>
<stop offset="0.505208" stop-color="#B182FB"/>
<stop offset="0.75" stop-color="#D16CFC"/>
<stop offset="1" stop-color="#F952FE"/>
</linearGradient>
</defs>
</svg>
