<svg width="25" height="23" viewBox="0 0 25 23" fill="none" xmlns="http://www.w3.org/2000/svg">
<path d="M24.6906 10.8078L22.0157 8.92193C21.531 8.58028 20.8611 8.92818 20.8611 9.52056V10.674H8.01738C7.61289 10.674 7.28491 11.0019 7.28491 11.4064C7.28491 11.811 7.61289 12.1389 8.01738 12.1389H20.861V13.2922C20.861 13.8885 21.5345 14.2299 22.0155 13.8909L24.6905 12.005C25.099 11.7172 25.1072 11.1021 24.6906 10.8078Z" fill="#72849F"/>
<path d="M21.0191 16.1094C20.669 15.9069 20.2209 16.0265 20.0183 16.3767C18.2978 19.3511 15.0816 21.3479 11.4064 21.3479C5.92466 21.3479 1.46489 16.8881 1.46489 11.4064C1.46489 5.92466 5.92466 1.46489 11.4064 1.46489C15.0841 1.46489 18.2988 3.46357 20.0183 6.43604C20.2208 6.78623 20.669 6.90571 21.019 6.70332C21.3692 6.50078 21.4888 6.05269 21.2863 5.70254C19.3075 2.28174 15.6118 0 11.4064 0C5.10205 0 0 5.10151 0 11.4064C0 17.7107 5.10151 22.8128 11.4064 22.8128C15.6136 22.8128 19.3084 20.5294 21.2864 17.1102C21.4889 16.76 21.3692 16.312 21.0191 16.1094Z" fill="#72849F"/>
</svg>
