<svg width="20" height="20" viewBox="0 0 20 20" fill="none" xmlns="http://www.w3.org/2000/svg">
<path fill-rule="evenodd" clip-rule="evenodd" d="M2.96863 10.4709C2.09826 9.5928 1.6095 8.40602 1.6095 7.16864C1.6095 5.92441 2.10341 4.73078 2.9832 3.85098C3.863 2.97119 5.05664 2.47726 6.30088 2.47726C7.54511 2.47726 8.73875 2.97119 9.61855 3.85098L9.93925 4.17169L10.26 3.85098C11.1398 2.97119 12.3325 2.47726 13.5768 2.47726C14.8219 2.47726 16.0146 2.97119 16.8944 3.85098C17.7742 4.73078 18.269 5.92441 18.269 7.16864C18.269 8.40602 17.7802 9.5928 16.909 10.4709L10.5446 17.21C10.3877 17.3763 10.1682 17.4706 9.93925 17.4706C9.71029 17.4706 9.49078 17.3763 9.33386 17.21L2.96863 10.4709ZM9.93925 15.4247L15.6999 9.32526L15.7171 9.30811C16.2839 8.74044 16.6029 7.97126 16.6029 7.16864C16.6029 6.36602 16.2839 5.59685 15.7171 5.02919C15.1494 4.46152 14.3794 4.14253 13.5768 4.14253C12.775 4.14253 12.005 4.46152 11.4373 5.02919L10.5284 5.93899C10.2025 6.26398 9.67514 6.26398 9.35015 5.93899L8.44033 5.02919C7.87353 4.46152 7.1035 4.14253 6.30088 4.14253C5.49825 4.14253 4.72908 4.46152 4.16142 5.02919C3.59375 5.59685 3.27561 6.36602 3.27561 7.16864C3.27561 7.97126 3.59375 8.74044 4.16142 9.30811C4.16742 9.31411 4.17256 9.31925 4.17771 9.32526L9.93925 15.4247Z" fill="url(#paint0_linear_177_13)"/>
<defs>
<linearGradient id="paint0_linear_177_13" x1="9.93925" y1="2.47726" x2="9.93925" y2="17.4706" gradientUnits="userSpaceOnUse">
<stop stop-color="#76D0F8"/>
<stop offset="0.239583" stop-color="#9892FA"/>
<stop offset="0.505208" stop-color="#B182FB"/>
<stop offset="0.75" stop-color="#D16CFC"/>
<stop offset="1" stop-color="#F952FE"/>
</linearGradient>
</defs>
</svg>
