<svg width="32" height="32" viewBox="0 0 32 32" fill="none" xmlns="http://www.w3.org/2000/svg">
<path d="M27.5289 3.56641L17.5352 10.9889L19.3832 6.60972L27.5289 3.56641Z" fill="#E2761B" stroke="#E2761B" stroke-width="0.100439" stroke-linecap="round" stroke-linejoin="round"/>
<path d="M4.45898 3.56543L14.3724 11.0582L12.6147 6.60874L4.45898 3.56543Z" fill="#E4761B" stroke="#E4761B" stroke-width="0.100439" stroke-linecap="round" stroke-linejoin="round"/>
<path d="M23.9331 20.7705L21.2715 24.8483L26.9664 26.4152L28.6036 20.8609L23.9331 20.7705Z" fill="#E4761B" stroke="#E4761B" stroke-width="0.100439" stroke-linecap="round" stroke-linejoin="round"/>
<path d="M3.4043 20.8609L5.03142 26.4152L10.7263 24.8483L8.06469 20.7705L3.4043 20.8609Z" fill="#E4761B" stroke="#E4761B" stroke-width="0.100439" stroke-linecap="round" stroke-linejoin="round"/>
<path d="M10.4033 13.881L8.81641 16.2815L14.4711 16.5326L14.2703 10.4561L10.4033 13.881Z" fill="#E4761B" stroke="#E4761B" stroke-width="0.100439" stroke-linecap="round" stroke-linejoin="round"/>
<path d="M21.5848 13.881L17.6677 10.3857L17.5371 16.5326L23.1818 16.2815L21.5848 13.881Z" fill="#E4761B" stroke="#E4761B" stroke-width="0.100439" stroke-linecap="round" stroke-linejoin="round"/>
<path d="M10.7266 24.8477L14.1214 23.1904L11.1886 20.9004L10.7266 24.8477Z" fill="#E4761B" stroke="#E4761B" stroke-width="0.100439" stroke-linecap="round" stroke-linejoin="round"/>
<path d="M17.8691 23.1904L21.274 24.8477L20.802 20.9004L17.8691 23.1904Z" fill="#E4761B" stroke="#E4761B" stroke-width="0.100439" stroke-linecap="round" stroke-linejoin="round"/>
<path d="M21.276 24.8496L17.8711 23.1924L18.1423 25.4121L18.1121 26.3462L21.276 24.8496Z" fill="#D7C1B3" stroke="#D7C1B3" stroke-width="0.100439" stroke-linecap="round" stroke-linejoin="round"/>
<path d="M10.7285 24.8496L13.8924 26.3462L13.8723 25.4121L14.1234 23.1924L10.7285 24.8496Z" fill="#D7C1B3" stroke="#D7C1B3" stroke-width="0.100439" stroke-linecap="round" stroke-linejoin="round"/>
<path d="M13.9398 19.4351L11.1074 18.6015L13.1062 17.6875L13.9398 19.4351Z" fill="#233447" stroke="#233447" stroke-width="0.100439" stroke-linecap="round" stroke-linejoin="round"/>
<path d="M18.0488 19.4351L18.8825 17.6875L20.8913 18.6015L18.0488 19.4351Z" fill="#233447" stroke="#233447" stroke-width="0.100439" stroke-linecap="round" stroke-linejoin="round"/>
<path d="M10.7261 24.8483L11.2082 20.7705L8.06445 20.8609L10.7261 24.8483Z" fill="#CD6116" stroke="#CD6116" stroke-width="0.100439" stroke-linecap="round" stroke-linejoin="round"/>
<path d="M20.7891 20.7705L21.2712 24.8483L23.9328 20.8609L20.7891 20.7705Z" fill="#CD6116" stroke="#CD6116" stroke-width="0.100439" stroke-linecap="round" stroke-linejoin="round"/>
<path d="M23.1799 16.2812L17.5352 16.5323L18.0574 19.435L18.8911 17.6874L20.8999 18.6014L23.1799 16.2812Z" fill="#CD6116" stroke="#CD6116" stroke-width="0.100439" stroke-linecap="round" stroke-linejoin="round"/>
<path d="M11.1084 18.6014L13.1172 17.6874L13.9408 19.435L14.4731 16.5323L8.81836 16.2812L11.1084 18.6014Z" fill="#CD6116" stroke="#CD6116" stroke-width="0.100439" stroke-linecap="round" stroke-linejoin="round"/>
<path d="M8.81836 16.2812L11.1887 20.9015L11.1084 18.6014L8.81836 16.2812Z" fill="#E4751F" stroke="#E4751F" stroke-width="0.100439" stroke-linecap="round" stroke-linejoin="round"/>
<path d="M20.9012 18.6014L20.8008 20.9015L23.1812 16.2812L20.9012 18.6014Z" fill="#E4751F" stroke="#E4751F" stroke-width="0.100439" stroke-linecap="round" stroke-linejoin="round"/>
<path d="M14.4718 16.5322L13.9395 19.4349L14.6024 22.8599L14.753 18.3502L14.4718 16.5322Z" fill="#E4751F" stroke="#E4751F" stroke-width="0.100439" stroke-linecap="round" stroke-linejoin="round"/>
<path d="M17.5368 16.5322L17.2656 18.3401L17.3862 22.8599L18.0591 19.4349L17.5368 16.5322Z" fill="#E4751F" stroke="#E4751F" stroke-width="0.100439" stroke-linecap="round" stroke-linejoin="round"/>
<path d="M18.0597 19.4362L17.3867 22.8612L17.8688 23.1926L20.8017 20.9026L20.9021 18.6025L18.0597 19.4362Z" fill="#F6851B" stroke="#F6851B" stroke-width="0.100439" stroke-linecap="round" stroke-linejoin="round"/>
<path d="M11.1074 18.6025L11.1878 20.9026L14.1206 23.1926L14.6027 22.8612L13.9398 19.4362L11.1074 18.6025Z" fill="#F6851B" stroke="#F6851B" stroke-width="0.100439" stroke-linecap="round" stroke-linejoin="round"/>
<path d="M18.1089 26.3452L18.139 25.4111L17.8879 25.1901H14.1013L13.8703 25.4111L13.8904 26.3452L10.7266 24.8486L11.8314 25.7526L14.0712 27.3094H17.918L20.1679 25.7526L21.2727 24.8486L18.1089 26.3452Z" fill="#C0AD9E" stroke="#C0AD9E" stroke-width="0.100439" stroke-linecap="round" stroke-linejoin="round"/>
<path d="M17.8686 23.1918L17.3865 22.8604H14.6043L14.1222 23.1918L13.8711 25.4115L14.1021 25.1905H17.8887L18.1398 25.4115L17.8686 23.1918Z" fill="#161616" stroke="#161616" stroke-width="0.100439" stroke-linecap="round" stroke-linejoin="round"/>
<path d="M27.9513 11.47L28.805 7.37208L27.5295 3.56543L17.8672 10.7368L21.5834 13.8806L26.8364 15.4173L28.0015 14.0613L27.4993 13.6998L28.3028 12.9666L27.6801 12.4845L28.4836 11.8718L27.9513 11.47Z" fill="#763D16" stroke="#763D16" stroke-width="0.100439" stroke-linecap="round" stroke-linejoin="round"/>
<path d="M3.19336 7.37208L4.04709 11.47L3.50472 11.8718L4.30824 12.4845L3.69556 12.9666L4.49907 13.6998L3.99687 14.0613L5.15193 15.4173L10.4049 13.8806L14.1212 10.7368L4.4589 3.56543L3.19336 7.37208Z" fill="#763D16" stroke="#763D16" stroke-width="0.100439" stroke-linecap="round" stroke-linejoin="round"/>
<path d="M26.8372 15.4176L21.5842 13.8809L23.1812 16.2814L20.8008 20.9016L23.9345 20.8614H28.6049L26.8372 15.4176Z" fill="#F6851B" stroke="#F6851B" stroke-width="0.100439" stroke-linecap="round" stroke-linejoin="round"/>
<path d="M10.4069 13.8809L5.1539 15.4176L3.40625 20.8614H8.06664L11.1903 20.9016L8.81993 16.2814L10.4069 13.8809Z" fill="#F6851B" stroke="#F6851B" stroke-width="0.100439" stroke-linecap="round" stroke-linejoin="round"/>
<path d="M17.5368 16.5328L17.8682 10.7374L19.3949 6.60938H12.6152L14.1218 10.7374L14.4734 16.5328L14.5939 18.3608L14.6039 22.8605H17.3861L17.4062 18.3608L17.5368 16.5328Z" fill="#F6851B" stroke="#F6851B" stroke-width="0.100439" stroke-linecap="round" stroke-linejoin="round"/>
</svg>
