<svg width="61" height="45" viewBox="0 0 61 45" fill="none" xmlns="http://www.w3.org/2000/svg">
<path d="M1.85813 29.0073L1.78491 29.0805V29.184V41.7941C1.78491 42.4925 2.35294 43.0605 3.05134 43.0605H9.91852H10.0221L10.0953 42.9873L23.1382 29.9483L23.3151 29.7715L23.1381 29.5947L13.0927 19.5585C13.0925 19.5583 13.0923 19.5581 13.0921 19.5579C12.6023 19.0625 11.792 19.0674 11.3121 19.5528C11.3119 19.5531 11.3116 19.5533 11.3114 19.5535L1.85813 29.0073ZM12.6169 42.6336L12.19 43.0604H12.7936H57.9402C58.5531 43.0604 59.0655 42.623 59.1819 42.044H59.2068V41.794V27.1413V27.0377L59.1335 26.9645L44.6027 12.4434C44.6025 12.4432 44.6023 12.4431 44.6021 12.4429C44.1131 11.9471 43.3023 11.9522 42.8224 12.4374C42.8222 12.4377 42.8219 12.438 42.8216 12.4382L12.6169 42.6336ZM58.7799 24.4436L59.2067 24.8701V24.2668V3.16852C59.2067 2.47013 58.6386 1.9021 57.9402 1.9021H3.05134C2.35294 1.9021 1.78491 2.47013 1.78491 3.16852V26.3094V26.913L2.2117 26.4862L10.2243 18.4732L10.2254 18.4721C11.271 17.4137 13.1237 17.4092 14.1783 18.4766L14.1794 18.4777L24.2222 28.5112L24.399 28.6878L24.5757 28.5112L41.7344 11.3573L41.7354 11.3563C42.7811 10.2989 44.6338 10.294 45.6884 11.3613L45.6895 11.3624L58.7799 24.4436ZM3.05134 0.369141H57.9402C59.4837 0.369141 60.7396 1.62503 60.7396 3.16852V26.7193V26.7193V26.7193V26.7194V26.7194V26.7194V26.7195V26.7195V26.7195V26.7196V26.7196V26.7196V26.7197V26.7197V26.7197V26.7197V26.7198V26.7198V26.7198V26.7199V41.7941C60.7396 43.3376 59.4837 44.5935 57.9402 44.5935H3.05134C1.50784 44.5935 0.251953 43.3376 0.251953 41.7941V3.16852C0.251953 1.62503 1.50784 0.369141 3.05134 0.369141Z" fill="#5C6A7E" stroke="#141416" stroke-width="0.5"/>
<path d="M19.5645 13.3331C19.5645 10.1082 22.1883 7.48438 25.4132 7.48438C28.6383 7.48438 31.262 10.1082 31.262 13.3331C31.262 16.5581 28.6382 19.1819 25.4132 19.1819C22.1883 19.1819 19.5645 16.5581 19.5645 13.3331ZM21.0974 13.3331C21.0974 15.713 23.0333 17.6489 25.4132 17.6489C27.7932 17.6489 29.729 15.713 29.729 13.3331C29.729 10.9533 27.7932 9.01734 25.4132 9.01734C23.0333 9.01734 21.0974 10.9533 21.0974 13.3331Z" fill="#5C6A7E" stroke="#141416" stroke-width="0.5"/>
</svg>
