<svg width="19" height="23" viewBox="0 0 19 23" fill="none" xmlns="http://www.w3.org/2000/svg">
<path d="M9.49971 11.0338C6.61139 11.0338 4.2616 8.68375 4.2616 5.79512C4.2616 2.90681 6.61144 0.557068 9.49971 0.557068C12.3883 0.557068 14.7383 2.90686 14.7383 5.79512C14.7383 8.68375 12.3883 11.0338 9.49971 11.0338ZM9.49971 2.24457C7.54189 2.24457 5.9491 3.83736 5.9491 5.79512C5.9491 7.75325 7.54189 9.34631 9.49971 9.34631C11.4578 9.34631 13.0508 7.75325 13.0508 5.79512C13.0508 3.83736 11.4578 2.24457 9.49971 2.24457Z" fill="#5C6A7E" stroke="#141416" stroke-width="0.5"/>
<path d="M12.7735 22.4429H6.22651C3.33819 22.4429 0.988403 20.0931 0.988403 17.2048C0.988403 14.3165 3.33825 11.9667 6.22651 11.9667H12.7735C15.6618 11.9667 18.0116 14.3165 18.0116 17.2048C18.0116 20.0931 15.6618 22.4429 12.7735 22.4429ZM6.22651 13.6542C4.26869 13.6542 2.6759 15.247 2.6759 17.2048C2.6759 19.1626 4.26869 20.7554 6.22651 20.7554H12.7735C14.7313 20.7554 16.3241 19.1626 16.3241 17.2048C16.3241 15.247 14.7313 13.6542 12.7735 13.6542H6.22651Z" fill="#5C6A7E" stroke="#141416" stroke-width="0.5"/>
</svg>
