<svg width="18" height="18" viewBox="0 0 18 18" fill="none" xmlns="http://www.w3.org/2000/svg">
<path d="M17.0916 15.9084L12.5916 11.4167C13.5058 10.2521 14.0018 8.8139 14 7.33336C14 6.01481 13.609 4.72588 12.8764 3.62955C12.1439 2.53323 11.1027 1.67874 9.88452 1.17416C8.66634 0.669576 7.3259 0.537553 6.03269 0.794788C4.73949 1.05202 3.5516 1.68696 2.61925 2.61931C1.6869 3.55166 1.05196 4.73955 0.794727 6.03275C0.537492 7.32596 0.669515 8.66641 1.1741 9.88458C1.67868 11.1028 2.53317 12.1439 3.62949 12.8765C4.72582 13.609 6.01475 14 7.3333 14C8.81384 14.0019 10.252 13.5058 11.4166 12.5917L15.9083 17.0917C15.9858 17.1698 16.0779 17.2318 16.1795 17.2741C16.281 17.3164 16.39 17.3382 16.5 17.3382C16.61 17.3382 16.7189 17.3164 16.8204 17.2741C16.922 17.2318 17.0142 17.1698 17.0916 17.0917C17.1697 17.0142 17.2317 16.9221 17.274 16.8205C17.3163 16.719 17.3381 16.61 17.3381 16.5C17.3381 16.39 17.3163 16.2811 17.274 16.1795C17.2317 16.078 17.1697 15.9858 17.0916 15.9084ZM2.3333 7.33336C2.3333 6.34445 2.62654 5.37775 3.17595 4.55551C3.72535 3.73326 4.50625 3.0924 5.41988 2.71396C6.33351 2.33552 7.33884 2.2365 8.30875 2.42943C9.27865 2.62236 10.1696 3.09856 10.8688 3.79782C11.5681 4.49709 12.0443 5.388 12.2372 6.35791C12.4301 7.32781 12.3311 8.33314 11.9527 9.24677C11.5743 10.1604 10.9334 10.9413 10.1111 11.4907C9.2889 12.0401 8.3222 12.3334 7.3333 12.3334C6.00721 12.3334 4.73544 11.8066 3.79776 10.8689C2.86008 9.93121 2.3333 8.65944 2.3333 7.33336Z" fill="#515F73"/>
</svg>
