<svg width="21" height="25" viewBox="0 0 21 25" fill="none" xmlns="http://www.w3.org/2000/svg">
<path d="M19.2891 7.37305H17.0918V3.66211C17.0918 3.65849 17.0912 3.65505 17.0912 3.65143C17.0884 3.45345 17.0065 3.27339 16.8772 3.14426L13.9475 0.214577C13.8102 0.0770569 13.6239 0 13.4297 0H7.57031C7.37614 0 7.1898 0.0770569 7.05247 0.214577L4.12278 3.14426C3.99213 3.27492 3.91164 3.4544 3.90878 3.65143C3.90878 3.65505 3.9082 3.65849 3.9082 3.66211V7.37305H1.71094C1.30639 7.37305 0.978516 7.70092 0.978516 8.10547V24.2676C0.978516 24.6721 1.30639 25 1.71094 25H19.2891C19.6936 25 20.0215 24.6721 20.0215 24.2676V8.10547C20.0215 7.70092 19.6936 7.37305 19.2891 7.37305ZM8.30273 7.37305V4.39453H12.6973V7.37305H8.30273ZM14.1621 4.39453H15.627V7.37305H14.1621V4.39453ZM7.87377 1.46484H13.1262L14.5911 2.92969H6.40893L7.87377 1.46484ZM5.37305 4.39453H6.83789V7.37305H5.37305V4.39453ZM18.5566 23.5352H2.44336V8.83789H18.5566V23.5352Z" fill="#72849F"/>
</svg>
