<svg width="25" height="25" viewBox="0 0 25 25" fill="none" xmlns="http://www.w3.org/2000/svg">
<path d="M23.5176 14.4871L22.4776 13.6309C21.7652 13.0444 21.7665 11.9544 22.4776 11.3691L23.5176 10.5129C24.2577 9.90361 24.447 8.85879 23.9677 8.02847L21.9141 4.47153C21.4347 3.64126 20.435 3.28286 19.5375 3.61909L18.276 4.0917C17.4119 4.41533 16.4686 3.86948 16.3171 2.96079L16.0957 1.63198C15.9381 0.686377 15.1279 0 14.1692 0H10.062C9.10327 0 8.29302 0.686377 8.13545 1.63203L7.91396 2.96079C7.76226 3.87109 6.81763 4.4148 5.95518 4.09175L4.6937 3.61909C3.79609 3.28286 2.79648 3.64131 2.31704 4.47153L0.263476 8.02842C-0.21587 8.85864 -0.0266123 9.90352 0.713573 10.5129L1.75356 11.369C2.46606 11.9556 2.46465 13.0455 1.75356 13.6309L0.713525 14.487C-0.0266122 15.0964 -0.215919 16.1413 0.263427 16.9715L2.31704 20.5284C2.79643 21.3586 3.79585 21.7171 4.6937 21.3809L5.95513 20.9083C6.81934 20.5845 7.7625 21.1307 7.91392 22.0392L8.1354 23.3679C8.29302 24.3136 9.10327 25 10.062 25H14.1691C15.1278 25 15.9381 24.3136 16.0957 23.368L16.3171 22.0393C16.4688 21.1292 17.4133 20.5851 18.2759 20.9083L19.5375 21.3809C20.4353 21.7172 21.4347 21.3587 21.9141 20.5285L23.9678 16.9715C24.447 16.1413 24.2577 15.0964 23.5176 14.4871V14.4871ZM20.2227 19.5519L18.9612 19.0793C16.9446 18.3239 14.7439 19.5983 14.3906 21.7181L14.1692 23.0469H10.062L9.84053 21.7181C9.48657 19.5942 7.28262 18.3253 5.26997 19.0793L4.0085 19.5519L1.95493 15.995L2.99492 15.1388C4.65747 13.7702 4.654 11.227 2.99492 9.86118L1.95493 9.00503L4.00854 5.4481L5.26997 5.9207C7.28657 6.67607 9.48726 5.40166 9.84053 3.28188L10.062 1.95312H14.1691L14.3906 3.28188C14.7446 5.40601 16.9486 6.67451 18.9611 5.9207L20.2226 5.4481L22.2767 9.00454C22.2767 9.00454 22.2765 9.00469 22.2761 9.00498L21.2362 9.86113C19.5737 11.2297 19.577 13.7729 21.2361 15.1388L22.2762 15.9949L20.2227 19.5519ZM12.1156 7.68228C9.45908 7.68228 7.29785 9.84351 7.29785 12.5C7.29785 15.1565 9.45908 17.3177 12.1156 17.3177C14.7721 17.3177 16.9333 15.1565 16.9333 12.5C16.9333 9.84351 14.7721 7.68228 12.1156 7.68228ZM12.1156 15.3646C10.536 15.3646 9.25098 14.0795 9.25098 12.5C9.25098 10.9205 10.536 9.6354 12.1156 9.6354C13.6951 9.6354 14.9802 10.9205 14.9802 12.5C14.9802 14.0795 13.6951 15.3646 12.1156 15.3646Z" fill="#72849F"/>
</svg>
