<svg width="20" height="20" viewBox="0 0 20 20" fill="none" xmlns="http://www.w3.org/2000/svg">
<g clip-path="url(#clip0_43_841)">
<path d="M0.353381 9.64303L4.96178 11.363L6.74551 17.0995C6.85965 17.4669 7.30892 17.6027 7.60712 17.3589L10.1759 15.2648C10.4452 15.0454 10.8287 15.0344 11.1101 15.2387L15.7433 18.6025C16.0623 18.8344 16.5142 18.6596 16.5942 18.2741L19.9883 1.94803C20.0756 1.52696 19.6619 1.17569 19.261 1.33076L0.347981 8.62683C-0.118752 8.80683 -0.114686 9.46763 0.353381 9.64303ZM6.45805 10.4474L15.4646 4.90029C15.6264 4.80089 15.793 5.01976 15.654 5.14869L8.22098 12.058C7.95971 12.3012 7.79118 12.6267 7.74345 12.98L7.49025 14.8564C7.45671 15.1069 7.10478 15.1318 7.03565 14.8893L6.06185 11.4676C5.95031 11.0774 6.11285 10.6605 6.45805 10.4474Z" fill="#424D5C"/>
</g>
<defs>
<clipPath id="clip0_43_841">
<rect width="20" height="20" fill="white"/>
</clipPath>
</defs>
</svg>
