<svg width="32" height="33" viewBox="0 0 32 33" fill="none" xmlns="http://www.w3.org/2000/svg">
<path fill-rule="evenodd" clip-rule="evenodd" d="M-9.07879e-08 16.9883C-4.06471e-08 8.15173 7.16344 0.988281 16 0.988281C24.8366 0.988281 32 8.15173 32 16.9883C32 25.8248 24.8366 32.9883 16 32.9883C7.16344 32.9883 -1.40929e-07 25.8248 -9.07879e-08 16.9883Z" fill="#1A1A20"/>
<g clip-path="url(#clip0_1715_3950)">
<path d="M16 5.98828C13.0616 5.98828 10.2993 7.133 8.22208 9.2111C6.14446 11.2892 5 14.0518 5 16.9908C5 19.9299 6.14446 22.6929 8.22208 24.771C10.3666 26.916 13.1831 27.9883 16 27.9883C18.8169 27.9883 21.6338 26.916 23.7779 24.771C25.8555 22.6929 27 19.9299 27 16.9908C27 14.0518 25.8555 11.2887 23.7779 9.2111C21.7003 7.133 18.9384 5.98828 16 5.98828ZM22.4818 23.4745C18.9077 27.0494 13.0923 27.0494 9.51825 23.4745C7.78713 21.7425 6.83333 19.4398 6.83333 16.9908C6.83333 14.5418 7.78713 12.2391 9.51825 10.5076C11.2494 8.77605 13.5516 7.82203 16 7.82203C18.4484 7.82203 20.7506 8.77604 22.4818 10.5076C24.2129 12.2391 25.1667 14.5418 25.1667 16.9908C25.1667 19.4398 24.2129 21.7425 22.4818 23.4745Z" fill="#FEFEFE"/>
<path d="M18.7024 12.106L12.0732 14.6841C11.391 14.9493 10.9705 15.5933 11.0016 16.3244C11.0323 17.0556 11.5063 17.6621 12.2088 17.8688L14.4581 18.53L15.1197 20.7798C15.3264 21.4819 15.9325 21.9559 16.6636 21.987C16.6888 21.9879 16.7141 21.9883 16.7393 21.9883C17.4393 21.9883 18.0479 21.5737 18.3042 20.9145L20.8823 14.2851C21.1281 13.6537 20.9829 12.9634 20.5039 12.4844C20.024 12.0054 19.3342 11.8602 18.7024 12.106ZM16.7347 20.3046L16.0844 18.0935L16.624 17.5544C16.9527 17.226 16.9527 16.6927 16.624 16.364C16.2953 16.0357 15.7624 16.0353 15.4333 16.364L14.8937 16.9036L12.6831 16.2533L19.3123 13.6752L16.7347 20.3046Z" fill="#FEFEFE"/>
</g>
<defs>
<clipPath id="clip0_1715_3950">
<rect width="22" height="22" fill="white" transform="translate(5 5.98828)"/>
</clipPath>
</defs>
</svg>
