<svg width="23" height="22" viewBox="0 0 23 22" fill="none" xmlns="http://www.w3.org/2000/svg">
<path d="M5.56968 0.000416856C5.28433 0.00892786 5.01349 0.128288 4.81456 0.333083L0.421117 4.72727C0.318519 4.82936 0.237103 4.95064 0.181548 5.0843C0.125993 5.21796 0.0973933 5.36128 0.0973933 5.50603C0.0973933 5.65078 0.125993 5.7941 0.181548 5.92776C0.237103 6.06143 0.318519 6.18283 0.421117 6.28492L4.81456 10.6792C4.91504 10.7881 5.0365 10.8754 5.17164 10.9362C5.30678 10.9969 5.4528 11.0296 5.60092 11.0325C5.74904 11.0353 5.8962 11.0081 6.03354 10.9525C6.17089 10.897 6.29558 10.8143 6.40012 10.7093C6.50466 10.6043 6.58688 10.4792 6.64184 10.3416C6.69681 10.204 6.72337 10.0567 6.71994 9.9086C6.71652 9.76046 6.68316 9.61454 6.62189 9.47963C6.56062 9.34472 6.4727 9.22366 6.36342 9.12362L3.8492 6.60896H20.966C21.2532 6.60264 21.5264 6.48416 21.7272 6.27883C21.9281 6.0735 22.0405 5.79759 22.0405 5.51034C22.0405 5.2231 21.9281 4.94732 21.7272 4.74199C21.5264 4.53666 21.2532 4.41817 20.966 4.41186H3.84062L6.36342 1.88857C6.52261 1.73465 6.63158 1.53623 6.67603 1.31928C6.72049 1.10234 6.69836 0.877 6.61254 0.672854C6.52672 0.468709 6.38122 0.295244 6.19512 0.175251C6.00903 0.0552576 5.79102 -0.00568173 5.56968 0.000416856ZM16.5704 10.9882C16.3514 10.9882 16.1374 11.0537 15.9559 11.1763C15.7743 11.2989 15.6336 11.4729 15.5517 11.6761C15.4699 11.8793 15.4506 12.1023 15.4964 12.3166C15.5423 12.5308 15.6511 12.7264 15.8089 12.8784L18.3231 15.3909H1.20627C1.06 15.3876 0.914562 15.4137 0.778488 15.4675C0.642414 15.5213 0.518447 15.6017 0.413862 15.704C0.309277 15.8063 0.226181 15.9285 0.16945 16.0634C0.112719 16.1983 0.0834961 16.3431 0.0834961 16.4895C0.0834961 16.6358 0.112719 16.7806 0.16945 16.9155C0.226181 17.0504 0.309277 17.1726 0.413862 17.275C0.518447 17.3773 0.642414 17.4577 0.778488 17.5115C0.914562 17.5652 1.06 17.5912 1.20627 17.588H18.3317L15.8089 20.1112C15.7038 20.2128 15.6201 20.3342 15.5625 20.4685C15.505 20.6028 15.4748 20.7473 15.4738 20.8934C15.4727 21.0395 15.5008 21.1844 15.5564 21.3195C15.612 21.4546 15.694 21.5773 15.7976 21.6803C15.9012 21.7833 16.0243 21.8647 16.1597 21.9196C16.2951 21.9745 16.4401 22.0018 16.5862 21.9999C16.7322 21.9981 16.8765 21.967 17.0104 21.9087C17.1444 21.8504 17.2654 21.766 17.3663 21.6604L21.7598 17.2725C21.8624 17.1705 21.9438 17.0492 21.9993 16.9155C22.0549 16.7819 22.0835 16.6385 22.0835 16.4938C22.0835 16.349 22.0549 16.2057 21.9993 16.0721C21.9438 15.9384 21.8624 15.817 21.7598 15.7149L17.3663 11.3207C17.263 11.2144 17.1392 11.1302 17.0024 11.0731C16.8656 11.0159 16.7187 10.987 16.5704 10.9882Z" fill="#72849F"/>
</svg>
