<svg width="25" height="25" viewBox="0 0 25 25" fill="none" xmlns="http://www.w3.org/2000/svg">
<path d="M22.475 6.3C21.725 6.625 20.95 6.85 20.125 6.95C20.975 6.45 21.625 5.65 21.925 4.675C21.125 5.15 20.25 5.475 19.325 5.675C18.575 4.875 17.5 4.375 16.325 4.375C14.05 4.375 12.225 6.225 12.225 8.475C12.225 8.8 12.25 9.1 12.325 9.4C8.92498 9.25 5.92498 7.6 3.89998 5.125C2.44998 7.725 4.07498 9.875 5.14998 10.6C4.49998 10.6 3.84998 10.4 3.29998 10.1C3.29998 12.125 4.72498 13.8 6.57498 14.175C6.17498 14.3 5.27498 14.375 4.72498 14.25C5.24998 15.875 6.77498 17.075 8.54998 17.1C7.14998 18.2 5.09998 19.075 2.47498 18.8C4.29998 19.975 6.44998 20.65 8.77498 20.65C16.325 20.65 20.425 14.4 20.425 9C20.425 8.825 20.425 8.65 20.4 8.475C21.25 7.85 21.95 7.125 22.475 6.3Z" fill="#424D5C"/>
</svg>
