<svg width="32" height="33" viewBox="0 0 32 33" fill="none" xmlns="http://www.w3.org/2000/svg">
<path fill-rule="evenodd" clip-rule="evenodd" d="M-9.07879e-08 16.9883C-4.06471e-08 8.15173 7.16344 0.988281 16 0.988281C24.8366 0.988281 32 8.15173 32 16.9883C32 25.8248 24.8366 32.9883 16 32.9883C7.16344 32.9883 -1.40929e-07 25.8248 -9.07879e-08 16.9883Z" fill="#1A1A20"/>
<path fill-rule="evenodd" clip-rule="evenodd" d="M15.5208 13.9929L15.5544 14.5465L14.9948 14.4787C12.9579 14.2189 11.1784 13.3376 9.66756 11.8574L8.92891 11.123L8.73865 11.6654C8.33575 12.8743 8.59316 14.1511 9.43253 15.0098C9.8802 15.4843 9.77948 15.5521 9.00725 15.2696C8.73865 15.1793 8.50363 15.1115 8.48124 15.1454C8.4029 15.2244 8.6715 16.2526 8.88414 16.6594C9.17513 17.2243 9.76828 17.778 10.4174 18.1056L10.9658 18.3655L10.3167 18.3768C9.68994 18.3768 9.66756 18.3881 9.73471 18.6254C9.95854 19.3598 10.8427 20.1394 11.8276 20.4783L12.5214 20.7156L11.9171 21.0772C11.0218 21.5969 9.96973 21.8907 8.91772 21.9133C8.41409 21.9246 8 21.9698 8 22.0037C8 22.1167 9.36538 22.7494 10.16 22.998C12.5438 23.7324 15.3753 23.416 17.5017 22.1618C19.0126 21.2693 20.5235 19.4954 21.2286 17.778C21.6091 16.8628 21.9896 15.1906 21.9896 14.3883C21.9896 13.8686 22.0232 13.8008 22.6499 13.1794C23.0192 12.8178 23.3662 12.4224 23.4333 12.3094C23.5452 12.0947 23.534 12.0947 22.9633 12.2868C22.012 12.6257 21.8777 12.5806 22.3477 12.0721C22.6947 11.7106 23.1088 11.0552 23.1088 10.8632C23.1088 10.8293 22.9409 10.8857 22.7506 10.9874C22.5492 11.1004 22.1015 11.2699 21.7658 11.3716L21.1614 11.5637L20.613 11.1908C20.3108 10.9874 19.8856 10.7615 19.6617 10.6937C19.0909 10.5355 18.218 10.5581 17.7032 10.7389C16.3042 11.2473 15.4201 12.558 15.5208 13.9929Z" fill="#FEFEFE"/>
</svg>
