<svg width="19" height="24" viewBox="0 0 19 24" fill="none" xmlns="http://www.w3.org/2000/svg">
<path d="M18.0012 2.77006H15.5397V0.923903C15.5397 0.753996 15.4019 0.616211 15.232 0.616211H1.38582C1.21585 0.616211 1.07812 0.753996 1.07812 0.923903V20.6162C1.07812 20.7862 1.21585 20.9239 1.38582 20.9239H3.23197V23.3855C3.23197 23.5554 3.36969 23.6931 3.53966 23.6931H18.0012C18.1712 23.6931 18.3089 23.5554 18.3089 23.3855V3.07775C18.3089 2.90784 18.1712 2.77006 18.0012 2.77006ZM1.69351 20.3085V1.2316H14.9243V2.77006H3.53966C3.36969 2.77006 3.23197 2.90784 3.23197 3.07775V20.3085H1.69351ZM17.6935 23.0778H3.84736V3.38544H17.6935V23.0778Z" fill="url(#paint0_linear_2219_592)" stroke="url(#paint1_linear_2219_592)" stroke-width="0.5"/>
<defs>
<linearGradient id="paint0_linear_2219_592" x1="4.67964" y1="-16.1146" x2="25.051" y2="-14.0242" gradientUnits="userSpaceOnUse">
<stop stop-color="#7517F8"/>
<stop offset="1" stop-color="#E423FF"/>
</linearGradient>
<linearGradient id="paint1_linear_2219_592" x1="4.67964" y1="-16.1146" x2="25.051" y2="-14.0242" gradientUnits="userSpaceOnUse">
<stop stop-color="#7517F8"/>
<stop offset="1" stop-color="#E423FF"/>
</linearGradient>
</defs>
</svg>
