<svg width="26" height="26" viewBox="0 0 26 26" fill="none" xmlns="http://www.w3.org/2000/svg">
<path d="M24.5595 13.7998V9.93739C24.5595 9.27435 24.3087 8.63848 23.8622 8.16964C23.4157 7.70081 22.8101 7.43742 22.1786 7.43742H21.5834V3.53746C21.5822 3.15816 21.5095 2.78285 21.3695 2.43316C21.2296 2.08348 21.0251 1.76633 20.7679 1.49999C20.1924 0.902354 19.4166 0.565725 18.6072 0.5625L4.00607 3.60621C3.07247 3.842 2.24243 4.4028 1.65118 5.19725C1.05994 5.99169 0.742341 6.97296 0.75014 7.98116V21.1685C0.751969 21.8628 0.906565 22.5472 1.20187 23.1685C1.49716 23.7897 1.92518 24.3308 2.45251 24.7497C3.15313 25.2879 4.00111 25.573 4.86916 25.5622H22.1786C22.8101 25.5622 23.4157 25.2988 23.8622 24.83C24.3087 24.3611 24.5595 23.7253 24.5595 23.0622V20.4498C24.9069 20.3208 25.2077 20.0822 25.4209 19.7667C25.634 19.4512 25.749 19.0741 25.75 18.6873V15.5623C25.749 15.1755 25.634 14.7985 25.4209 14.4829C25.2077 14.1674 24.9069 13.9288 24.5595 13.7998ZM24.5595 18.6873C24.5595 18.853 24.4968 19.012 24.3852 19.1292C24.2736 19.2464 24.1222 19.3123 23.9643 19.3123H16.8215C16.6636 19.3123 16.5122 19.2464 16.4006 19.1292C16.289 19.012 16.2262 18.853 16.2262 18.6873V15.5623C16.2262 15.3966 16.289 15.2376 16.4006 15.1204C16.5122 15.0032 16.6636 14.9373 16.8215 14.9373H23.9643C24.1222 14.9373 24.2736 15.0032 24.3852 15.1204C24.4968 15.2376 24.5595 15.3966 24.5595 15.5623V18.6873ZM22.1786 24.3122H4.91678V19.9373C4.91678 19.7715 4.85407 19.6125 4.74244 19.4953C4.63082 19.3781 4.47941 19.3123 4.32155 19.3123C4.16368 19.3123 4.01228 19.3781 3.90065 19.4953C3.78903 19.6125 3.72631 19.7715 3.72631 19.9373V24.0497C3.52746 23.9641 3.33952 23.8528 3.16679 23.7185C2.78697 23.4164 2.47871 23.0262 2.26603 22.5785C2.05334 22.1308 1.94198 21.6376 1.94061 21.1373V7.94991C1.93832 7.23037 2.1666 6.53093 2.58875 5.96412C3.01089 5.3973 3.60235 4.99607 4.26798 4.82495L18.4524 1.84998C18.5768 1.83135 18.7031 1.83135 18.8274 1.84998C19.2416 1.90552 19.6267 2.10328 19.9227 2.41248C20.0683 2.55779 20.1849 2.73211 20.2656 2.92527C20.3464 3.11843 20.3896 3.32655 20.3929 3.53746V7.43742H5.74416C5.36844 7.43834 4.99633 7.3603 4.64978 7.20788C4.30323 7.05546 3.98924 6.83175 3.72631 6.54993C3.61176 6.44833 3.46491 6.39587 3.31511 6.40303C3.16532 6.4102 3.02362 6.47647 2.91834 6.58859C2.81306 6.70071 2.75197 6.85042 2.74727 7.00779C2.74257 7.16516 2.79461 7.31859 2.89299 7.43742C3.26655 7.83247 3.71069 8.14623 4.19994 8.36073C4.6892 8.57522 5.21397 8.68624 5.74416 8.6874H22.1786C22.4943 8.6874 22.7971 8.8191 23.0204 9.05352C23.2436 9.28793 23.3691 9.60587 23.3691 9.93739V13.6873H16.8215C16.3479 13.6873 15.8937 13.8849 15.5588 14.2365C15.2239 14.5881 15.0358 15.065 15.0358 15.5623V18.6873C15.0358 19.1846 15.2239 19.6615 15.5588 20.0131C15.8937 20.3647 16.3479 20.5623 16.8215 20.5623H23.3691V23.0622C23.3691 23.3937 23.2436 23.7117 23.0204 23.9461C22.7971 24.1805 22.4943 24.3122 22.1786 24.3122Z" fill="url(#paint0_linear_1760_2449)"/>
<defs>
<linearGradient id="paint0_linear_1760_2449" x1="5.97541" y1="-17.5625" x2="35.2897" y2="-13.5339" gradientUnits="userSpaceOnUse">
<stop stop-color="#7517F8"/>
<stop offset="1" stop-color="#E423FF"/>
</linearGradient>
</defs>
</svg>
