<svg width="17" height="17" viewBox="0 0 17 17" fill="none" xmlns="http://www.w3.org/2000/svg">
<path d="M15.4545 0H1.54546C0.693498 0 0 0.693099 0 1.54546V15.4545C0 16.3069 0.693498 17 1.54546 17H15.4545C16.3065 17 17 16.3069 17 15.4545V1.54546C17 0.693099 16.3065 0 15.4545 0ZM5.02273 1.54546C5.23611 1.54546 5.40911 1.71842 5.40911 1.93184C5.40911 2.14522 5.23611 2.31821 5.02273 2.31821C4.80935 2.31821 4.63636 2.14518 4.63636 1.9318C4.63636 1.71839 4.80935 1.54546 5.02273 1.54546ZM3.47727 1.54546C3.69065 1.54546 3.86364 1.71842 3.86364 1.93184C3.86364 2.14518 3.69065 2.31818 3.47727 2.31818C3.26389 2.31818 3.09089 2.14518 3.09089 1.9318C3.09089 1.71839 3.26389 1.54546 3.47727 1.54546ZM1.9318 1.54546C2.14518 1.54546 2.31818 1.71839 2.31818 1.9318C2.31818 2.14518 2.14518 2.31818 1.9318 2.31818C1.71842 2.31818 1.54543 2.14518 1.54543 1.9318C1.54546 1.71839 1.71846 1.54546 1.9318 1.54546ZM10.0454 15.4545H1.54546V8.5H10.0455V15.4545H10.0454ZM15.4545 15.4545H11.5909V8.5H15.4545V15.4545V15.4545ZM15.4545 6.95454H1.54546V3.86364H15.4545V6.95454Z" fill="#424D5C"/>
<path d="M6.99746 9.04541H8.54292C8.75648 9.04541 8.9293 8.8726 8.9293 8.65904C8.9293 8.44548 8.75648 8.27271 8.54292 8.27271H6.99746C6.7839 8.27271 6.61108 8.44552 6.61108 8.65908C6.61108 8.87264 6.7839 9.04541 6.99746 9.04541Z" fill="#424D5C"/>
<path d="M6.99746 11.3636H8.54292C8.75648 11.3636 8.9293 11.1908 8.9293 10.9773C8.9293 10.7637 8.75648 10.5909 8.54292 10.5909H6.99746C6.7839 10.5909 6.61108 10.7637 6.61108 10.9773C6.61108 11.1909 6.7839 11.3636 6.99746 11.3636Z" fill="#424D5C"/>
<path d="M7.94192 13.6818H8.71463C8.92819 13.6818 9.10101 13.509 9.10101 13.2954C9.10101 13.0819 8.92819 12.9091 8.71463 12.9091H7.94192C7.72835 12.9091 7.55554 13.0819 7.55554 13.2954C7.55554 13.509 7.72835 13.6818 7.94192 13.6818Z" fill="#424D5C"/>
</svg>
