<svg width="319" height="348" viewBox="0 0 319 348" fill="none" xmlns="http://www.w3.org/2000/svg">
<g filter="url(#filter0_d_1715_3937)">
<path fill-rule="evenodd" clip-rule="evenodd" d="M107.562 0.14361C106.66 0.29042 106.13 0.453203 86.5068 6.59257C78.9306 8.96281 70.1403 11.705 66.9728 12.6863C60.9313 14.5583 59.8138 14.998 58.7888 15.9024C58.4448 16.2059 54.9303 20.7395 50.9791 25.9767C47.0279 31.2139 38.447 42.5768 31.9097 51.2271C25.3725 59.8774 19.8212 67.3061 19.5737 67.7352C18.9224 68.8617 18.9449 68.7894 15.2778 81.5147C13.4318 87.918 10.1072 99.3729 7.88915 106.97C2.46944 125.535 2.19005 122.811 10.4107 131.498C16.8172 138.267 29.0987 151.36 36.2368 159.03C45.1656 168.624 42.8604 167.067 59.7351 174.9C108.092 197.345 106.389 196.514 107.21 198.064C107.367 198.362 108.593 201.682 109.933 205.442C124.07 245.115 143.292 298.606 143.713 299.451C144.47 300.972 143.985 300.557 159.949 313.338C167.967 319.757 178.484 328.177 183.321 332.049C192.362 339.287 193.157 339.846 194.587 339.961C196.429 340.111 196.219 340.245 207.446 331.776C215.177 325.946 231.22 313.887 237.112 309.477C239.902 307.389 240.796 306.297 241.235 304.439C241.358 303.92 241.42 292.228 241.453 263.7L241.501 223.688L241.89 222.243C242.656 219.398 245.18 215.093 246.083 215.093C246.151 215.093 246.633 215.476 247.154 215.945C249.033 217.633 249.729 217.752 256.009 217.455C258.62 217.332 262.752 217.163 265.192 217.077C276.281 216.692 275.169 217.067 282.314 211.301C284.24 209.747 288.828 206.123 292.509 203.248C300.151 197.279 300.645 196.844 301.253 195.56L301.692 194.631L301.77 183.753C301.856 171.711 301.785 172.499 302.885 171.484C303.171 171.221 305.365 169.491 307.762 167.639C313.63 163.106 313.78 162.972 314.446 161.671L315 160.588V156.05C315 149.103 313.436 139.729 311.435 134.69C310.919 133.391 258.136 55.871 256.969 54.6988C255.695 53.4186 257.306 53.9952 218.809 41.0608C207.239 37.1738 207.75 37.4347 203.087 33.0441C191.67 22.2973 172.463 4.47486 171.865 4.07247C170.402 3.08892 169.992 3.01286 164.879 2.77781C162.309 2.6599 156.95 2.39291 152.969 2.18449C148.988 1.97606 144.155 1.73189 142.229 1.64137C140.303 1.55009 135.996 1.31048 132.657 1.1089C129.318 0.906562 124.66 0.669233 122.306 0.581756C119.952 0.493518 116.765 0.320846 115.224 0.198379C112.188 -0.0435142 108.857 -0.0670949 107.562 0.14361ZM115.925 9.40856C117.337 9.49071 128.614 10.0703 140.984 10.6971C164.626 11.8944 164.798 11.9051 164.798 12.1964C164.798 12.5661 159.394 41.2129 159.308 41.2958C159.218 41.3841 148.96 33.7857 143.843 29.8417C138.693 25.8717 138.338 25.8656 132.423 29.6439C129.319 31.627 125.299 34.106 119.66 37.513C116.584 39.3721 115.848 40.7109 116.543 43.1815C116.731 43.8471 118.575 53.7244 118.522 53.7769C118.501 53.7974 107.78 46.4821 94.6994 37.5199C79.1096 26.8385 70.987 21.186 71.1232 21.113C71.4112 20.9578 85.0585 16.6441 92.0324 14.5035C95.1998 13.5314 99.9627 12.0488 102.617 11.2091C109.247 9.1119 109.728 9.04724 115.925 9.40856ZM173.904 18.6149C175.274 19.8624 181.367 25.5097 187.445 31.1645C193.524 36.82 198.823 41.737 199.221 42.0922C200.825 43.52 200.827 43.4995 198.592 48.6987C197.575 51.0666 195.653 55.6025 194.321 58.7798C192.99 61.9571 191.806 64.7746 191.691 65.0424L191.481 65.5285L185.572 61.1097C182.322 58.6802 176.485 54.3208 172.6 51.4226C167.499 47.6177 165.472 46.0188 165.3 45.6666C165.072 45.2019 165.18 44.5553 167.671 31.363C169.106 23.7639 170.354 17.1164 170.443 16.59L170.606 15.6331L171.01 15.9906C171.231 16.1869 172.534 17.3682 173.904 18.6149ZM65.0591 24.8654C65.3253 25 68.8414 27.3847 72.8727 30.1649C81.2941 35.9727 101.893 50.0968 112.498 57.3361C116.477 60.0516 120.045 62.5824 120.427 62.9589C121.54 64.0581 135.764 91.1037 135.228 91.1037C135.023 91.1037 30.8747 69.8453 30.4342 69.7137C30.0061 69.5859 30.1112 69.134 30.7548 68.3353C31.228 67.7481 47.7533 45.8378 61.1702 28.0092C63.9112 24.3671 63.9735 24.3169 65.0591 24.8654ZM139.185 34.2528C139.447 34.4353 146.003 39.3432 153.754 45.1585C161.506 50.9746 172.098 58.9144 177.292 62.8037C182.592 66.7714 186.677 69.932 186.602 70.0058C186.241 70.3579 144.257 90.8314 143.739 90.9067C142.77 91.0489 142.45 90.6077 139.86 85.5508C136.941 79.8541 132.913 72.2224 130.667 68.1315C127.435 62.2447 127.132 61.6376 126.513 59.7953C125.915 58.0161 125.648 56.8104 124.104 48.9223C122.912 42.84 122.887 42.9024 127.893 39.8064C129.401 38.8738 131.894 37.3228 133.435 36.3583C137.912 33.5568 138.09 33.4914 139.185 34.2528ZM216.163 49.9112C220.828 51.4941 229.233 54.3291 234.841 56.2103C249.153 61.0116 248.958 60.9447 249.4 61.2276C250.239 61.7647 250.206 61.2033 250.329 76.6183C250.438 90.2426 250.43 90.9774 250.167 91.2611C249.77 91.6894 249.735 91.6833 245.317 90.3324C243.107 89.6569 236.887 87.8054 231.494 86.2164C219.816 82.7774 221.926 83.6955 210.482 77.0792C205.345 74.1103 200.442 71.2829 199.586 70.7969C196.591 69.0968 196.61 69.5882 199.29 63.3765C200.455 60.6784 202.313 56.2802 203.42 53.6027C205.89 47.6261 206.11 47.1621 206.552 46.9932C207.042 46.8061 206.778 46.7255 216.163 49.9112ZM279.629 104.234C291.974 122.334 302.276 137.583 302.525 138.122C303.045 139.253 303.483 140.866 303.596 142.069L303.673 142.905L299.025 142.894C293.306 142.879 294.001 143.169 291.301 139.675C268.672 110.384 257.429 95.7651 257.107 95.2113C256.648 94.4217 256.683 95.8525 256.748 80.4924C256.779 73.1618 256.827 71.3263 256.986 71.3263C257.096 71.3263 267.286 86.135 279.629 104.234ZM193.503 74.5819C193.79 74.6999 196.028 75.9648 198.475 77.3934C200.922 78.8227 205.919 81.7125 209.582 83.8157C217.49 88.3569 217.065 88.0405 219.201 90.9751C222.007 94.8294 232.77 109.54 234.944 112.492C236.953 115.221 237.268 115.832 237.08 116.639C237.028 116.861 234.549 121.972 231.57 127.996C228.591 134.021 224.042 143.223 221.459 148.445C216.107 159.272 216.219 158.971 215.619 163.976C215.403 165.775 215.058 168.274 214.852 169.529C214.647 170.784 214.215 173.879 213.893 176.406L213.307 181.002L210.961 179.806C189.989 169.124 182.109 165.226 171.621 160.347C167.774 158.558 164.981 155.904 163.231 152.376C162.523 150.949 162.019 149.43 159.288 140.471C156.933 132.748 154.332 124.613 149.537 109.968C147.252 102.989 145.918 98.6868 145.906 98.254C145.868 96.9045 144.569 97.6143 168.627 85.8452C194.973 72.9564 192.388 74.1271 193.503 74.5819ZM42.0993 78.3921C56.1755 81.2827 82.144 86.596 114.29 93.1628C133.084 97.0019 133.901 97.1883 133.503 97.5557C133.297 97.7466 117.8 108.982 81.5261 135.242C73.6074 140.975 63.3812 148.392 58.8013 151.726C49.4685 158.519 49.7238 158.345 49.0459 158.346C48.3144 158.347 48.3362 158.369 38.3357 147.625C33.2717 142.184 25.8308 134.222 21.8003 129.931C17.7698 125.641 14.3603 121.899 14.2233 121.617C13.7626 120.668 13.9058 119.998 16.3938 111.481C17.7246 106.926 20.3893 97.6873 22.3171 90.9516C26.7313 75.5221 26.4947 76.2836 26.9943 75.8994C27.6216 75.4172 27.571 75.4088 42.0993 78.3921ZM230.058 92.2553C231.294 92.6859 240.862 95.5513 244.756 96.6581C248.976 97.8577 248.923 97.7854 247.322 100.121C246.907 100.725 245.355 103.137 243.871 105.48C242.388 107.823 241.128 109.793 241.072 109.856C241.016 109.92 240.304 109.064 239.491 107.954C238.677 106.845 235.688 102.771 232.849 98.9006L227.686 91.8644H228.309C228.651 91.8644 229.438 92.0408 230.058 92.2553ZM142.969 110.283C146.673 121.787 156.74 153.177 157.358 155.152C158.038 157.319 157.882 157.699 155.708 159.171C154.929 159.699 150.86 162.445 146.665 165.274C142.471 168.103 133.295 174.322 126.275 179.093C111.11 189.4 112.234 188.685 111.376 188.582C110.941 188.53 107.41 186.956 101.216 184.053C95.9937 181.606 83.5962 175.811 73.6658 171.176C63.7353 166.54 55.4851 162.626 55.3318 162.477C55.0649 162.217 56.1389 161.42 81.6366 142.946C96.2575 132.353 115.294 118.552 123.94 112.277C132.587 106.002 139.729 100.884 139.811 100.903C139.894 100.922 141.315 105.143 142.969 110.283ZM265.119 116.13C271.265 124.079 278.646 133.614 281.521 137.32C289.476 147.573 288.946 146.578 287.613 148.762C284.879 153.243 285.238 157.127 288.831 161.922C292.082 166.26 292.777 168.999 292.466 176.257C292.36 178.728 292.323 182.472 292.378 185.275L292.471 190.067L292.067 190.431C291.604 190.847 292.635 190.767 279.201 191.431C254.855 192.635 254.422 192.622 247.215 190.501C245.331 189.947 241.619 188.962 238.965 188.312C227.636 185.537 221.062 183.872 220.687 183.682C219.459 183.062 219.401 182.456 220.114 177.668C220.419 175.618 221.024 171.408 221.456 168.312C222.64 159.852 222.733 159.524 225.162 155.095C225.799 153.934 227.631 150.306 229.234 147.032C242.886 119.152 244.475 116.127 249.497 108.447C250.564 106.815 251.916 104.693 252.502 103.731C253.59 101.944 253.847 101.561 253.91 101.635C253.929 101.658 258.974 108.181 265.119 116.13ZM304.787 149.06C305.578 149.353 305.646 149.656 305.759 153.334C305.85 156.316 305.831 156.813 305.612 157.227C305.31 157.798 297.445 163.925 297.267 163.727C297.125 163.57 294.201 158.541 293.12 156.597C291.755 154.141 292.568 151.427 295.204 149.638L295.933 149.143L299.279 149.06C301.12 149.014 303.024 148.962 303.511 148.946C303.997 148.928 304.572 148.98 304.787 149.06ZM183.165 172.914C190.142 176.387 197.917 180.272 200.442 181.548C202.968 182.824 206.37 184.521 208.003 185.319C209.636 186.117 211.193 186.953 211.463 187.175C212.444 187.982 212.527 187.029 209.79 206.456C208.419 216.185 205.824 234.688 204.023 247.573C199.177 282.224 192.798 327.587 192.765 327.619C192.735 327.648 171.22 310.437 161.452 302.571C158.456 300.158 155.272 297.613 154.376 296.916C151.256 294.485 151.375 295.395 152.596 283.304C153.136 277.961 154.493 264.346 155.613 253.05C160.008 208.705 161.751 191.19 163.091 177.897C163.859 170.283 164.487 163.967 164.487 163.862C164.487 163.638 165.988 164.366 183.165 172.914ZM152.352 222.124C146.615 279.766 146.665 279.294 146.468 279.292C146.334 279.29 145.473 276.912 130.866 236.163C124.717 219.01 118.875 202.723 117.883 199.969C116.892 197.216 116.08 194.731 116.08 194.448C116.08 193.62 116.778 193.068 123.863 188.303C127.501 185.855 136.081 180.051 142.93 175.405C157.691 165.391 157.852 165.285 157.92 165.484C157.949 165.57 155.443 191.058 152.352 222.124ZM219.587 192.574C220.487 193.3 233.985 203.609 236.594 205.565C239.457 207.71 239.488 207.818 237.806 209.814C234.574 213.647 232.922 217.691 232.356 223.156C232.246 224.22 232.172 237.369 232.135 262.559C232.09 292.849 232.04 300.476 231.879 300.928C231.548 301.863 230.9 302.477 227.782 304.809C226.143 306.036 219.346 311.142 212.677 316.156C206.009 321.17 200.325 325.365 200.046 325.479C199.11 325.861 199.097 325.667 199.801 321.707C201.085 314.485 202.095 307.591 204.489 289.714C205.094 285.196 206.005 278.624 206.513 275.11C208.27 262.977 211.324 241.116 216.47 203.835C217.331 197.601 218.072 192.343 218.116 192.15C218.221 191.69 218.64 191.811 219.587 192.574ZM244.024 195.827C245.094 196.119 246.74 196.595 247.682 196.885C252.752 198.448 257.296 198.737 267.683 198.156C270.122 198.02 274.57 197.805 277.566 197.679C280.563 197.553 283.466 197.41 284.019 197.364L285.023 197.278L283.785 198.257C283.104 198.795 280.271 201.033 277.489 203.232C274.708 205.43 272.221 207.313 271.964 207.417C271.662 207.539 268.932 207.721 264.258 207.931C260.278 208.11 256.11 208.316 254.997 208.389L252.974 208.522L251.495 207.421C249.493 205.93 247.917 204.911 243.246 202.091C236.61 198.083 233.254 195.63 231.286 193.35L230.671 192.636L236.375 193.966C239.512 194.697 242.954 195.534 244.024 195.827ZM297.814 227.489C296.97 227.783 297.034 227.705 292.215 234.293C289.846 237.531 287.717 240.31 287.484 240.469C287.252 240.628 283.979 242.519 280.212 244.672C273.265 248.644 272.446 249.204 272.275 250.109C272.214 250.427 272.587 253.097 273.273 257.26L274.368 263.904L271.635 276.961C268.786 290.572 268.76 290.744 269.376 291.59C270.267 292.813 270.326 292.81 278.402 291.089C285.108 289.659 285.687 289.49 286.109 288.837C287.024 287.419 302.906 257.5 302.965 257.082C303.035 256.587 301.093 230.226 300.905 229.124C300.779 228.383 300.029 227.635 299.211 227.434C298.398 227.234 298.566 227.227 297.814 227.489ZM297.506 246.466L298.235 256.159L290.387 270.801L282.539 285.443L278.496 286.301C276.273 286.772 274.439 287.149 274.421 287.137C274.403 287.124 275.473 281.917 276.799 275.564L279.211 264.012L278.209 257.923C277.657 254.574 277.218 251.827 277.231 251.819C277.244 251.811 280.374 250.017 284.186 247.833L291.117 243.861L293.914 240.046C295.563 237.796 296.724 236.342 296.744 236.502C296.762 236.65 297.105 241.134 297.506 246.466Z" fill="url(#paint0_linear_1715_3937)"/>
</g>
<defs>
<filter id="filter0_d_1715_3937" x="0" y="0" width="319" height="348" filterUnits="userSpaceOnUse" color-interpolation-filters="sRGB">
<feFlood flood-opacity="0" result="BackgroundImageFix"/>
<feColorMatrix in="SourceAlpha" type="matrix" values="0 0 0 0 0 0 0 0 0 0 0 0 0 0 0 0 0 0 127 0" result="hardAlpha"/>
<feOffset dy="4"/>
<feGaussianBlur stdDeviation="2"/>
<feComposite in2="hardAlpha" operator="out"/>
<feColorMatrix type="matrix" values="0 0 0 0 0 0 0 0 0 0 0 0 0 0 0 0 0 0 0.25 0"/>
<feBlend mode="normal" in2="BackgroundImageFix" result="effect1_dropShadow_1715_3937"/>
<feBlend mode="normal" in="SourceGraphic" in2="effect1_dropShadow_1715_3937" result="shape"/>
</filter>
<linearGradient id="paint0_linear_1715_3937" x1="69.0041" y1="-246.5" x2="434.781" y2="-200.519" gradientUnits="userSpaceOnUse">
<stop stop-color="#7517F8"/>
<stop offset="1" stop-color="#E423FF"/>
</linearGradient>
</defs>
</svg>
