<svg width="627" height="618" viewBox="0 0 627 618" fill="none" xmlns="http://www.w3.org/2000/svg">
<path d="M85.6854 427.484L85.6854 427.484C85.5915 428.143 86.0511 428.771 86.7223 428.879C87.3894 428.986 88.0031 428.527 88.089 427.869L88.0897 427.863C91.141 406.35 111.177 391.672 132.752 395.13C137.038 395.808 141.176 397.188 145.038 399.211L145.041 399.213C145.537 399.478 146.124 399.379 146.49 398.983L146.49 398.983C153.68 391.239 164.276 387.627 174.828 389.312L174.828 389.312C181.486 390.383 187.59 393.437 192.472 398.156L192.479 398.162C192.774 398.458 193.207 398.576 193.628 398.473C194.033 398.366 194.354 398.053 194.471 397.655C194.471 397.654 194.471 397.654 194.471 397.654L194.927 397.794C198.255 386.294 209.77 379.077 221.703 380.983C230.964 382.463 238.526 388.939 241.437 397.887L85.6854 427.484ZM85.6854 427.484C88.9243 404.658 110.182 389.076 133.101 392.74L85.6854 427.484Z" fill="url(#paint0_linear_1715_3955)" stroke="#141416" stroke-width="0.953306"/>
<path d="M55.964 397.818L55.9639 397.818C55.87 398.476 56.3307 399.105 57.006 399.214C57.6774 399.322 58.2919 398.87 58.3949 398.217C60.0556 386.51 72.1872 378.945 84.0194 383.471L84.0229 383.472C84.3785 383.612 84.7821 383.575 85.103 383.371L85.1078 383.368C85.4192 383.176 85.6237 382.832 85.6516 382.449L85.6519 382.446L85.6521 382.443C85.6606 382.337 85.6696 382.223 85.6835 382.097L85.6843 382.09L85.6854 382.082C87.1688 371.684 96.889 364.602 107.351 366.272L107.351 366.272C109.473 366.611 111.553 367.314 113.518 368.371C113.835 368.538 114.211 368.56 114.55 368.436C114.87 368.32 115.123 368.054 115.24 367.716C115.241 367.716 115.241 367.715 115.241 367.715L115.69 367.877C120.304 354.343 134.031 346.186 148.335 348.484L55.964 397.818ZM55.964 397.818C57.7523 385.262 70.216 376.915 82.9324 380.552L83.4175 380.69M55.964 397.818L83.4175 380.69M83.4175 380.69L83.5231 380.197M83.4175 380.69L83.5231 380.197M83.5231 380.197C85.8567 369.291 96.38 362.029 107.69 363.842L107.692 363.842M83.5231 380.197L107.692 363.842M107.692 363.842C109.485 364.125 111.241 364.645 112.953 365.389L113.397 365.582M107.692 363.842L113.397 365.582M113.397 365.582L113.579 365.135M113.397 365.582L113.579 365.135M113.579 365.135C119.178 351.337 133.675 343.172 148.751 345.597L148.751 345.597M113.579 365.135L148.751 345.597M148.751 345.597C153.701 346.388 158.454 348.304 162.577 351.165L162.906 351.392M148.751 345.597L162.906 351.392M162.906 351.392L163.184 351.11M162.906 351.392L163.184 351.11M163.184 351.11C170.922 343.27 181.988 339.662 193.078 341.437C204.214 343.221 213.801 350.173 219.004 360.146L219.198 360.518M163.184 351.11L219.198 360.518M219.198 360.518L219.588 360.377M219.198 360.518L219.588 360.377M219.588 360.377C223.912 358.822 228.561 358.376 233.144 359.12L233.145 359.12M219.588 360.377L233.145 359.12M233.145 359.12C238.138 359.922 242.732 362.024 246.589 365.24L247.14 365.699M233.145 359.12L247.14 365.699M247.14 365.699L247.345 365.015M247.14 365.699L247.345 365.015M247.345 365.015C250.413 354.803 260.728 348.183 271.651 349.933C276.38 350.697 280.761 352.96 284.16 356.393L284.457 356.693L284.787 356.437C290.503 352.018 297.324 349.471 304.596 349.032M247.345 365.015L304.596 349.032M304.596 349.032C305.281 348.991 305.866 349.505 305.92 350.178C305.973 350.848 305.481 351.42 304.8 351.46L304.8 351.46C297.513 351.903 290.716 354.615 285.145 359.314C284.637 359.74 283.865 359.679 283.415 359.156C280.283 355.512 275.982 353.091 271.31 352.337L271.31 352.337C260.71 350.643 250.756 357.803 249.103 368.323L249.102 368.327C249.035 368.773 248.716 369.143 248.28 369.267L248.28 369.267L248.268 369.27C247.836 369.405 247.347 369.274 247.023 368.941C243.162 364.96 238.243 362.396 232.804 361.524L232.804 361.524C228.142 360.78 223.411 361.359 219.11 363.204M304.596 349.032L217.487 362.577M219.11 363.204C219.11 363.204 219.111 363.203 219.111 363.203L219.299 363.644L219.109 363.204C219.11 363.204 219.11 363.204 219.11 363.204ZM219.11 363.204C218.499 363.463 217.779 363.19 217.487 362.577M217.487 362.577C217.487 362.576 217.486 362.576 217.486 362.575L217.058 362.778L217.488 362.578C217.487 362.578 217.487 362.577 217.487 362.577Z" fill="url(#paint1_linear_1715_3955)" stroke="#141416" stroke-width="0.953306"/>
<path d="M339.173 372.844L339.187 372.846C339.526 372.9 339.892 372.804 340.187 372.581C346.286 367.368 354.361 365.114 362.349 366.393L362.35 366.393C369.242 367.502 375.492 371.129 379.924 376.602C380.181 376.906 380.553 377.077 380.933 377.068C381.313 377.058 381.664 376.867 381.879 376.553C388.519 366.78 399.965 361.887 411.746 363.777C419.573 365.025 426.606 369.201 431.545 375.51M339.173 372.844L431.175 375.805M339.173 372.844L339.163 372.843L339.149 372.837L339.105 372.827C338.733 372.741 338.419 372.481 338.248 372.123C335.375 365.753 330.728 360.446 324.8 356.775L324.799 356.774C324.222 356.42 324.039 355.672 324.382 355.102C324.719 354.54 325.463 354.362 326.05 354.721C331.78 358.278 336.403 363.268 339.513 369.229L339.772 369.726L340.217 369.397C346.606 364.674 354.674 362.71 362.665 363.988M339.173 372.844L362.665 363.988M431.545 375.51C431.545 375.511 431.546 375.511 431.546 375.512L431.175 375.805M431.545 375.51C431.545 375.51 431.545 375.51 431.544 375.51L431.175 375.805M431.545 375.51C431.784 375.812 432.146 375.984 432.532 375.99C432.903 375.995 433.254 375.824 433.481 375.523L433.481 375.522C438.632 368.727 447.108 365.36 455.615 366.721L455.616 366.721C459.759 367.391 463.689 369.158 466.966 371.826L466.968 371.827C467.271 372.076 467.687 372.164 468.067 372.062L468.073 372.06C468.453 371.963 468.748 371.689 468.879 371.32C473.954 357 488.61 348.383 503.749 350.806L503.75 350.806C521.331 353.63 533.614 370.182 531.131 387.741L531.131 387.741C531.037 388.4 531.496 389.027 532.166 389.135C532.835 389.243 533.445 388.791 533.538 388.134M431.175 375.805C431.508 376.226 432.008 376.46 432.53 376.468C433.053 376.476 433.544 376.234 433.86 375.815C438.905 369.159 447.208 365.859 455.546 367.194C459.607 367.85 463.459 369.582 466.671 372.196C467.096 372.547 467.671 372.665 468.195 372.524C468.728 372.388 469.144 372.001 469.326 371.485C474.324 357.383 488.761 348.891 503.68 351.278C521.007 354.062 533.106 370.373 530.661 387.668C530.529 388.59 531.172 389.459 532.097 389.608C533.021 389.756 533.877 389.13 534.008 388.207M533.538 388.134C533.538 388.134 533.538 388.134 533.538 388.134L534.008 388.207M533.538 388.134C536.209 369.258 523.002 351.435 504.076 348.405C488.537 345.919 473.457 354.27 467.379 368.414L467.153 368.939L466.679 368.614C463.457 366.406 459.783 364.937 455.942 364.321L455.942 364.321C447.239 362.917 438.57 366.015 432.827 372.444L432.474 372.839L432.12 372.437C426.892 366.509 419.851 362.606 412.078 361.367L412.078 361.366C400.267 359.476 388.338 364.184 381.094 373.434L380.755 373.867L380.376 373.46C375.679 368.421 369.467 365.082 362.665 363.988M533.538 388.134L534.008 388.207M534.008 388.207C536.717 369.067 523.327 351.004 504.146 347.933C488.558 345.439 473.423 353.703 467.137 367.777C467.16 367.793 467.184 367.809 467.207 367.825L466.943 368.219L466.507 368.025C466.518 368 466.529 367.974 466.54 367.949C463.357 365.851 459.763 364.45 456.011 363.849C447.312 362.445 438.642 365.461 432.794 371.769C432.805 371.781 432.815 371.794 432.826 371.806L432.473 372.121L432.118 371.799C432.129 371.787 432.14 371.774 432.152 371.762C426.885 365.952 419.871 362.126 412.147 360.894C400.328 359.003 388.394 363.623 381.018 372.76C381.034 372.777 381.049 372.793 381.065 372.81L380.72 373.135L380.346 372.836C380.36 372.819 380.374 372.801 380.388 372.783C375.659 367.862 369.483 364.601 362.735 363.516L362.665 363.988M339.191 372.855L339.186 372.853C339.188 372.854 339.189 372.855 339.191 372.855Z" fill="url(#paint2_linear_1715_3955)" stroke="#141416" stroke-width="0.953306"/>
<path d="M289.135 64.7428L289.135 64.7428C284.177 64.7288 279.389 65.4089 274.877 66.69C281.578 59.3048 291.311 54.7201 302.204 54.7515C322.848 54.832 339.875 71.5291 340.215 92.0148C340.266 95.3476 339.897 98.5544 339.112 101.62C332.497 80.3986 312.513 64.8209 289.135 64.7428Z" fill="#141416" stroke="#141416" stroke-width="0.953306"/>
<path d="M323.337 72.9075L323.337 72.9074L323.328 72.9075C322.876 72.91 322.432 72.7474 322.073 72.4151L322.07 72.4127C317.124 67.913 311.061 64.9911 304.523 63.9774L304.523 63.9774C303.516 63.8214 302.815 62.878 302.949 61.8895C303.083 60.9043 304.005 60.2159 305.014 60.3721C312.283 61.503 319.028 64.7387 324.53 69.749L324.531 69.7502C325.285 70.4314 325.346 71.5848 324.681 72.3229C324.305 72.7221 323.816 72.9134 323.337 72.9075Z" fill="url(#paint3_linear_1715_3955)" stroke="#141416" stroke-width="0.953306"/>
<path d="M242.104 82.0533L242.104 82.0537C242.119 83.0116 242.504 84.1204 244.004 85.4255C245.524 86.7476 248.163 88.2467 252.637 89.9411C254.638 90.6866 257.004 91.4735 259.815 92.3232C260.135 92.4178 260.453 92.5132 260.772 92.6089C261.455 92.814 262.144 93.0207 262.87 93.2243L263.199 93.3166L263.222 93.6593C264.201 108.742 273.851 122.021 287.921 127.86L287.926 127.862C288.644 128.17 289.379 128.453 290.115 128.716L291.33 124.96C290.878 124.801 290.42 124.627 289.974 124.432C277.514 119.526 268.799 108.156 267.363 95.0634L267.289 94.3877L267.945 94.5524C277.479 96.9455 288.859 99.071 300.853 100.768C304.066 101.203 320.359 103.4 335.419 103.832L336.086 103.851L335.857 104.479C332.492 113.717 325.239 121.167 315.628 124.764C315.182 124.935 314.732 125.089 314.288 125.236L315.57 129.031C316.327 128.782 317.074 128.512 317.796 128.217L317.802 128.215C328.731 123.911 336.807 115.053 340.192 104.233L340.296 103.902L340.642 103.904C342.16 103.911 343.637 103.866 345.081 103.822L345.165 103.82C345.165 103.82 345.166 103.82 345.167 103.82C349.938 103.631 354.14 103.138 357.199 102.212C358.729 101.748 359.944 101.185 360.798 100.519C361.645 99.8591 362.116 99.1172 362.222 98.2809C362.301 97.6365 362.253 96.9723 361.917 96.257C361.576 95.5337 360.921 94.7202 359.719 93.8158C357.304 91.9981 352.777 89.8858 344.531 87.4212C344.531 87.4212 344.531 87.4211 344.531 87.4211L344.661 86.9627C343.756 86.6926 342.811 86.4118 341.873 86.161L242.104 82.0533ZM242.104 82.0533C242.101 81.8613 242.114 81.6862 242.15 81.5453L242.158 81.5151L242.161 81.4841C242.274 80.5257 242.861 79.6869 243.943 78.9565C245.029 78.2224 246.574 77.6278 248.496 77.1645C252.338 76.2388 257.558 75.867 263.288 75.8557L263.295 75.8557L263.303 75.8555C264.187 75.8267 265.093 75.8311 266.009 75.8356L266.315 75.8371L266.439 75.5578C268.098 71.8465 270.327 68.454 273.016 65.4767C280.089 57.6882 290.405 52.7876 301.918 52.8375L242.104 82.0533ZM337.902 92.0282C337.891 91.3202 337.849 90.6199 337.788 89.9442L337.757 89.6046L337.428 89.5194C328.477 87.1978 316.82 84.832 303.007 82.9072C289.819 81.0642 278.438 80.1573 269.412 79.8952L269.067 79.8852L268.955 80.2123C267.909 83.2559 267.293 86.4996 267.169 89.8602L267.155 90.2503L267.532 90.3469C276.409 92.6202 287.82 94.9346 301.315 96.8168C315.415 98.7904 327.454 99.7037 336.748 99.8811L337.138 99.8886L337.217 99.5047C337.711 97.0881 337.948 94.6025 337.902 92.0282ZM337.902 92.0282C337.902 92.0286 337.902 92.0289 337.902 92.0293L337.427 92.0311M337.902 92.0282C337.902 92.0281 337.902 92.0281 337.902 92.028L337.427 92.0311M337.427 92.0311C337.416 91.3365 337.376 90.6481 337.315 89.9825L336.751 99.4029C337.239 97.0205 337.472 94.57 337.427 92.0311ZM336.395 85.2045L337.146 85.398L336.97 84.6375C333.297 68.7987 318.895 56.8556 301.952 56.7618L301.951 56.7618C293.721 56.7364 286.142 59.5175 280.239 64.2096C276.441 67.1863 273.287 70.9375 271.037 75.2468L270.686 75.919L271.443 75.9512C285.735 76.5574 300.438 78.5552 303.46 78.9823L303.461 78.9824C313.636 80.4046 323.367 82.1596 331.917 84.1065C331.918 84.1067 331.919 84.1069 331.92 84.1071L332.206 84.1757C333.653 84.5229 335.039 84.8553 336.395 85.2045ZM341.34 99.3555L341.244 99.9189L341.813 99.9198C342.933 99.9215 343.999 99.9089 345.024 99.8855L345.029 99.8854C348.324 99.7745 351.055 99.5488 353.165 99.2328C355.254 98.92 356.795 98.5107 357.662 97.9991L358.187 97.689L357.753 97.2499C356.908 96.3965 355.133 95.4128 352.597 94.3524C350.036 93.2819 346.632 92.1066 342.462 90.8931L341.765 90.6903L341.865 91.4128C341.891 91.6027 341.901 91.8215 341.901 92.0357L341.901 92.0357L341.901 92.0483L341.915 92.5545C341.923 94.8683 341.716 97.1403 341.34 99.3555ZM246.653 81.7176L246.11 82.0266L246.559 82.473C247.161 83.0724 248.224 83.7355 249.666 84.4405C251.12 85.1515 253.001 85.9246 255.278 86.7315C257.377 87.4769 259.836 88.2617 262.605 89.0584L263.168 89.2201L263.205 88.6346C263.385 85.7974 263.879 83.0578 264.642 80.4309L264.821 79.8153L264.182 79.8135C262.578 79.8089 261.081 79.8197 259.659 79.8656C256.268 79.9646 253.457 80.1828 251.285 80.4939C249.132 80.8022 247.547 81.2091 246.653 81.7176Z" fill="url(#paint4_linear_1715_3955)" stroke="#141416" stroke-width="0.953306"/>
<path d="M296.53 396.668L294.462 309.219L294.462 309.219L294.462 309.215C294.435 308.366 295.144 307.639 296.077 307.644L296.077 307.645L296.082 307.644C297.026 307.64 297.786 308.382 297.803 309.239L297.803 309.239L297.803 309.241L299.817 394.193C298.549 394.815 297.45 395.658 296.53 396.668Z" fill="url(#paint5_linear_1715_3955)" stroke="#141416" stroke-width="0.953306"/>
<path d="M321.826 386.481C320.654 386.354 319.555 386.402 318.518 386.587L302.104 309.518C302.104 309.518 302.104 309.517 302.104 309.516C301.933 308.665 302.478 307.847 303.367 307.686L303.367 307.686L303.369 307.685C304.25 307.521 305.122 308.107 305.307 308.972L321.826 386.481Z" fill="url(#paint6_linear_1715_3955)" stroke="#141416" stroke-width="0.953306"/>
<path d="M275.62 398.63C274.837 398.274 273.98 397.971 273.046 397.742C272.779 397.676 272.522 397.624 272.269 397.581L287.695 308.921L287.695 308.921L287.696 308.916C287.83 308.093 288.696 307.493 289.672 307.663L289.672 307.663L289.677 307.664C290.667 307.827 291.277 308.685 291.131 309.517L291.13 309.518L275.62 398.63Z" fill="url(#paint7_linear_1715_3955)" stroke="#141416" stroke-width="0.953306"/>
<path d="M299.116 116.533L299.116 116.533C303.503 123.179 309.195 132.579 313.917 142.934L313.918 142.935C314.665 144.589 315.401 146.243 316.096 147.946C316.096 147.946 316.096 147.946 316.096 147.946L315.656 148.125C319.546 157.599 322.324 167.602 322.376 176.805L299.116 116.533ZM299.116 116.533L299.112 116.527C298.787 116.049 298.472 115.583 298.166 115.131C297.484 114.122 296.847 113.18 296.245 112.322C296.482 111.994 296.719 111.668 296.962 111.335C297.088 111.161 297.216 110.985 297.346 110.806L297.346 110.806L297.348 110.803L298.092 109.76C298.735 108.906 299.809 108.461 300.928 108.466C302.049 108.47 303.149 108.926 303.832 109.79L299.116 116.533Z" fill="#141416" stroke="#141416" stroke-width="0.953306"/>
<path d="M333.141 311.514L333.43 309.94M333.141 311.514L334.919 264.964C334.919 264.964 334.956 264.988 334.95 265.015C336.906 267.315 337.94 269.441 338.099 271.433M333.141 311.514C333.106 311.502 333.054 311.485 332.987 311.462C332.907 311.434 332.805 311.397 332.687 311.354M333.141 311.514L332.6 311.829L332.687 311.354M333.43 309.94C333.436 309.902 333.447 309.837 333.463 309.747C333.947 306.936 338.68 279.457 338.099 271.433M333.43 309.94L332.962 309.849L332.962 309.852M333.43 309.94L332.961 309.854L332.687 311.354M338.099 271.433L337.626 271.463C337.626 271.463 337.626 271.464 337.626 271.464M338.099 271.433L337.626 271.466C337.626 271.466 337.626 271.465 337.626 271.464M337.626 271.464C337.477 269.613 336.51 267.581 334.59 265.323L334.482 265.196C334.431 265.142 334.383 265.088 334.333 265.029L334.326 265.021L334.326 265.021L334.308 264.998L334.292 264.978C334.282 264.966 334.273 264.956 334.266 264.948C334.259 264.94 334.254 264.935 334.252 264.933L334.206 264.9L334.167 264.851L334.129 264.805C331.58 261.924 327.56 258.823 322.116 255.485L306.086 255.392C306.63 255.68 307.357 256.041 308.315 256.477C311.59 257.949 315.319 260.152 319.658 263.135L332.962 309.852M337.626 271.464C337.772 273.489 337.572 276.816 337.179 280.719C336.786 284.613 336.204 289.046 335.597 293.263C334.457 301.169 333.229 308.3 332.995 309.661C332.979 309.749 332.968 309.813 332.962 309.852M332.962 309.852L330.201 279.472L330.675 279.511C330.429 283.052 330.103 287 329.777 290.955C329.249 297.36 328.72 303.784 328.523 308.532L328.523 308.536C328.512 308.767 328.666 309.082 329.104 309.47C329.524 309.843 330.111 310.198 330.728 310.511C331.34 310.821 331.958 311.077 332.425 311.256C332.519 311.292 332.607 311.325 332.687 311.354" fill="#141416" stroke="#141416" stroke-width="0.953306"/>
<path d="M286.389 284.253C285.107 284.249 284.297 284.368 283.794 284.499C283.542 284.565 283.364 284.634 283.24 284.694C283.179 284.724 283.13 284.751 283.093 284.775C283.075 284.787 283.059 284.798 283.046 284.807C283.043 284.81 283.04 284.812 283.037 284.815C283.034 284.817 283.031 284.819 283.028 284.821L283.021 284.827L283.017 284.83L283.016 284.831L283.015 284.832C283.015 284.832 283.014 284.833 283.323 285.198L283.014 284.833L282.913 284.919L282.871 285.046C282.602 285.868 282.491 287.323 282.472 289.093C282.453 290.885 282.529 293.069 282.664 295.392C282.934 300.038 283.441 305.267 283.904 309.098C283.904 309.099 283.904 309.1 283.904 309.1L284.143 311.188L273.61 311.144L273.301 309.658L273.301 309.657C273.293 309.617 273.278 309.546 273.256 309.446C272.972 308.102 271.576 301.51 270.185 294.019C268.688 285.96 267.207 276.916 267.107 272.229C267.106 272.128 267.105 272.032 267.104 271.941C267.101 271.658 267.099 271.42 267.115 271.197L267.115 271.197L267.115 271.184C267.192 269.327 268.088 267.302 269.945 265.059L270.013 264.976L270.017 264.962C270.04 264.936 270.061 264.911 270.078 264.891L270.082 264.886C270.121 264.84 270.145 264.812 270.167 264.79L270.177 264.78L270.186 264.77C270.21 264.743 270.231 264.716 270.243 264.699L270.262 264.674L270.277 264.654C270.281 264.649 270.284 264.645 270.286 264.642L270.323 264.613L270.36 264.585L270.391 264.549C273.271 261.223 278.144 257.599 284.92 253.692L285.203 253.528L285.15 253.203C284.925 251.833 284.682 250.361 284.425 248.802C284.039 246.46 283.621 243.924 283.184 241.255L283.183 241.253C279.814 221.173 275.221 193.686 273.764 181.306L273.764 181.305C272.418 170.07 273.554 158.653 277.168 147.144L277.168 147.142C279.102 140.887 281.806 134.576 285.221 128.278L285.221 128.278L285.224 128.271C285.986 126.812 286.785 125.379 287.678 123.915L287.678 123.915L287.682 123.908C289.879 120.175 292.35 116.4 295.059 112.659L295.06 112.658C295.408 112.175 295.751 111.71 296.107 111.227C296.188 111.117 296.269 111.007 296.352 110.895L296.352 110.895L296.356 110.889L297.1 109.847C297.743 108.994 298.818 108.549 299.94 108.554C301.063 108.559 302.166 109.016 302.851 109.88C302.851 109.88 302.852 109.881 302.852 109.881L303.665 110.925L303.665 110.926C307.14 115.374 310.266 119.814 313.019 124.224L313.02 124.226C313.947 125.699 314.841 127.137 315.625 128.601L315.63 128.608L315.634 128.616C318.757 133.966 321.311 139.32 323.34 144.62L323.341 144.622C328.172 157.096 330.103 169.404 329.153 181.511L329.153 181.512C328.306 192.566 325.46 215.716 323.054 234.833C322.973 235.459 322.892 236.082 322.811 236.701C322.602 238.296 322.397 239.867 322.209 241.397C321.655 245.83 321.15 249.895 320.735 253.32L320.696 253.64L320.978 253.797C321.916 254.324 322.785 254.846 323.645 255.368L323.646 255.368C329.225 258.731 333.341 261.855 335.948 264.757L335.986 264.803L336.026 264.851L336.071 264.883C336.071 264.883 336.071 264.884 336.072 264.884C336.074 264.886 336.079 264.891 336.087 264.9C336.09 264.903 336.093 264.906 336.096 264.91C336.101 264.916 336.107 264.923 336.113 264.93L336.129 264.95L336.148 264.973L336.155 264.981C336.206 265.039 336.254 265.094 336.306 265.148L336.416 265.275C338.367 267.535 339.351 269.568 339.506 271.421C339.66 273.447 339.468 276.778 339.08 280.686C338.694 284.585 338.118 289.023 337.515 293.245C336.384 301.163 335.161 308.304 334.928 309.666C334.913 309.755 334.902 309.819 334.895 309.857C334.895 309.858 334.895 309.858 334.895 309.859L334.625 311.38L324.084 311.337L324.239 309.248C324.239 309.247 324.239 309.247 324.239 309.247C324.544 305.418 324.833 300.192 324.917 295.557C324.959 293.24 324.95 291.065 324.865 289.283C324.781 287.524 324.621 286.085 324.336 285.283L324.292 285.16L324.193 285.076L323.888 285.441C324.193 285.076 324.192 285.076 324.192 285.075L324.191 285.075L324.189 285.073L324.184 285.069L324.174 285.061C324.166 285.055 324.157 285.048 324.147 285.041C324.127 285.026 324.101 285.009 324.068 284.99C324.004 284.951 323.915 284.904 323.796 284.855C323.558 284.755 323.199 284.642 322.672 284.556C321.621 284.383 319.887 284.312 317.081 284.67L316.721 284.716L316.673 285.077C315.699 292.402 314.848 298.569 314.24 302.912C313.937 305.083 313.694 306.798 313.526 307.974L313.466 308.403C313.411 308.787 313.367 309.095 313.335 309.324C313.313 309.478 313.296 309.596 313.285 309.677L313.272 309.771L313.268 309.8L313.268 309.803L313.014 311.3L295.282 311.229L294.919 309.645L294.919 309.642L294.915 309.623L294.899 309.536L294.836 309.192C294.781 308.889 294.699 308.439 294.592 307.853C294.379 306.682 294.068 304.968 293.676 302.796C292.894 298.451 291.791 292.273 290.51 284.943L290.449 284.598L290.104 284.55C288.564 284.332 287.334 284.254 286.389 284.253ZM286.389 284.253C286.389 284.253 286.389 284.253 286.389 284.253L286.391 284.73L286.39 284.253C286.39 284.253 286.389 284.253 286.389 284.253ZM276.714 146.998C278.658 140.71 281.375 134.37 284.803 128.047C285.569 126.58 286.373 125.138 287.272 123.663C289.477 119.917 291.956 116.129 294.674 112.376C295.024 111.891 295.368 111.423 295.725 110.94C295.806 110.831 295.887 110.721 295.969 110.609L276.714 146.998ZM276.714 146.998C273.081 158.566 271.937 170.052 273.292 181.359L276.714 146.998ZM324.489 181.025C325.418 169.002 323.258 157.88 319.831 148.178L324.489 181.025ZM324.489 181.025C323.756 190.485 321.55 208.871 319.423 225.964L324.489 181.025ZM329.107 306.503C329.523 300.144 330.106 287.742 328.675 283.784C327.563 280.681 323.935 279.9 320.491 279.888C318.012 279.874 315.634 280.268 314.353 280.484L329.107 306.503ZM329.107 306.503L329.072 306.503L329.075 306.98L329.55 307.016C329.551 307.004 329.551 306.992 329.552 306.98L330.638 306.98C331.786 300.144 335.351 278.129 334.863 271.642L329.107 306.503ZM316.044 128.376C315.251 126.897 314.348 125.445 313.421 123.973L323.526 234.896C325.931 215.785 328.779 192.62 329.627 181.552C330.583 169.366 328.639 156.986 323.784 144.451C321.745 139.127 319.18 133.749 316.044 128.376ZM323.888 254.959C323.028 254.437 322.153 253.911 321.207 253.381L323.888 254.959ZM297.327 116.533L297.325 116.536C293.3 122.128 287.284 131.281 282.905 142.884L282.661 143.531L283.352 143.533L317.915 143.659L318.629 143.662L318.352 142.999C312.438 128.83 304.241 118.297 300.398 113.385L300.011 112.891L299.642 113.393C299.42 113.695 299.181 114.017 298.928 114.36C298.447 115.009 297.912 115.733 297.327 116.533ZM277.868 180.911L277.868 180.913C279.342 193.212 283.902 220.648 287.265 240.671C287.569 242.533 287.867 244.324 288.15 246.03C288.496 248.117 288.821 250.076 289.111 251.879L289.176 252.282L289.582 252.283L316.192 252.388L316.613 252.39L316.663 251.971C316.907 249.922 317.188 247.661 317.489 245.237C317.667 243.803 317.852 242.312 318.041 240.774C318.368 238.128 318.719 235.351 319.08 232.497C319.348 230.375 319.622 228.21 319.895 226.027L319.895 226.026C322.021 208.937 324.229 190.539 324.963 181.065L324.963 181.065C325.899 168.962 323.723 157.771 320.279 148.021L320.166 147.701L319.83 147.7L281.635 147.555L281.287 147.554L281.182 147.887C278.743 155.658 277.172 164.345 277.36 173.696L277.36 173.696C277.409 176.058 277.588 178.48 277.868 180.911ZM288.631 256.337L288.508 256.336L288.4 256.396C283.895 258.903 280.469 261.175 277.859 263.215L276.771 264.065L278.154 264.07L328.095 264.255L329.503 264.26L328.381 263.398C325.704 261.342 322.171 259.053 317.574 256.501L317.466 256.442L317.344 256.441L288.631 256.337ZM335.337 271.61C335.275 270.743 334.755 269.698 333.809 268.5L333.666 268.318L333.436 268.317L273.035 268.091L272.799 268.09L272.656 268.279C271.763 269.465 271.268 270.517 271.257 271.393C271.2 273.058 271.443 275.684 271.853 278.765C272.265 281.859 272.849 285.443 273.486 289.035C274.759 296.218 276.24 303.448 276.963 306.883L277.043 307.265L277.431 307.264L278.994 307.264L279.521 307.264L279.463 306.737C279.125 303.643 278.66 298.865 278.443 294.359C278.334 292.106 278.287 289.928 278.348 288.067C278.409 286.192 278.578 284.682 278.882 283.741L278.429 283.591L278.882 283.741C279.641 281.381 282.122 280.471 285.049 280.276C287.936 280.084 291.007 280.609 292.566 280.876L292.567 280.876L294.048 281.126L294.282 282.585L294.284 282.592C295.643 290.367 296.805 296.961 297.644 301.605C298.048 303.874 298.388 305.703 298.627 306.955L298.701 307.344L299.095 307.346L308.943 307.382L309.355 307.384L309.413 306.974C309.949 303.129 311.197 294.171 312.761 282.639L312.762 282.633L312.939 281.194L314.431 280.955L314.434 280.955C315.715 280.739 318.058 280.352 320.492 280.365L320.493 280.365C322.188 280.371 323.888 280.567 325.285 281.121C326.672 281.67 327.731 282.556 328.227 283.943L328.228 283.945C328.571 284.893 328.803 286.407 328.941 288.282C329.079 290.145 329.122 292.323 329.106 294.575C329.075 299.079 328.809 303.852 328.601 306.945L328.566 307.458L329.079 307.458L330.641 307.458L331.041 307.457L331.107 307.062C331.681 303.643 332.86 296.424 333.835 289.248C334.322 285.66 334.759 282.078 335.043 278.986C335.327 275.903 335.462 273.276 335.337 271.61Z" fill="url(#paint8_linear_1715_3955)" stroke="#141416" stroke-width="0.953306"/>
<path d="M287.33 169.694L287.33 169.694C287.476 177.886 294.359 184.606 302.661 184.65L302.661 184.65C310.972 184.698 317.586 178.073 317.443 169.873C317.292 161.695 310.421 154.992 302.105 154.943L287.33 169.694ZM287.33 169.694C287.18 161.521 293.806 154.899 302.105 154.943L287.33 169.694ZM291.426 169.724L291.426 169.725C291.547 175.695 296.54 180.592 302.588 180.62C308.622 180.658 313.452 175.815 313.346 169.843L313.346 169.842C313.229 163.856 308.223 159.002 302.195 158.964L302.194 158.964C296.146 158.936 291.32 163.75 291.426 169.724Z" fill="url(#paint9_linear_1715_3955)" stroke="#141416" stroke-width="0.953306"/>
<path d="M303.984 246.507L303.984 246.508C303.999 247.178 303.449 247.745 302.722 247.744C301.992 247.742 301.406 247.162 301.391 246.482C301.391 246.482 301.391 246.482 301.391 246.482L301.205 237.363L301.205 237.362C301.19 236.692 301.74 236.124 302.467 236.126C303.197 236.127 303.783 236.708 303.799 237.387C303.799 237.387 303.799 237.388 303.799 237.388L303.984 246.507Z" fill="url(#paint10_linear_1715_3955)" stroke="#141416" stroke-width="0.953306"/>
<path d="M297.092 246.496L297.092 246.497C297.107 247.166 296.557 247.734 295.83 247.732C295.1 247.731 294.514 247.151 294.499 246.471C294.499 246.471 294.499 246.471 294.499 246.47L294.314 237.351L294.314 237.35C294.298 236.68 294.848 236.113 295.575 236.114C296.305 236.116 296.891 236.696 296.907 237.376C296.907 237.376 296.907 237.376 296.907 237.376L297.092 246.496Z" fill="url(#paint11_linear_1715_3955)" stroke="#141416" stroke-width="0.953306"/>
<path d="M309.528 236.14L309.528 236.14L309.53 236.14C310.26 236.141 310.845 236.722 310.861 237.401C310.861 237.401 310.861 237.402 310.861 237.402L311.046 246.521L311.046 246.522C311.061 247.192 310.511 247.76 309.784 247.758C309.054 247.756 308.469 247.176 308.453 246.496C308.453 246.496 308.453 246.496 308.453 246.496L308.268 237.377C308.268 237.377 308.268 237.377 308.268 237.377C308.255 236.689 308.792 236.135 309.528 236.14Z" fill="url(#paint12_linear_1715_3955)" stroke="#141416" stroke-width="0.953306"/>
<path d="M308.483 171.565L308.483 171.564C308.402 167.287 306.88 163.338 304.375 160.17C306.173 160.573 307.887 161.455 309.318 162.835C313.298 166.711 313.401 172.963 309.575 176.793L309.575 176.793C308.876 177.494 308.088 178.06 307.251 178.49C308.102 176.354 308.527 174.019 308.483 171.565Z" fill="#141416" stroke="#141416" stroke-width="0.953306"/>
<path d="M440.185 219.38C439.094 219.033 438.017 218.577 437.023 217.846C438.253 217.707 439.394 217.855 440.526 218.099C440.907 216.829 441.406 215.605 442.258 214.46C442.443 215.881 442.294 217.198 442.021 218.497C443.126 218.847 444.19 219.3 445.197 220.034C443.968 220.174 442.826 220.026 441.694 219.781C441.313 221.051 440.814 222.276 439.962 223.421C439.75 221.993 439.916 220.666 440.185 219.38Z" fill="url(#paint13_linear_1715_3955)"/>
<path d="M409.176 142.243C408.393 141.978 407.627 141.648 406.909 141.075C407.793 140.942 408.636 141.025 409.442 141.196C409.746 140.174 410.131 139.173 410.768 138.254C410.883 139.387 410.728 140.449 410.508 141.479C411.294 141.73 412.07 142.078 412.775 142.647C411.892 142.78 411.048 142.697 410.242 142.525C409.938 143.548 409.557 144.535 408.916 145.468C408.815 144.338 408.957 143.273 409.176 142.243Z" fill="url(#paint14_linear_1715_3955)"/>
<path d="M139.899 91.4769C138.384 90.9759 136.907 90.3292 135.541 89.2453C137.251 88.9781 138.85 89.148 140.422 89.4804C141.009 87.5151 141.758 85.5927 142.976 83.8089C143.185 85.9856 142.908 88.0333 142.473 90.0248C143.987 90.5258 145.465 91.1725 146.831 92.2564C145.12 92.5236 143.522 92.3537 141.95 92.0213C141.363 93.9866 140.63 95.8993 139.396 97.6928C139.183 95.5294 139.46 93.4816 139.899 91.4769Z" fill="url(#paint15_linear_1715_3955)"/>
<path d="M184.899 52.8987C184.154 52.6584 183.429 52.3386 182.771 51.8105C183.611 51.6799 184.394 51.7745 185.163 51.9221C185.449 50.9658 185.817 50.0311 186.418 49.144C186.522 50.2041 186.38 51.213 186.175 52.1907C186.92 52.431 187.645 52.7507 188.303 53.2789C187.463 53.4095 186.677 53.3281 185.911 53.1673C185.624 54.1235 185.27 55.0618 184.656 55.9453C184.555 54.872 184.68 53.8728 184.899 52.8987Z" fill="url(#paint16_linear_1715_3955)"/>
<path d="M393.892 180.809C392.496 180.354 391.136 179.752 389.892 178.757C391.467 178.511 392.938 178.675 394.375 178.972C394.921 177.165 395.6 175.408 396.726 173.755C396.922 175.759 396.662 177.627 396.264 179.473C397.66 179.928 399.019 180.53 400.277 181.528C398.702 181.775 397.232 181.611 395.795 181.314C395.261 183.124 394.57 184.878 393.443 186.53C393.247 184.527 393.497 182.642 393.892 180.809Z" fill="url(#paint17_linear_1715_3955)"/>
<path d="M486.602 198.118C486.454 198.7 486.817 199.305 487.409 199.463C488.001 199.621 488.606 199.273 488.754 198.691C488.903 198.108 488.54 197.503 487.948 197.345C487.356 197.188 486.75 197.535 486.602 198.118Z" fill="url(#paint18_linear_1715_3955)"/>
<path d="M165.73 56.0553C165.589 56.6113 165.935 57.1698 166.486 57.3167C167.051 57.467 167.61 57.1351 167.748 56.5924C167.89 56.0364 167.544 55.4779 166.992 55.3311C166.441 55.1842 165.872 55.4993 165.73 56.0553Z" fill="url(#paint19_linear_1715_3955)"/>
<path d="M387.054 155.246C386.906 155.829 387.269 156.434 387.861 156.592C388.453 156.749 389.058 156.402 389.206 155.819C389.355 155.237 388.992 154.632 388.4 154.474C387.808 154.316 387.206 154.651 387.054 155.246Z" fill="url(#paint20_linear_1715_3955)"/>
<path d="M470.913 144.186C470.765 144.768 471.128 145.374 471.72 145.531C472.312 145.689 472.917 145.341 473.066 144.759C473.214 144.177 472.851 143.571 472.259 143.413C471.667 143.256 471.061 143.603 470.913 144.186Z" fill="url(#paint21_linear_1715_3955)"/>
<path d="M187.526 146.774C186.477 146.425 185.451 145.983 184.493 145.219C185.677 145.039 186.801 145.153 187.88 145.383C188.285 144.02 188.798 142.686 189.662 141.444C189.81 142.954 189.621 144.375 189.31 145.763C190.36 146.112 191.385 146.554 192.343 147.317C191.159 147.498 190.036 147.383 188.956 147.153C188.551 148.517 188.038 149.851 187.175 151.092C187.04 149.586 187.229 148.166 187.526 146.774Z" fill="url(#paint22_linear_1715_3955)"/>
<path d="M115.154 50.6063C114.277 50.317 113.42 49.9481 112.631 49.3144C113.619 49.1667 114.543 49.2706 115.434 49.4505C115.765 48.3222 116.207 47.2093 116.915 46.1812C117.043 47.4313 116.871 48.6159 116.622 49.7657C117.499 50.055 118.355 50.4239 119.131 51.054C118.143 51.2017 117.215 51.111 116.328 50.9179C115.997 52.0463 115.572 53.1495 114.847 54.1872C114.732 52.9407 114.904 51.7561 115.154 50.6063Z" fill="url(#paint23_linear_1715_3955)"/>
<path d="M207.777 122.228C207.457 123.486 208.23 124.794 209.508 125.134C210.786 125.475 212.095 124.735 212.415 123.477C212.735 122.22 211.962 120.911 210.684 120.571C209.406 120.231 208.11 120.974 207.777 122.228Z" fill="url(#paint24_linear_1715_3955)"/>
<path d="M110.912 128.611C110.592 129.869 111.365 131.177 112.643 131.517C113.921 131.858 115.23 131.118 115.55 129.86C115.87 128.602 115.097 127.294 113.819 126.954C112.531 126.597 111.236 127.34 110.912 128.611Z" fill="url(#paint25_linear_1715_3955)"/>
<path d="M492.474 135.688C492.114 137.104 492.978 138.564 494.417 138.948C495.857 139.331 497.317 138.504 497.677 137.088C498.038 135.671 497.174 134.211 495.734 133.828C494.298 133.431 492.835 134.271 492.474 135.688Z" fill="url(#paint26_linear_1715_3955)"/>
<path d="M176.572 118.901C176.43 119.457 176.777 120.016 177.328 120.162C177.893 120.313 178.452 119.981 178.59 119.439C178.731 118.883 178.385 118.324 177.833 118.177C177.285 118.017 176.713 118.345 176.572 118.901Z" fill="url(#paint27_linear_1715_3955)"/>
<path d="M395.425 99.3288C395.267 99.9509 395.65 100.59 396.269 100.755C396.901 100.923 397.54 100.556 397.695 99.9473C397.854 99.3252 397.471 98.6862 396.852 98.5215C396.236 98.3435 395.597 98.7104 395.425 99.3288Z" fill="url(#paint28_linear_1715_3955)"/>
<defs>
<linearGradient id="paint0_linear_1715_3955" x1="304.204" y1="133.698" x2="681.057" y2="435.035" gradientUnits="userSpaceOnUse">
<stop stop-color="#7517F8"/>
<stop offset="1" stop-color="#E423FF"/>
</linearGradient>
<linearGradient id="paint1_linear_1715_3955" x1="195.033" y1="183.421" x2="400.915" y2="324.877" gradientUnits="userSpaceOnUse">
<stop stop-color="#7517F8"/>
<stop offset="1" stop-color="#E423FF"/>
</linearGradient>
<linearGradient id="paint2_linear_1715_3955" x1="421.012" y1="237.421" x2="600.829" y2="390.733" gradientUnits="userSpaceOnUse">
<stop stop-color="#7517F8"/>
<stop offset="1" stop-color="#E423FF"/>
</linearGradient>
<linearGradient id="paint3_linear_1715_3955" x1="309.645" y1="54.4268" x2="332.141" y2="70.5794" gradientUnits="userSpaceOnUse">
<stop stop-color="#7517F8"/>
<stop offset="1" stop-color="#E423FF"/>
</linearGradient>
<linearGradient id="paint4_linear_1715_3955" x1="291.193" y1="-10.9067" x2="418.962" y2="51.973" gradientUnits="userSpaceOnUse">
<stop stop-color="#7517F8"/>
<stop offset="1" stop-color="#E423FF"/>
</linearGradient>
<linearGradient id="paint5_linear_1715_3955" x1="315.77" y1="246.261" x2="346.866" y2="255.583" gradientUnits="userSpaceOnUse">
<stop stop-color="#7517F8"/>
<stop offset="1" stop-color="#E423FF"/>
</linearGradient>
<linearGradient id="paint6_linear_1715_3955" x1="323.242" y1="256.994" x2="367.779" y2="271.818" gradientUnits="userSpaceOnUse">
<stop stop-color="#7517F8"/>
<stop offset="1" stop-color="#E423FF"/>
</linearGradient>
<linearGradient id="paint7_linear_1715_3955" x1="306.97" y1="242.154" x2="320.487" y2="245.895" gradientUnits="userSpaceOnUse">
<stop stop-color="#7517F8"/>
<stop offset="1" stop-color="#E423FF"/>
</linearGradient>
<linearGradient id="paint8_linear_1715_3955" x1="343.257" y1="-33.4776" x2="453.504" y2="2.28476" gradientUnits="userSpaceOnUse">
<stop stop-color="#7517F8"/>
<stop offset="1" stop-color="#E423FF"/>
</linearGradient>
<linearGradient id="paint9_linear_1715_3955" x1="302.759" y1="131.207" x2="337.023" y2="145.185" gradientUnits="userSpaceOnUse">
<stop stop-color="#7517F8"/>
<stop offset="1" stop-color="#E423FF"/>
</linearGradient>
<linearGradient id="paint10_linear_1715_3955" x1="304.586" y1="226.989" x2="311.366" y2="229.201" gradientUnits="userSpaceOnUse">
<stop stop-color="#7517F8"/>
<stop offset="1" stop-color="#E423FF"/>
</linearGradient>
<linearGradient id="paint11_linear_1715_3955" x1="297.694" y1="226.977" x2="304.474" y2="229.189" gradientUnits="userSpaceOnUse">
<stop stop-color="#7517F8"/>
<stop offset="1" stop-color="#E423FF"/>
</linearGradient>
<linearGradient id="paint12_linear_1715_3955" x1="311.648" y1="227.002" x2="318.429" y2="229.215" gradientUnits="userSpaceOnUse">
<stop stop-color="#7517F8"/>
<stop offset="1" stop-color="#E423FF"/>
</linearGradient>
<linearGradient id="paint13_linear_1715_3955" x1="441.527" y1="207.327" x2="450.873" y2="211.001" gradientUnits="userSpaceOnUse">
<stop stop-color="#7517F8"/>
<stop offset="1" stop-color="#E423FF"/>
</linearGradient>
<linearGradient id="paint14_linear_1715_3955" x1="410.387" y1="132.565" x2="417.139" y2="135.116" gradientUnits="userSpaceOnUse">
<stop stop-color="#7517F8"/>
<stop offset="1" stop-color="#E423FF"/>
</linearGradient>
<linearGradient id="paint15_linear_1715_3955" x1="142.236" y1="72.8577" x2="155.228" y2="77.764" gradientUnits="userSpaceOnUse">
<stop stop-color="#7517F8"/>
<stop offset="1" stop-color="#E423FF"/>
</linearGradient>
<linearGradient id="paint16_linear_1715_3955" x1="186.052" y1="43.777" x2="192.416" y2="46.18" gradientUnits="userSpaceOnUse">
<stop stop-color="#7517F8"/>
<stop offset="1" stop-color="#E423FF"/>
</linearGradient>
<linearGradient id="paint17_linear_1715_3955" x1="396.051" y1="163.683" x2="408.002" y2="168.196" gradientUnits="userSpaceOnUse">
<stop stop-color="#7517F8"/>
<stop offset="1" stop-color="#E423FF"/>
</linearGradient>
<linearGradient id="paint18_linear_1715_3955" x1="487.712" y1="195.643" x2="490.155" y2="196.643" gradientUnits="userSpaceOnUse">
<stop stop-color="#7517F8"/>
<stop offset="1" stop-color="#E423FF"/>
</linearGradient>
<linearGradient id="paint19_linear_1715_3955" x1="166.771" y1="53.7352" x2="169.061" y2="54.6728" gradientUnits="userSpaceOnUse">
<stop stop-color="#7517F8"/>
<stop offset="1" stop-color="#E423FF"/>
</linearGradient>
<linearGradient id="paint20_linear_1715_3955" x1="388.165" y1="152.772" x2="390.607" y2="153.772" gradientUnits="userSpaceOnUse">
<stop stop-color="#7517F8"/>
<stop offset="1" stop-color="#E423FF"/>
</linearGradient>
<linearGradient id="paint21_linear_1715_3955" x1="472.023" y1="141.711" x2="474.466" y2="142.711" gradientUnits="userSpaceOnUse">
<stop stop-color="#7517F8"/>
<stop offset="1" stop-color="#E423FF"/>
</linearGradient>
<linearGradient id="paint22_linear_1715_3955" x1="189.146" y1="133.834" x2="198.18" y2="137.247" gradientUnits="userSpaceOnUse">
<stop stop-color="#7517F8"/>
<stop offset="1" stop-color="#E423FF"/>
</linearGradient>
<linearGradient id="paint23_linear_1715_3955" x1="116.489" y1="39.8658" x2="123.972" y2="42.6905" gradientUnits="userSpaceOnUse">
<stop stop-color="#7517F8"/>
<stop offset="1" stop-color="#E423FF"/>
</linearGradient>
<linearGradient id="paint24_linear_1715_3955" x1="210.169" y1="116.898" x2="215.436" y2="119.055" gradientUnits="userSpaceOnUse">
<stop stop-color="#7517F8"/>
<stop offset="1" stop-color="#E423FF"/>
</linearGradient>
<linearGradient id="paint25_linear_1715_3955" x1="113.305" y1="123.281" x2="118.571" y2="125.437" gradientUnits="userSpaceOnUse">
<stop stop-color="#7517F8"/>
<stop offset="1" stop-color="#E423FF"/>
</linearGradient>
<linearGradient id="paint26_linear_1715_3955" x1="495.158" y1="129.708" x2="501.066" y2="132.127" gradientUnits="userSpaceOnUse">
<stop stop-color="#7517F8"/>
<stop offset="1" stop-color="#E423FF"/>
</linearGradient>
<linearGradient id="paint27_linear_1715_3955" x1="177.613" y1="116.581" x2="179.903" y2="117.519" gradientUnits="userSpaceOnUse">
<stop stop-color="#7517F8"/>
<stop offset="1" stop-color="#E423FF"/>
</linearGradient>
<linearGradient id="paint28_linear_1715_3955" x1="396.596" y1="96.7214" x2="399.176" y2="97.7779" gradientUnits="userSpaceOnUse">
<stop stop-color="#7517F8"/>
<stop offset="1" stop-color="#E423FF"/>
</linearGradient>
</defs>
</svg>
