<svg width="29" height="29" viewBox="0 0 29 29" fill="none" xmlns="http://www.w3.org/2000/svg">
<path d="M7.7835 7.30664C6.19672 7.30664 4.90576 8.42203 4.90576 9.79309C4.90576 11.1641 6.19672 12.2795 7.7835 12.2795C9.37029 12.2795 10.6612 11.1641 10.6612 9.79309C10.6612 8.42203 9.37029 7.30664 7.7835 7.30664ZM7.7835 11.4379C6.66519 11.4379 5.75531 10.7001 5.75531 9.79309C5.75531 8.8861 6.66519 8.14825 7.7835 8.14825C8.90182 8.14825 9.81169 8.8861 9.81169 9.79309C9.81169 10.7001 8.90182 11.4379 7.7835 11.4379Z" fill="white"/>
<path d="M1.71729 15.1993C1.71729 16.5704 2.84313 17.6858 4.22703 17.6858C5.61093 17.6858 6.73678 16.5704 6.73678 15.1993C6.73678 13.8283 5.61093 12.7129 4.22703 12.7129C2.84313 12.7129 1.71729 13.8283 1.71729 15.1993V15.1993ZM5.88728 15.1993C5.88728 16.1063 5.14251 16.8442 4.22703 16.8442C3.31155 16.8442 2.56678 16.1063 2.56678 15.1993C2.56678 14.2924 3.31155 13.5545 4.22703 13.5545C5.14251 13.5545 5.88728 14.2924 5.88728 15.1993Z" fill="white"/>
<path d="M7.41551 18.4854C6.03161 18.4854 4.90576 19.6008 4.90576 20.9719C4.90576 22.3429 6.03161 23.4583 7.41551 23.4583C8.79941 23.4583 9.92531 22.3429 9.92531 20.9719C9.92531 19.6008 8.79941 18.4854 7.41551 18.4854ZM7.41551 22.6167C6.50008 22.6167 5.75526 21.8788 5.75526 20.9719C5.75526 20.0649 6.50002 19.327 7.41551 19.327C8.33099 19.327 9.07581 20.0648 9.07581 20.9719C9.07576 21.8788 8.33099 22.6167 7.41551 22.6167Z" fill="white"/>
<path d="M15.9351 23.2804C15.9351 21.9093 14.8092 20.7939 13.4253 20.7939C12.0414 20.7939 10.9155 21.9093 10.9155 23.2804C10.9155 24.6514 12.0414 25.7669 13.4253 25.7669C14.8092 25.7669 15.9351 24.6514 15.9351 23.2804ZM11.765 23.2804C11.765 22.3735 12.5098 21.6356 13.4253 21.6356C14.3408 21.6356 15.0856 22.3734 15.0856 23.2804C15.0856 24.1874 14.3408 24.9253 13.4253 24.9253C12.5098 24.9252 11.765 24.1874 11.765 23.2804Z" fill="white"/>
<path d="M22.0064 20.3029C22.0064 18.9318 20.8805 17.8164 19.4966 17.8164C18.1127 17.8164 16.9868 18.9318 16.9868 20.3029C16.9868 21.6739 18.1127 22.7894 19.4966 22.7894C20.8805 22.7894 22.0064 21.6739 22.0064 20.3029ZM17.8364 20.3029C17.8364 19.3959 18.5811 18.658 19.4966 18.658C20.4121 18.658 21.1569 19.3959 21.1569 20.3029C21.1569 21.2098 20.4122 21.9478 19.4966 21.9478C18.5811 21.9478 17.8364 21.2099 17.8364 20.3029Z" fill="white"/>
<path d="M28.7587 18.5796L23.2525 10.2867C23.1236 10.0925 22.8602 10.0386 22.6642 10.1664C22.4682 10.2941 22.4139 10.5551 22.5428 10.7493L28.05 19.0438C28.2262 19.3067 28.1604 19.6552 27.9 19.8372C27.6397 20.0191 27.286 19.9636 27.0942 19.7094L19.7257 10.0382C19.5843 9.85283 19.318 9.81591 19.1307 9.95586C18.9435 10.0959 18.9063 10.3598 19.0476 10.5453L21.1604 13.3184C17.3516 13.252 15.1817 11.6052 15.1605 11.5888C15.1587 11.5875 15.1569 11.586 15.155 11.5846C13.8364 10.587 12.9168 9.38321 12.422 8.00649C12.0519 6.97706 12.0712 6.23001 12.0714 6.224C12.0716 6.21856 12.0718 6.21323 12.0718 6.20779C12.0718 4.70739 11.2467 3.84541 9.80795 3.84277C9.80659 3.84277 9.80523 3.84277 9.80387 3.84277C8.80546 3.84277 7.82462 4.26431 7.73677 4.30297C5.84593 5.09812 4.15538 6.36362 2.848 7.96278C2.70034 8.14335 2.72844 8.40838 2.9107 8.55467C3.09309 8.70091 3.36049 8.67308 3.50815 8.49255C4.72915 6.999 6.30733 5.81773 8.07202 5.07634C8.07497 5.07511 8.07786 5.07388 8.08063 5.07258C8.08936 5.06871 8.96021 4.68444 9.80347 4.68444H9.8067C10.7704 4.68618 11.2203 5.16826 11.2223 6.20128C11.2154 6.43954 11.1908 9.64313 14.6371 12.2519C14.7747 12.3586 17.1651 14.1624 21.3973 14.1624C21.4552 14.1624 21.5197 14.1617 21.5898 14.161C21.6557 14.1603 21.7267 14.1596 21.8011 14.1593L24.4118 17.5858C23.5907 23.3404 18.582 27.659 12.6896 27.659C6.16103 27.659 0.849553 22.3968 0.849553 15.9288C0.849553 13.8805 1.38922 11.8597 2.41023 10.0847C2.5264 9.88274 2.45531 9.62574 2.25152 9.5107C2.04756 9.39561 1.78831 9.46615 1.67214 9.66793C0.578187 11.5696 0 13.7345 0 15.9287C0 19.2867 1.3199 22.4438 3.71659 24.8182C6.11328 27.1928 9.29999 28.5005 12.6896 28.5005C18.7282 28.5005 23.901 24.2679 25.1118 18.5045L26.4149 20.2149C26.6976 20.5892 27.1256 20.7872 27.561 20.7872C27.847 20.7872 28.1362 20.7018 28.3895 20.5249C29.0284 20.0785 29.1902 19.2233 28.7587 18.5796V18.5796Z" fill="white"/>
<path d="M15.6758 6.03003L17.8492 8.97303C17.9905 9.15843 18.2569 9.19536 18.4442 9.05541C18.6314 8.91534 18.6686 8.65143 18.5273 8.46598L17.5996 7.24828L19.3882 5.99861L21.4384 9.08627C21.52 9.20916 21.6555 9.27588 21.7936 9.27588C21.8737 9.27588 21.9547 9.25349 22.0267 9.20658C22.2227 9.07886 22.277 8.81793 22.1481 8.62371L18.8759 3.79436C18.8843 3.44398 18.8146 2.65422 18.1591 1.73327C17.1673 0.339994 15.3003 0.144434 15.1137 0.128273L14.1328 0.00352968C13.9657 -0.0180745 13.8018 0.0608229 13.7148 0.203803C13.6279 0.346784 13.6345 0.527081 13.7316 0.663496L13.9536 0.975438C13.8616 0.956247 13.7649 0.967638 13.6792 1.00933C13.5696 1.06253 13.4884 1.15983 13.4563 1.27649C13.4345 1.35573 12.9343 3.23288 13.9568 4.66931C14.6122 5.59015 15.3398 5.92027 15.6758 6.03003V6.03003ZM17.0985 6.56845L16.5278 5.76674L18.3394 4.50107L18.91 5.30279L17.0985 6.56845ZM14.2144 1.81643C14.3861 1.77496 14.544 1.67794 14.6619 1.53204C14.8012 1.3596 14.861 1.14827 14.8399 0.941881C14.8399 0.941881 16.6704 1.1022 17.4648 2.21821C17.9405 2.88648 18.0211 3.43102 18.0283 3.68853L15.8597 5.20357C15.6173 5.11048 15.1267 4.85235 14.651 4.18414C14.0778 3.379 14.1374 2.33364 14.2144 1.81643V1.81643Z" fill="white"/>
</svg>
