<svg width="25" height="26" viewBox="0 0 25 26" fill="none" xmlns="http://www.w3.org/2000/svg">
<path d="M24.2858 7.0558C24.2858 5.92493 23.3658 5.00501 22.235 5.00501C21.6544 5.00501 21.1297 5.24801 20.7562 5.63711L12.7531 1.01655C12.6021 0.92938 12.4161 0.92938 12.265 1.01655L4.26179 5.63711C3.88833 5.24801 3.36381 5.00501 2.78321 5.00501C1.65234 5.00501 0.732422 5.92493 0.732422 7.0558C0.732422 8.01825 1.39904 8.82754 2.29493 9.04727V18.2852C2.29493 18.4595 2.38801 18.6207 2.53907 18.708L10.5397 23.3273C10.4866 23.5092 10.4576 23.7015 10.4576 23.9004C10.4576 25.0311 11.3776 25.9512 12.5084 25.9512C13.6391 25.9512 14.559 25.0311 14.559 23.9004C14.559 23.7017 14.5302 23.5098 14.4772 23.3278L22.4791 18.708C22.6302 18.6209 22.7233 18.4595 22.7233 18.2852V9.04727C23.6191 8.82754 24.2858 8.01825 24.2858 7.0558ZM1.70899 7.0558C1.70899 6.46338 2.19078 5.98158 2.78321 5.98158C3.37544 5.98158 3.85724 6.46338 3.85724 7.0558C3.85724 7.64804 3.37544 8.13002 2.78321 8.13002C2.19078 8.13002 1.70899 7.64804 1.70899 7.0558ZM12.5084 24.9746C11.916 24.9746 11.4342 24.4928 11.4342 23.9004C11.4342 23.3082 11.916 22.8262 12.5084 22.8262C13.1007 22.8262 13.5826 23.3082 13.5826 23.9004C13.5826 24.4928 13.1007 24.9746 12.5084 24.9746ZM13.9881 22.4827C13.6145 22.093 13.0896 21.8496 12.5084 21.8496C11.9276 21.8496 11.4027 22.0928 11.0293 22.4821L3.27149 18.0033V9.04727C4.16718 8.82754 4.83381 8.01825 4.83381 7.0558C4.83381 6.85667 4.80481 6.66422 4.7516 6.48188L12.509 2.00322L20.2666 6.48188C20.2134 6.66422 20.1844 6.85648 20.1844 7.0558C20.1844 8.01825 20.851 8.82754 21.7467 9.04727V18.0033L13.9881 22.4827ZM22.235 8.13002C21.6427 8.13002 21.1608 7.64804 21.1608 7.0558C21.1608 6.46338 21.6427 5.98158 22.235 5.98158C22.8274 5.98158 23.3092 6.46338 23.3092 7.0558C23.3092 7.64804 22.8274 8.13002 22.235 8.13002Z" fill="#72849F"/>
<path d="M19.1986 8.52569L12.7532 4.80463C12.6022 4.71747 12.4162 4.71747 12.2652 4.80463L5.81982 8.52569C5.66876 8.61305 5.57568 8.77422 5.57568 8.94855V16.3909C5.57568 16.5652 5.66876 16.7266 5.81982 16.8137L12.2652 20.535C12.3407 20.5785 12.4248 20.6004 12.5091 20.6004C12.5936 20.6004 12.6777 20.5785 12.7532 20.535L19.1986 16.8137C19.3496 16.7266 19.4427 16.5652 19.4427 16.3909V8.94855C19.4427 8.77422 19.3496 8.61305 19.1986 8.52569ZM12.5091 5.79131L17.9779 8.94855L12.5091 12.106L7.04053 8.94855L12.5091 5.79131ZM12.9974 19.2664V17.0643C12.9974 16.7946 12.7788 16.5761 12.5091 16.5761C12.2396 16.5761 12.021 16.7946 12.021 17.0643V19.2664L6.55225 16.109V9.79427L12.2652 13.0927C12.3407 13.1361 12.4248 13.1581 12.5091 13.1581C12.5936 13.1581 12.6777 13.1361 12.7532 13.0927L18.4662 9.79427V16.109L12.9974 19.2664Z" fill="#72849F"/>
<path d="M12.5089 14.3789C12.3799 14.3789 12.2544 14.431 12.1631 14.522C12.0723 14.6127 12.02 14.7386 12.02 14.8672C12.02 14.9956 12.0723 15.1214 12.1631 15.2122C12.2544 15.3032 12.3799 15.3555 12.5089 15.3555C12.6372 15.3555 12.7633 15.3032 12.8541 15.2122C12.9449 15.1214 12.9972 14.9956 12.9972 14.8672C12.9972 14.7386 12.9449 14.6127 12.8541 14.522C12.7633 14.431 12.6372 14.3789 12.5089 14.3789Z" fill="#72849F"/>
</svg>
