<svg width="14" height="14" viewBox="0 0 14 14" fill="none" xmlns="http://www.w3.org/2000/svg">
<path d="M12.3594 14H4.92188C4.01714 14 3.28125 13.2641 3.28125 12.3594V4.92188C3.28125 4.01714 4.01714 3.28125 4.92188 3.28125H12.3594C13.2641 3.28125 14 4.01714 14 4.92188V12.3594C14 13.2641 13.2641 14 12.3594 14ZM4.92188 4.375C4.62032 4.375 4.375 4.62032 4.375 4.92188V12.3594C4.375 12.6609 4.62032 12.9062 4.92188 12.9062H12.3594C12.6609 12.9062 12.9062 12.6609 12.9062 12.3594V4.92188C12.9062 4.62032 12.6609 4.375 12.3594 4.375H4.92188ZM2.1875 9.625H1.64062C1.33907 9.625 1.09375 9.37967 1.09375 9.07812V1.64062C1.09375 1.33907 1.33907 1.09375 1.64062 1.09375H9.07812C9.37967 1.09375 9.625 1.33907 9.625 1.64062V2.16016H10.7188V1.64062C10.7188 0.735889 9.98286 0 9.07812 0H1.64062C0.735889 0 0 0.735889 0 1.64062V9.07812C0 9.98286 0.735889 10.7188 1.64062 10.7188H2.1875V9.625Z" fill="#7D97BD"/>
</svg>
