<svg width="30" height="30" viewBox="0 0 30 30" fill="none" xmlns="http://www.w3.org/2000/svg">
<path d="M4.56875 26.25H25.4312C25.8136 26.2484 26.1799 26.0957 26.4503 25.8253C26.7207 25.5549 26.8734 25.1886 26.875 24.8062V5.19375C26.8734 4.81135 26.7207 4.44508 26.4503 4.17468C26.1799 3.90428 25.8136 3.75164 25.4312 3.75H4.56875C4.18635 3.75164 3.82008 3.90428 3.54968 4.17468C3.27928 4.44508 3.12664 4.81135 3.125 5.19375V24.8062C3.12664 25.1886 3.27928 25.5549 3.54968 25.8253C3.82008 26.0957 4.18635 26.2484 4.56875 26.25ZM4.375 5.19375C4.375 5.14236 4.39541 5.09308 4.43175 5.05675C4.46808 5.02041 4.51736 5 4.56875 5H25.4312C25.4826 5 25.5319 5.02041 25.5682 5.05675C25.6046 5.09308 25.625 5.14236 25.625 5.19375V24.8062C25.625 24.8576 25.6046 24.9069 25.5682 24.9433C25.5319 24.9796 25.4826 25 25.4312 25H4.56875C4.51736 25 4.46808 24.9796 4.43175 24.9433C4.39541 24.9069 4.375 24.8576 4.375 24.8062V5.19375Z" fill="#72849F"/>
<path d="M9.375 20H21.25C21.4158 20 21.5747 19.9342 21.6919 19.8169C21.8091 19.6997 21.875 19.5408 21.875 19.375C21.875 19.2092 21.8091 19.0503 21.6919 18.9331C21.5747 18.8158 21.4158 18.75 21.25 18.75H9.375C9.20924 18.75 9.05027 18.8158 8.93306 18.9331C8.81585 19.0503 8.75 19.2092 8.75 19.375C8.75 19.5408 8.81585 19.6997 8.93306 19.8169C9.05027 19.9342 9.20924 20 9.375 20Z" fill="#72849F"/>
<path d="M19.375 21.25H11.25C11.0842 21.25 10.9253 21.3158 10.8081 21.4331C10.6908 21.5503 10.625 21.7092 10.625 21.875C10.625 22.0408 10.6908 22.1997 10.8081 22.3169C10.9253 22.4342 11.0842 22.5 11.25 22.5H19.375C19.5408 22.5 19.6997 22.4342 19.8169 22.3169C19.9342 22.1997 20 22.0408 20 21.875C20 21.7092 19.9342 21.5503 19.8169 21.4331C19.6997 21.3158 19.5408 21.25 19.375 21.25Z" fill="#72849F"/>
<path d="M10.625 17.5H19.375C19.5408 17.5 19.6997 17.4342 19.8169 17.3169C19.9342 17.1997 20 17.0408 20 16.875V8.125C20 7.95924 19.9342 7.80027 19.8169 7.68306C19.6997 7.56585 19.5408 7.5 19.375 7.5H10.625C10.4592 7.5 10.3003 7.56585 10.1831 7.68306C10.0658 7.80027 10 7.95924 10 8.125V16.875C10 17.0408 10.0658 17.1997 10.1831 17.3169C10.3003 17.4342 10.4592 17.5 10.625 17.5ZM11.25 8.75H18.75V16.25H11.25V8.75Z" fill="#72849F"/>
</svg>
