<svg width="17" height="17" viewBox="0 0 17 17" fill="none" xmlns="http://www.w3.org/2000/svg">
<path d="M15.4546 0H1.54547C0.693499 0 0 0.693099 0 1.54546V15.4545C0 16.3069 0.693499 17 1.54547 17H15.4546C16.3065 17 17 16.3069 17 15.4545V1.54546C17 0.693099 16.3065 0 15.4546 0ZM5.02274 1.54546C5.23612 1.54546 5.40912 1.71842 5.40912 1.93184C5.40912 2.14522 5.23612 2.31821 5.02274 2.31821C4.80936 2.31821 4.63637 2.14518 4.63637 1.9318C4.63637 1.71839 4.80936 1.54546 5.02274 1.54546ZM3.47727 1.54546C3.69066 1.54546 3.86365 1.71842 3.86365 1.93184C3.86365 2.14518 3.69066 2.31818 3.47727 2.31818C3.26389 2.31818 3.0909 2.14518 3.0909 1.9318C3.0909 1.71839 3.26389 1.54546 3.47727 1.54546ZM1.93181 1.54546C2.14519 1.54546 2.31818 1.71839 2.31818 1.9318C2.31818 2.14518 2.14519 2.31818 1.93181 2.31818C1.71843 2.31818 1.54543 2.14518 1.54543 1.9318C1.54547 1.71839 1.71846 1.54546 1.93181 1.54546ZM10.0454 15.4545H1.54547V8.5H10.0455V15.4545H10.0454ZM15.4546 15.4545H11.5909V8.5H15.4546V15.4545ZM15.4546 6.95453H1.54547V3.86364H15.4546V6.95453Z" fill="#424D5C"/>
</svg>
