<svg width="20" height="17" viewBox="0 0 20 17" fill="none" xmlns="http://www.w3.org/2000/svg">
<path d="M1.06918 6.87711C1.86523 4.14203 2.76297 2.72883 2.77746 2.70348C2.82863 2.64101 4.09723 1.12289 7.15477 0L7.55879 1.1C6.10422 1.63422 5.07227 2.28594 4.50473 2.70703C6.1991 2.20105 8.21477 1.89117 10 1.89117C11.7852 1.89117 13.8009 2.20105 15.4953 2.70703C14.9278 2.28598 13.8958 1.63422 12.4412 1.1L12.8453 0C15.9027 1.12289 17.1713 2.64101 17.2225 2.70348C17.237 2.72883 18.1348 4.14203 18.9308 6.87711C19.698 9.51289 19.9894 13.2312 20 13.3803C19.9316 13.4872 18.3594 16.1716 14.0745 16.1716L12.9884 14.5988C14.2052 14.2757 15.3655 13.7547 16.4276 13.0477L15.7782 12.0722C14.0648 13.2127 12.0667 13.8156 10 13.8156C7.93332 13.8156 5.93523 13.2127 4.22176 12.0722L3.57242 13.0477C4.63449 13.7547 5.79481 14.2757 7.0116 14.5988L5.92551 16.1716C1.64062 16.1716 0.0683594 13.4872 0 13.3803C0.0105858 13.2312 0.302031 9.51289 1.06918 6.87711ZM12.7093 9.94281H13.8812V7.98968H12.7093V9.94281ZM6.11883 9.94281H7.2907V7.98968H6.11883V9.94281Z" fill="#424D5C"/>
</svg>
