<svg width="30" height="30" viewBox="0 0 30 30" fill="none" xmlns="http://www.w3.org/2000/svg">
<path d="M15 29C22.732 29 29 22.732 29 15C29 7.26801 22.732 1 15 1C7.26801 1 1 7.26801 1 15C1 22.732 7.26801 29 15 29Z" stroke="#F952FE"/>
<path d="M15.1626 10.788C16.6525 10.788 17.8603 9.58022 17.8603 8.0903C17.8603 6.60039 16.6525 5.39258 15.1626 5.39258C13.6727 5.39258 12.4648 6.60039 12.4648 8.0903C12.4648 9.58022 13.6727 10.788 15.1626 10.788Z" stroke="#F952FE"/>
<path d="M21.2319 15.5136C22.7218 15.5136 23.9296 14.3058 23.9296 12.8159C23.9296 11.326 22.7218 10.1182 21.2319 10.1182C19.742 10.1182 18.5342 11.326 18.5342 12.8159C18.5342 14.3058 19.742 15.5136 21.2319 15.5136Z" stroke="#F952FE"/>
<path d="M9.09421 15.5136C10.5841 15.5136 11.7919 14.3058 11.7919 12.8159C11.7919 11.326 10.5841 10.1182 9.09421 10.1182C7.6043 10.1182 6.39648 11.326 6.39648 12.8159C6.39648 14.3058 7.6043 15.5136 9.09421 15.5136Z" stroke="#F952FE"/>
<path d="M11.1162 22.9316C12.6061 22.9316 13.8139 21.7238 13.8139 20.2339C13.8139 18.7439 12.6061 17.5361 11.1162 17.5361C9.62627 17.5361 8.41846 18.7439 8.41846 20.2339C8.41846 21.7238 9.62627 22.9316 11.1162 22.9316Z" stroke="#F952FE"/>
<path d="M19.2094 22.9316C20.6994 22.9316 21.9072 21.7238 21.9072 20.2339C21.9072 18.7439 20.6994 17.5361 19.2094 17.5361C17.7195 17.5361 16.5117 18.7439 16.5117 20.2339C16.5117 21.7238 17.7195 22.9316 19.2094 22.9316Z" stroke="#F952FE"/>
<path d="M15 29H28" stroke="#F952FE" stroke-linecap="round"/>
</svg>
