<svg width="24" height="25" viewBox="0 0 24 25" fill="none" xmlns="http://www.w3.org/2000/svg">
<path d="M12.0001 0.988281C5.3735 0.988281 -3.12564e-08 6.49675 -6.98148e-08 13.2921C-1.00661e-07 18.7282 3.43839 23.3402 8.2064 24.9671C8.80613 25.081 9.02631 24.7002 9.02631 24.3753C9.02631 24.0819 9.01518 23.1126 9.01001 22.0845C5.67157 22.8288 4.96712 20.6328 4.96712 20.6328C4.42125 19.2107 3.63473 18.8326 3.63473 18.8326C2.54596 18.0689 3.7168 18.0846 3.7168 18.0846C4.92181 18.1714 5.55632 19.3525 5.55632 19.3525C6.6266 21.2335 8.36359 20.6897 9.04836 20.3753C9.15607 19.5801 9.46706 19.0373 9.81024 18.7301C7.14486 18.4189 4.34295 17.3639 4.34295 12.6495C4.34295 11.3062 4.81172 10.2086 5.57937 9.34696C5.45477 9.03706 5.04402 7.78565 5.69562 6.09089C5.69562 6.09089 6.70331 5.76021 8.9965 7.35208C9.95372 7.07947 10.9803 6.94275 12.0001 6.93807C13.0199 6.94275 14.0473 7.07947 15.0063 7.35208C17.2967 5.76021 18.303 6.09089 18.303 6.09089C18.9562 7.78565 18.5452 9.03706 18.4206 9.34696C19.1901 10.2086 19.6557 11.3062 19.6557 12.6495C19.6557 17.3752 16.8484 18.4157 14.1762 18.7203C14.6067 19.1021 14.9902 19.8509 14.9902 20.9988C14.9902 22.645 14.9763 23.97 14.9763 24.3753C14.9763 24.7027 15.1923 25.0863 15.8006 24.9655C20.566 23.3368 24 18.7264 24 13.2921C24 6.49675 18.6273 0.988281 12.0001 0.988281Z" fill="#FEFEFE"/>
<path d="M4.58043 18.5694C4.55405 18.63 4.46043 18.6481 4.37514 18.6066C4.28827 18.5668 4.23947 18.4843 4.26764 18.4236C4.29342 18.3612 4.38724 18.3439 4.47392 18.3857C4.56099 18.4254 4.61058 18.5087 4.58043 18.5694Z" fill="#FEFEFE"/>
<path d="M5.06559 19.1198C5.00846 19.1736 4.89679 19.1486 4.82103 19.0635C4.74268 18.9786 4.728 18.865 4.78592 18.8103C4.84483 18.7564 4.95312 18.7817 5.03167 18.8666C5.11002 18.9525 5.12529 19.0653 5.06559 19.1198Z" fill="#FEFEFE"/>
<path d="M5.53784 19.8214C5.46445 19.8733 5.34445 19.8246 5.27027 19.7163C5.19688 19.608 5.19688 19.4781 5.27186 19.426C5.34624 19.374 5.46445 19.4208 5.53963 19.5283C5.61282 19.6384 5.61282 19.7684 5.53784 19.8214Z" fill="#FEFEFE"/>
<path d="M6.18485 20.4992C6.1192 20.5729 5.97936 20.5531 5.87701 20.4526C5.77229 20.3544 5.74313 20.215 5.80898 20.1414C5.87543 20.0675 6.01606 20.0883 6.1192 20.188C6.22313 20.286 6.25487 20.4264 6.18485 20.4992Z" fill="#FEFEFE"/>
<path d="M7.07741 20.8928C7.04845 20.9883 6.91377 21.0316 6.7781 20.9911C6.64263 20.9493 6.55397 20.8376 6.58134 20.7411C6.60951 20.6451 6.74478 20.5999 6.88144 20.6433C7.01672 20.6848 7.10558 20.7958 7.07741 20.8928Z" fill="#FEFEFE"/>
<path d="M8.05764 20.9659C8.06101 21.0663 7.94597 21.1496 7.80356 21.1515C7.66035 21.1547 7.54452 21.0734 7.54293 20.9745C7.54293 20.8731 7.65539 20.7906 7.7986 20.7881C7.94101 20.7853 8.05764 20.866 8.05764 20.9659Z" fill="#FEFEFE"/>
<path d="M8.96985 20.8079C8.98691 20.9059 8.88793 21.0066 8.74651 21.0334C8.60747 21.0593 8.47874 20.9987 8.46109 20.9015C8.44383 20.801 8.54459 20.7004 8.68344 20.6744C8.82506 20.6493 8.9518 20.7082 8.96985 20.8079Z" fill="#FEFEFE"/>
</svg>
