<svg width="32" height="32" viewBox="0 0 32 32" fill="none" xmlns="http://www.w3.org/2000/svg">
<path fill-rule="evenodd" clip-rule="evenodd" d="M21.0804 17.626C21.2442 17.1135 21.3327 16.5672 21.3327 16.0003C21.3327 13.0548 18.9449 10.667 15.9993 10.667C15.4324 10.667 14.8862 10.7554 14.3736 10.9193L15.1957 11.7414C15.4561 11.6925 15.7248 11.667 15.9993 11.667C18.3926 11.667 20.3327 13.6071 20.3327 16.0003C20.3327 16.2749 20.3071 16.5436 20.2583 16.804L21.0804 17.626ZM12.5668 13.3551C12.002 14.0869 11.666 15.0044 11.666 16.0003C11.666 18.3936 13.6061 20.3337 15.9993 20.3337C16.9953 20.3337 17.9127 19.9977 18.6446 19.4329L19.3564 20.1448C18.4398 20.8882 17.2716 21.3337 15.9993 21.3337C13.0538 21.3337 10.666 18.9458 10.666 16.0003C10.666 14.7281 11.1115 13.5599 11.8549 12.6432L12.5668 13.3551Z" fill="white"/>
<path fill-rule="evenodd" clip-rule="evenodd" d="M24.294 20.8405C25.7444 19.5848 26.8833 18.2725 27.5897 17.384L27.6494 17.3092C27.974 16.9029 28.2738 16.5277 28.2738 16C28.2738 15.4723 27.974 15.0971 27.6494 14.6908L27.5897 14.616C26.7086 13.5078 25.1548 11.7403 23.1628 10.2458C21.1759 8.75513 18.7047 7.5 15.9992 7.5C14.5462 7.5 13.1608 7.86202 11.8816 8.42811L12.6447 9.19114C13.7141 8.76072 14.8406 8.5 15.9992 8.5C18.3984 8.5 20.6597 9.61797 22.5627 11.0457C24.4605 12.4695 25.9539 14.1655 26.807 15.2383C27.2277 15.7674 27.2738 15.8617 27.2738 16C27.2738 16.1383 27.2277 16.2326 26.807 16.7617C26.1137 17.6335 24.9975 18.917 23.585 20.1315L24.294 20.8405ZM21.8582 22.6473L21.1304 21.9195C19.5639 22.8552 17.8213 23.5 15.9992 23.5C13.6 23.5 11.3387 22.382 9.43573 20.9543C7.5379 19.5305 6.04447 17.8345 5.19144 16.7617C4.77074 16.2326 4.72461 16.1383 4.72461 16C4.72461 15.8617 4.77074 15.7674 5.19144 15.2383C6.04447 14.1655 7.5379 12.4695 9.43573 11.0457C9.59198 10.9284 9.75064 10.8133 9.9116 10.7007L9.19415 9.98326C9.07297 10.0698 8.95343 10.1574 8.8356 10.2458C6.84359 11.7403 5.28981 13.5078 4.40872 14.616L4.34902 14.6908C4.02439 15.0971 3.72461 15.4723 3.72461 16C3.72461 16.5277 4.02439 16.9029 4.34901 17.3092L4.40872 17.384C5.28981 18.4922 6.84359 20.2597 8.8356 21.7542C10.8225 23.2449 13.2937 24.5 15.9992 24.5C18.1402 24.5 20.1345 23.714 21.8582 22.6473Z" fill="white"/>
<path d="M6.66602 2.66699L27.9993 24.0003" stroke="white"/>
</svg>
