<svg width="15" height="15" viewBox="0 0 15 15" fill="none" xmlns="http://www.w3.org/2000/svg">
<path d="M2.61094 0.46875H12.3891C12.9568 0.469988 13.501 0.69608 13.9025 1.09755C14.3039 1.49902 14.53 2.04317 14.5312 2.61094V12.3891C14.53 12.9568 14.3039 13.501 13.9025 13.9024C13.501 14.3039 12.9568 14.53 12.3891 14.5312H2.61094C2.04317 14.53 1.49902 14.3039 1.09755 13.9024C0.69608 13.501 0.469988 12.9568 0.46875 12.3891V2.61094C0.469988 2.04317 0.69608 1.49902 1.09755 1.09755C1.49902 0.69608 2.04317 0.469988 2.61094 0.46875ZM12.3891 1.40625H2.61094C2.29143 1.40625 1.98502 1.53317 1.75909 1.75909C1.53317 1.98502 1.40625 2.29143 1.40625 2.61094V8.86875L3.45469 7.40156C3.74682 7.19462 4.09848 7.0886 4.45631 7.0996C4.81415 7.11059 5.15863 7.23801 5.4375 7.4625L7.5 9.12656L9.13594 7.37344C9.44684 7.05042 9.8671 6.85506 10.3145 6.82558C10.7618 6.7961 11.2041 6.93463 11.5547 7.21406L13.5938 8.87344V2.61094C13.5938 2.29143 13.4668 1.98502 13.2409 1.75909C13.015 1.53317 12.7086 1.40625 12.3891 1.40625ZM13.5938 12.3891V10.0781L10.9547 7.94063C10.787 7.81186 10.5784 7.74806 10.3673 7.76098C10.1563 7.7739 9.957 7.86268 9.80625 8.01094L4.58906 13.5938H12.3891C12.7086 13.5938 13.015 13.4668 13.2409 13.2409C13.4668 13.015 13.5938 12.7086 13.5938 12.3891ZM2.61094 13.5938H3.30937L6.84375 9.81094L4.84688 8.19375C4.72927 8.09616 4.58255 8.04044 4.42981 8.03534C4.27707 8.03025 4.12697 8.07608 4.00313 8.16563L1.40625 10.0406V12.4078C1.41117 12.7241 1.54027 13.0257 1.76566 13.2476C1.99105 13.4694 2.29466 13.5938 2.61094 13.5938Z" fill="white"/>
</svg>
