<svg width="18" height="18" viewBox="0 0 18 18" fill="none" xmlns="http://www.w3.org/2000/svg">
<path fill-rule="evenodd" clip-rule="evenodd" d="M9.00093 0.455078C6.68339 0.455078 6.39255 0.465212 5.48232 0.506634C4.57386 0.548235 3.95377 0.692058 3.41118 0.903083C2.84993 1.12104 2.37384 1.4126 1.89952 1.88709C1.42485 2.36141 1.13329 2.8375 0.914624 3.39858C0.703066 3.94134 0.559064 4.56161 0.518175 5.46971C0.477464 6.37994 0.466797 6.67096 0.466797 8.9885C0.466797 11.306 0.477108 11.596 0.518353 12.5062C0.560131 13.4147 0.703955 14.0348 0.914801 14.5774C1.13294 15.1386 1.4245 15.6147 1.89899 16.089C2.37313 16.5637 2.84922 16.856 3.41012 17.0739C3.95306 17.2849 4.57333 17.4288 5.4816 17.4704C6.39184 17.5118 6.68251 17.5219 8.99986 17.5219C11.3176 17.5219 11.6075 17.5118 12.5178 17.4704C13.4262 17.4288 14.047 17.2849 14.59 17.0739C15.151 16.856 15.6264 16.5637 16.1006 16.089C16.5752 15.6147 16.8668 15.1386 17.0855 14.5775C17.2952 14.0348 17.4392 13.4145 17.4819 12.5064C17.5228 11.5962 17.5335 11.306 17.5335 8.9885C17.5335 6.67096 17.5228 6.38012 17.4819 5.46989C17.4392 4.56143 17.2952 3.94134 17.0855 3.39875C16.8668 2.8375 16.5752 2.36141 16.1006 1.88709C15.6259 1.41242 15.1512 1.12086 14.5894 0.903083C14.0454 0.692058 13.425 0.548235 12.5165 0.506634C11.6063 0.465211 11.3165 0.455078 8.99826 0.455078L9.00093 0.455078ZM8.23537 1.99285C8.46258 1.99249 8.71609 1.99285 9.00089 1.99285C11.2793 1.99285 11.5494 2.00103 12.4491 2.04191C13.2811 2.07996 13.7327 2.21898 14.0335 2.33578C14.4317 2.49045 14.7156 2.67534 15.0141 2.97401C15.3128 3.27268 15.4977 3.55713 15.6527 3.95536C15.7695 4.2558 15.9087 4.70736 15.9466 5.53937C15.9875 6.43894 15.9963 6.70916 15.9963 8.98652C15.9963 11.2639 15.9875 11.5341 15.9466 12.4337C15.9085 13.2657 15.7695 13.7172 15.6527 14.0177C15.498 14.4159 15.3128 14.6995 15.0141 14.998C14.7154 15.2966 14.4319 15.4815 14.0335 15.6362C13.733 15.7535 13.2811 15.8922 12.4491 15.9302C11.5495 15.9711 11.2793 15.98 9.00089 15.98C6.72229 15.98 6.45224 15.9711 5.55268 15.9302C4.72067 15.8918 4.26911 15.7528 3.96813 15.636C3.5699 15.4813 3.28546 15.2965 2.98679 14.9978C2.68812 14.6991 2.50323 14.4154 2.3482 14.017C2.2314 13.7165 2.0922 13.265 2.05433 12.433C2.01344 11.5334 2.00527 11.2632 2.00527 8.98439C2.00527 6.70561 2.01344 6.43681 2.05433 5.53724C2.09238 4.70523 2.2314 4.25367 2.3482 3.95287C2.50287 3.55464 2.68812 3.27019 2.98679 2.97152C3.28546 2.67285 3.5699 2.48796 3.96813 2.33294C4.26893 2.21561 4.72067 2.07694 5.55268 2.03871C6.33989 2.00316 6.64496 1.99249 8.23537 1.99071L8.23537 1.99285ZM13.556 3.40975C12.9906 3.40975 12.532 3.86789 12.532 4.43341C12.532 4.99875 12.9906 5.45742 13.556 5.45742C14.1213 5.45742 14.58 4.99875 14.58 4.43341C14.58 3.86807 14.1213 3.40975 13.556 3.40975ZM9.00095 4.60621C6.58083 4.60621 4.61868 6.56836 4.61868 8.98848C4.61868 11.4086 6.58083 13.3699 9.00095 13.3699C11.4211 13.3699 13.3825 11.4086 13.3825 8.98848C13.3825 6.56836 11.4211 4.60621 9.00095 4.60621ZM9.00091 6.144C10.5718 6.144 11.8454 7.41744 11.8454 8.98848C11.8454 10.5593 10.5718 11.833 9.00091 11.833C7.42987 11.833 6.15644 10.5593 6.15644 8.98848C6.15644 7.41744 7.42987 6.144 9.00091 6.144Z" fill="#FEFEFE"/>
</svg>
