<svg width="25" height="28" viewBox="0 0 25 28" fill="none" xmlns="http://www.w3.org/2000/svg">
<path fill-rule="evenodd" clip-rule="evenodd" d="M24.0531 1.06156C24.1327 1.12064 24.1798 1.214 24.1798 1.31324V19.7944C24.1798 21.9174 22.1653 23.5533 19.7944 23.5533C17.4236 23.5533 15.4091 21.9174 15.4091 19.7944C15.4091 17.6715 17.4236 16.0355 19.7944 16.0355C21.3639 16.0355 22.7772 16.7524 23.5533 17.8529V1.736L9.77073 5.93072V22.9268C9.77073 25.0498 7.75622 26.6857 5.38537 26.6857C3.01449 26.6857 1 25.0498 1 22.9268C1 20.8039 3.01449 19.1679 5.38537 19.1679C6.95483 19.1679 8.3681 19.8848 9.14425 20.9853V5.69861C9.14425 5.56072 9.2344 5.43905 9.36628 5.39896L23.7753 1.01357C23.8703 0.984681 23.9733 1.00248 24.0531 1.06156ZM9.14425 22.9268C9.14425 21.2439 7.51246 19.7944 5.38537 19.7944C3.2583 19.7944 1.62648 21.2439 1.62648 22.9268C1.62648 24.6098 3.2583 26.0592 5.38537 26.0592C7.51246 26.0592 9.14425 24.6098 9.14425 22.9268ZM23.5533 19.7944C23.5533 18.1114 21.9215 16.662 19.7944 16.662C17.6673 16.662 16.0355 18.1114 16.0355 19.7944C16.0355 21.4774 17.6673 22.9268 19.7944 22.9268C21.9215 22.9268 23.5533 21.4774 23.5533 19.7944Z" fill="white" stroke="white"/>
</svg>
