<svg width="17" height="17" viewBox="0 0 17 17" fill="none" xmlns="http://www.w3.org/2000/svg">
<path d="M8.49994 0.000127503C3.80563 0.000127503 0 3.80572 0 8.50013C0 13.1947 3.80563 17.0001 8.49994 17.0001C13.1948 17.0001 17 13.1948 17 8.50013C17 3.80597 13.1948 0.000510013 8.49981 0.000510013L8.49994 0V0.000127503ZM12.398 12.2597C12.2458 12.5093 11.919 12.5886 11.6692 12.4353C9.67358 11.2162 7.16118 10.9402 4.20241 11.6162C3.91732 11.6811 3.63312 11.5024 3.5681 11.2172C3.50282 10.932 3.68081 10.6478 3.96666 10.5829C7.20453 9.84312 9.98187 10.1616 12.2224 11.5309C12.4722 11.6841 12.5514 12.0099 12.398 12.2597ZM13.4384 9.94525C13.2465 10.257 12.8385 10.3554 12.5269 10.1637C10.2421 8.75921 6.75943 8.35248 4.05693 9.17296C3.70643 9.27879 3.3363 9.08129 3.22997 8.73142C3.1244 8.38091 3.32202 8.01153 3.67188 7.90494C6.75879 6.9683 10.5964 7.42196 13.2203 9.03436C13.5319 9.22626 13.6303 9.63427 13.4385 9.9455V9.94538L13.4384 9.94525ZM13.5278 7.53518C10.7882 5.90799 6.26843 5.75843 3.65288 6.55226C3.2329 6.67964 2.78869 6.44261 2.66144 6.02248C2.5342 5.60223 2.77109 5.1584 3.19133 5.03077C6.19384 4.11925 11.1851 4.29533 14.3392 6.16784C14.7177 6.39212 14.8417 6.87994 14.6173 7.25723C14.3939 7.63502 13.9047 7.75959 13.5282 7.53518H13.5278Z" fill="#424D5C"/>
</svg>
