<svg width="20" height="18" viewBox="0 0 20 18" fill="none" xmlns="http://www.w3.org/2000/svg">
<path d="M0.35326 8.34963L4.96168 10.0696L6.74542 15.8061C6.85955 16.1735 7.30882 16.3093 7.60702 16.0655L10.1758 13.9714C10.4451 13.752 10.8286 13.741 11.11 13.9453L15.7433 17.3091C16.0623 17.541 16.5142 17.3662 16.5942 16.9807L19.9883 0.654631C20.0756 0.233564 19.6619 -0.117702 19.2609 0.0373642L0.34786 7.33343C-0.118875 7.51343 -0.114808 8.17423 0.35326 8.34963ZM6.45795 9.15403L15.4645 3.6069C15.6264 3.5075 15.7929 3.72636 15.6539 3.8553L8.22089 10.7646C7.95962 11.0078 7.79109 11.3333 7.74336 11.6866L7.49016 13.563C7.45662 13.8135 7.10469 13.8384 7.03555 13.5959L6.06175 10.1742C5.95022 9.78396 6.11275 9.36709 6.45795 9.15403Z" fill="#424D5C"/>
</svg>
