<svg width="22" height="23" viewBox="0 0 22 23" fill="none" xmlns="http://www.w3.org/2000/svg">
<g clip-path="url(#clip0_1933_522)">
<path d="M11 0.988281C8.06163 0.988281 5.29925 2.133 3.22208 4.2111C1.14446 6.2892 -4.57541e-08 9.05175 -6.2431e-08 11.9908C-7.91079e-08 14.9299 1.14446 17.6929 3.22208 19.771C5.36662 21.916 8.18308 22.9883 11 22.9883C13.8169 22.9883 16.6338 21.916 18.7779 19.771C20.8555 17.6929 22 14.9299 22 11.9908C22 9.05175 20.8555 6.28875 18.7779 4.2111C16.7003 2.133 13.9384 0.988281 11 0.988281ZM17.4818 18.4745C13.9077 22.0494 8.09233 22.0494 4.51825 18.4745C2.78713 16.7425 1.83333 14.4398 1.83333 11.9908C1.83333 9.54183 2.78713 7.23909 4.51825 5.50757C6.24937 3.77605 8.55158 2.82203 11 2.82203C13.4484 2.82203 15.7506 3.77604 17.4818 5.50757C19.2129 7.23909 20.1667 9.54183 20.1667 11.9908C20.1667 14.4398 19.2129 16.7425 17.4818 18.4745Z" fill="#FEFEFE"/>
<path d="M13.7024 7.10602L7.07323 9.68413C6.39095 9.9493 5.97047 10.5933 6.00162 11.3244C6.03234 12.0556 6.50628 12.6621 7.20876 12.8688L9.45806 13.53L10.1197 15.7798C10.3264 16.4819 10.9325 16.9559 11.6636 16.987C11.6888 16.9879 11.7141 16.9883 11.7393 16.9883C12.4393 16.9883 13.0479 16.5737 13.3042 15.9145L15.8823 9.2851C16.1281 8.65373 15.9829 7.96342 15.5039 7.48442C15.024 7.00542 14.3342 6.8602 13.7024 7.10602ZM11.7347 15.3046L11.0844 13.0935L11.624 12.5544C11.9527 12.226 11.9527 11.6927 11.624 11.364C11.2953 11.0357 10.7624 11.0353 10.4333 11.364L9.89369 11.9036L7.68312 11.2533L14.3123 8.67519L11.7347 15.3046Z" fill="#FEFEFE"/>
</g>
<defs>
<clipPath id="clip0_1933_522">
<rect width="22" height="22" fill="white" transform="translate(0 0.988281)"/>
</clipPath>
</defs>
</svg>
