<svg width="20" height="17" viewBox="0 0 20 17" fill="none" xmlns="http://www.w3.org/2000/svg">
<path d="M20 1.925C19.25 2.25 18.475 2.475 17.65 2.575C18.5 2.075 19.15 1.275 19.45 0.3C18.65 0.775 17.775 1.1 16.85 1.3C16.1 0.5 15.025 0 13.85 0C11.575 0 9.75002 1.85 9.75002 4.1C9.75002 4.425 9.77502 4.725 9.85002 5.025C6.45001 4.875 3.45001 3.225 1.425 0.75C-0.0249999 3.35 1.6 5.5 2.67501 6.225C2.025 6.225 1.375 6.025 0.825002 5.725C0.825002 7.75 2.25 9.425 4.10001 9.8C3.70001 9.925 2.80001 10 2.25 9.875C2.77501 11.5 4.30001 12.7 6.07501 12.725C4.67501 13.825 2.62501 14.7 0 14.425C1.825 15.6 3.97501 16.275 6.30001 16.275C13.85 16.275 17.95 10.025 17.95 4.625C17.95 4.45 17.95 4.275 17.925 4.1C18.775 3.475 19.475 2.75 20 1.925Z" fill="#424D5C"/>
</svg>
