<svg width="17" height="17" viewBox="0 0 17 17" fill="none" xmlns="http://www.w3.org/2000/svg">
<path d="M10.8235 16.5765C10.6328 16.5765 10.4498 16.5186 10.2941 16.4094L8.49904 15.1535L6.70342 16.4097C6.46754 16.5746 6.16314 16.6195 5.88954 16.5313C5.61595 16.4424 5.39654 16.2269 5.30251 15.9549L4.58851 13.8831L2.39817 13.8432C2.1105 13.8376 1.83796 13.6955 1.66903 13.4634C1.49982 13.2302 1.44882 12.9268 1.5325 12.6522L2.17026 10.5558L0.422449 9.23542C0.192949 9.06223 0.0561523 8.78705 0.0561523 8.49937C0.0561523 8.2117 0.193215 7.93651 0.422715 7.76333L2.17026 6.44264L1.5325 4.34633C1.44882 4.0714 1.49982 3.76806 1.66903 3.53537C1.83823 3.30269 2.11076 3.16058 2.39843 3.15553L4.58878 3.11542L5.30304 1.04408C5.39681 0.771811 5.61648 0.556124 5.89034 0.467405C6.16367 0.378952 6.46834 0.423577 6.70395 0.589061L8.49904 1.84547L10.2944 0.589061C10.5316 0.424108 10.8352 0.378686 11.1088 0.46767C11.3821 0.556389 11.6015 0.772077 11.6956 1.04408L12.4096 3.11569L14.5999 3.1558C14.8873 3.16111 15.1599 3.30295 15.3293 3.53537C15.4988 3.76859 15.5495 4.07194 15.4656 4.34686L14.8284 6.44264L16.5754 7.76306C16.8049 7.93625 16.9422 8.21144 16.9422 8.49911C16.9422 8.78678 16.8051 9.06197 16.5754 9.23516L14.8281 10.5558L15.4656 12.6522C15.5495 12.9268 15.4985 13.2302 15.3291 13.4631C15.1601 13.6955 14.8879 13.8376 14.6002 13.8432L12.4096 13.8831L11.6956 15.9547C11.6015 16.2267 11.3819 16.4424 11.1085 16.5313C11.0161 16.5614 10.9205 16.5765 10.8235 16.5765ZM6.17429 1.21939C6.16128 1.21939 6.14826 1.22151 6.13551 1.2255C6.09832 1.23745 6.06857 1.26694 6.05582 1.30386L5.25071 3.6387C5.19626 3.79701 5.04857 3.90433 4.88123 3.90725L2.41225 3.9524C2.3732 3.9532 2.33601 3.97259 2.3129 4.0042C2.28979 4.03608 2.28289 4.07725 2.29431 4.1147L3.01309 6.47717C3.0617 6.63708 3.00539 6.81026 2.87204 6.91094L0.902434 8.3995C0.87109 8.42314 0.852496 8.46059 0.852496 8.49964C0.852496 8.53869 0.87109 8.5764 0.902434 8.59978L2.87204 10.0883C3.00539 10.189 3.0617 10.3622 3.01309 10.5221L2.29431 12.8846C2.28289 12.922 2.28979 12.9635 2.31317 12.9953C2.33601 13.0267 2.3732 13.0458 2.41251 13.0466L4.88123 13.0918C5.04857 13.095 5.19626 13.2023 5.25071 13.3603L6.05556 15.6952C6.06831 15.7323 6.09832 15.7616 6.13578 15.7738C6.1727 15.7857 6.21414 15.7799 6.24628 15.757L8.27061 14.3407C8.40793 14.2448 8.59015 14.2448 8.72748 14.3407L10.7515 15.7568C10.7837 15.7796 10.8267 15.7844 10.8628 15.7735C10.8998 15.7613 10.9298 15.7321 10.9425 15.6946L11.7474 13.36C11.8018 13.202 11.9495 13.0947 12.1169 13.0915L14.5858 13.0463C14.6249 13.0455 14.6621 13.0264 14.6849 12.9948C14.7086 12.9627 14.7152 12.9226 14.7038 12.8846L13.985 10.5218C13.9361 10.3619 13.9924 10.1887 14.1258 10.0881L16.0954 8.59951C16.1267 8.57587 16.1453 8.53842 16.1453 8.49937C16.1453 8.46033 16.1267 8.42287 16.0954 8.3995L16.0951 8.39923L14.1258 6.91067C13.9924 6.81 13.9361 6.63681 13.9847 6.4769L14.7032 4.11444C14.7149 4.07672 14.708 4.03555 14.6849 4.00367C14.6618 3.9718 14.6254 3.95294 14.5856 3.95214L12.1166 3.90698C11.9492 3.90406 11.8016 3.79675 11.7471 3.63844L10.9423 1.30359C10.9295 1.26667 10.8995 1.23719 10.862 1.22523C10.8249 1.21301 10.7832 1.21939 10.7507 1.24197L8.72721 2.65801C8.58989 2.7539 8.40767 2.7539 8.27034 2.65801L6.24628 1.2417C6.22529 1.22709 6.19979 1.21939 6.17429 1.21939Z" fill="white"/>
<path d="M5.98545 7.86704C5.97323 7.83517 5.9541 7.80887 5.92754 7.78815C5.90098 7.76797 5.86724 7.75575 5.8274 7.75203C5.7934 7.74884 5.75382 7.75282 5.70574 7.76504C5.66643 7.77487 5.61942 7.78975 5.5631 7.81046C5.5036 7.83225 5.45606 7.85217 5.41993 7.87023C5.37823 7.89068 5.34423 7.91326 5.31846 7.93717C5.28791 7.96612 5.26852 7.99561 5.25976 8.02536C5.24807 8.06121 5.24887 8.0992 5.26215 8.13373L5.77693 9.53463C5.80721 9.61698 5.83962 9.70224 5.87362 9.79043C5.81996 9.73863 5.76524 9.68657 5.70893 9.63504L4.55585 8.60096C4.50087 8.5481 4.45013 8.50534 4.40418 8.47214C4.35291 8.43601 4.30165 8.40998 4.25144 8.39537C4.19991 8.38076 4.14626 8.37571 4.08915 8.38182C4.03762 8.38767 3.97865 8.40254 3.91383 8.42671L3.58844 8.54624C3.50583 8.57653 3.44341 8.62832 3.4033 8.69978C3.36 8.77601 3.35682 8.86473 3.39321 8.96407L4.37974 11.6477C4.39169 11.6801 4.41162 11.708 4.43685 11.7271C4.46474 11.7486 4.49927 11.7603 4.54283 11.7627C4.54735 11.763 4.55213 11.7632 4.55691 11.7632C4.58587 11.7632 4.6196 11.7587 4.65891 11.7497C4.69902 11.7406 4.74843 11.7252 4.80713 11.704C4.8669 11.6817 4.91498 11.6612 4.95137 11.6421C4.9928 11.6206 5.02468 11.5996 5.04832 11.5778C5.08046 11.5483 5.10012 11.5175 5.10835 11.4846C5.11685 11.4511 5.11499 11.4158 5.10277 11.3826L4.52876 9.82045C4.5006 9.74315 4.47191 9.66771 4.44323 9.5936C4.48652 9.6353 4.52902 9.67488 4.57046 9.71287L5.82501 10.8343C5.8946 10.8997 5.9549 10.9517 6.0051 10.9903C6.06195 11.0338 6.11534 11.0646 6.1674 11.0838C6.22345 11.1047 6.28082 11.113 6.33846 11.1087C6.39053 11.1042 6.44631 11.0909 6.50873 11.0678L6.76692 10.973C6.80464 10.9589 6.8405 10.9398 6.87317 10.9151C6.90903 10.8883 6.93772 10.8551 6.9579 10.8171C6.97809 10.7799 6.98978 10.7376 6.9935 10.6906C6.99615 10.6452 6.98871 10.5982 6.97118 10.5509L5.98545 7.86704Z" fill="white"/>
<path d="M9.65006 9.63656C9.63227 9.58768 9.61447 9.54704 9.59853 9.51543C9.57941 9.47904 9.56002 9.45035 9.54063 9.42937C9.51486 9.40121 9.48591 9.38209 9.45324 9.37226C9.4195 9.36243 9.38391 9.36402 9.35203 9.37571L8.36497 9.73829L8.12033 9.0729L8.93474 8.77354C8.96661 8.76159 8.99344 8.7406 9.0107 8.7159C9.03089 8.68934 9.04205 8.65587 9.04417 8.61682C9.04603 8.58707 9.04258 8.55334 9.03355 8.51296C9.02585 8.47976 9.0131 8.43832 8.9953 8.38945C8.97803 8.3419 8.96077 8.30259 8.9443 8.27045C8.92491 8.23326 8.90525 8.20484 8.88506 8.18412C8.8601 8.15756 8.83194 8.13976 8.79767 8.1294C8.76367 8.12037 8.72967 8.12196 8.69886 8.13365L7.88472 8.43274L7.68152 7.88024L8.65928 7.52085C8.69249 7.50837 8.72011 7.48632 8.73977 7.45445C8.75597 7.42788 8.76474 7.39548 8.76606 7.35988C8.76739 7.3296 8.76341 7.29534 8.75411 7.25496C8.74614 7.22043 8.73366 7.17952 8.71639 7.13171C8.69753 7.08098 8.68 7.04034 8.66406 7.00952C8.64547 6.9734 8.62635 6.94445 8.60616 6.9224C8.57986 6.89318 8.55117 6.87379 8.51824 6.86396C8.48556 6.8552 8.45156 6.85679 8.41995 6.86874L6.92927 7.41673C6.85702 7.44329 6.80256 7.48871 6.76803 7.55113C6.73058 7.61834 6.72899 7.70041 6.76378 7.79498L7.72056 10.3978C7.7551 10.4921 7.80902 10.5538 7.88074 10.5809C7.91367 10.5933 7.94741 10.5997 7.98194 10.5997C8.0178 10.5997 8.05419 10.5928 8.09138 10.5793L9.59136 10.0278C9.6243 10.0159 9.65192 9.99382 9.67105 9.96434C9.68911 9.93671 9.69894 9.90324 9.70053 9.86632C9.70186 9.83657 9.69814 9.80231 9.68885 9.7614C9.68061 9.72713 9.66813 9.68543 9.65006 9.63656Z" fill="white"/>
<path d="M13.3594 5.53823C13.3515 5.46943 13.3419 5.41631 13.3307 5.37912C13.3087 5.30341 13.2643 5.26888 13.2306 5.25321C13.1876 5.23329 13.1347 5.2309 13.0744 5.24657C13.033 5.2572 12.9767 5.27526 12.9052 5.30155C12.8292 5.32971 12.7711 5.35335 12.7307 5.37301C12.6818 5.39638 12.6457 5.42029 12.6197 5.44632C12.5761 5.49015 12.5652 5.53557 12.5641 5.56452C12.5626 5.59188 12.5644 5.62163 12.5695 5.65218L12.8353 7.74452L11.6546 6.00148C11.6318 5.96456 11.6084 5.93587 11.5819 5.91382C11.5489 5.88646 11.5062 5.87079 11.4583 5.86867C11.4182 5.86521 11.3747 5.87371 11.3194 5.88992C11.2727 5.90346 11.2116 5.92445 11.1346 5.95234C11.0618 5.97917 11.0049 6.00254 10.9622 6.02273C10.9128 6.04664 10.8753 6.07054 10.8493 6.09525C10.8131 6.12818 10.7908 6.16882 10.7845 6.21239C10.7797 6.24453 10.7805 6.28092 10.7863 6.31731L11.0299 8.39503L9.88478 6.63739C9.86433 6.60153 9.84521 6.5747 9.82475 6.55451C9.79314 6.52423 9.7525 6.50829 9.70389 6.5075C9.66246 6.50723 9.6266 6.51414 9.57241 6.53087C9.52805 6.54442 9.46855 6.56487 9.39471 6.59223C9.31316 6.62198 9.24994 6.64775 9.20558 6.66847C9.14396 6.69769 9.10278 6.73248 9.07968 6.77472C9.06108 6.80925 9.04514 6.86609 9.07596 6.93781C9.0911 6.97447 9.11739 7.01989 9.15644 7.07726L10.7919 9.4331C10.8211 9.4748 10.8493 9.50641 10.8788 9.52952C10.9173 9.5598 10.9653 9.57521 11.0214 9.57574H11.0235C11.0663 9.57574 11.1183 9.56698 11.1824 9.54891C11.2387 9.53271 11.3123 9.50774 11.4044 9.47401C11.4916 9.44187 11.5614 9.41398 11.6127 9.39087C11.6708 9.3643 11.7176 9.33588 11.7511 9.30507C11.7912 9.26815 11.8164 9.22565 11.8257 9.17943C11.8339 9.14118 11.8345 9.09841 11.8276 9.05033L11.6283 7.36122L12.5891 8.76718C12.6165 8.81154 12.6452 8.84474 12.6765 8.86891C12.7156 8.89893 12.7631 8.91433 12.8189 8.9146C12.8521 8.91061 12.9156 8.9061 12.9793 8.88804C13.0359 8.8721 13.1089 8.84713 13.1998 8.81393C13.2811 8.78418 13.3472 8.75761 13.3977 8.73424C13.4558 8.70768 13.501 8.68085 13.5342 8.65269C13.5778 8.6171 13.6065 8.57513 13.6197 8.52758C13.6309 8.48721 13.6338 8.44099 13.6277 8.38999L13.3594 5.53823Z" fill="white"/>
</svg>
