<svg width="33" height="23" viewBox="0 0 33 23" fill="none" xmlns="http://www.w3.org/2000/svg">
<path d="M10.2261 6.15918V12.802" stroke="#F952FE" stroke-width="1.2" stroke-linecap="round"/>
<path d="M6.90466 9.48145H13.5475" stroke="#F952FE" stroke-width="1.2" stroke-linecap="round"/>
<path d="M32 14.3284C32 6.89737 27.9406 2.1498 23.1429 1.04269C21.5234 0.668955 19.9791 2.87165 16.869 2.88796C13.3753 2.90693 12.6492 0.709417 10.5952 1.04269C5.17977 1.92135 1.00017 7.68551 1 14.3284C0.999875 19.126 3.87342 24.2927 7.643 20.2331C12.4406 15.0665 20.9286 15.0665 24.9881 20.2331C27.3079 23.1856 32 21.7594 32 14.3284Z" stroke="#F952FE" stroke-width="1.2"/>
<path d="M22.0359 7.63616C22.6473 7.63616 23.143 7.14046 23.143 6.52902C23.143 5.91758 22.6473 5.42188 22.0359 5.42188C21.4244 5.42188 20.9287 5.91758 20.9287 6.52902C20.9287 7.14046 21.4244 7.63616 22.0359 7.63616Z" fill="#F952FE"/>
<path d="M22.0359 13.5405C22.6473 13.5405 23.143 13.0448 23.143 12.4333C23.143 11.8219 22.6473 11.3262 22.0359 11.3262C21.4244 11.3262 20.9287 11.8219 20.9287 12.4333C20.9287 13.0448 21.4244 13.5405 22.0359 13.5405Z" fill="#F952FE"/>
<path d="M24.9879 10.5883C25.5993 10.5883 26.095 10.0926 26.095 9.48117C26.095 8.86973 25.5993 8.37402 24.9879 8.37402C24.3764 8.37402 23.8807 8.86973 23.8807 9.48117C23.8807 10.0926 24.3764 10.5883 24.9879 10.5883Z" fill="#F952FE"/>
<path d="M19.0832 10.5883C19.6947 10.5883 20.1904 10.0926 20.1904 9.48117C20.1904 8.86973 19.6947 8.37402 19.0832 8.37402C18.4718 8.37402 17.9761 8.86973 17.9761 9.48117C17.9761 10.0926 18.4718 10.5883 19.0832 10.5883Z" fill="#F952FE"/>
</svg>
