<svg width="29" height="29" viewBox="0 0 29 29" fill="none" xmlns="http://www.w3.org/2000/svg">
<g clip-path="url(#clip0_1642_440)">
<path d="M7.78362 7.42188C6.19684 7.42188 4.90588 8.53727 4.90588 9.90832C4.90588 11.2794 6.19684 12.3948 7.78362 12.3948C9.37041 12.3948 10.6614 11.2794 10.6614 9.90832C10.6614 8.53727 9.37041 7.42188 7.78362 7.42188ZM7.78362 11.5532C6.66531 11.5532 5.75544 10.8153 5.75544 9.90832C5.75544 9.00134 6.66531 8.26348 7.78362 8.26348C8.90194 8.26348 9.81181 9.00134 9.81181 9.90832C9.81181 10.8153 8.90194 11.5532 7.78362 11.5532Z" fill="#F952FE"/>
<path d="M1.71729 15.3146C1.71729 16.6856 2.84313 17.801 4.22703 17.801C5.61093 17.801 6.73678 16.6856 6.73678 15.3146C6.73678 13.9435 5.61093 12.8281 4.22703 12.8281C2.84313 12.8281 1.71729 13.9435 1.71729 15.3146ZM5.88728 15.3146C5.88728 16.2215 5.14251 16.9594 4.22703 16.9594C3.31155 16.9594 2.56678 16.2216 2.56678 15.3146C2.56678 14.4076 3.31155 13.6697 4.22703 13.6697C5.14251 13.6697 5.88728 14.4076 5.88728 15.3146Z" fill="#F952FE"/>
<path d="M7.41563 18.6006C6.03173 18.6006 4.90588 19.716 4.90588 21.0871C4.90588 22.4581 6.03173 23.5735 7.41563 23.5735C8.79953 23.5735 9.92543 22.4581 9.92543 21.0871C9.92543 19.716 8.79953 18.6006 7.41563 18.6006ZM7.41563 22.7319C6.5002 22.7319 5.75538 21.9941 5.75538 21.0871C5.75538 20.1801 6.50015 19.4422 7.41563 19.4422C8.33111 19.4422 9.07593 20.18 9.07593 21.0871C9.07588 21.9941 8.33111 22.7319 7.41563 22.7319Z" fill="#F952FE"/>
<path d="M15.9353 23.3956C15.9353 22.0246 14.8094 20.9092 13.4255 20.9092C12.0416 20.9092 10.9158 22.0246 10.9158 23.3956C10.9158 24.7667 12.0416 25.8821 13.4255 25.8821C14.8094 25.8821 15.9353 24.7667 15.9353 23.3956ZM11.7653 23.3956C11.7653 22.4887 12.51 21.7508 13.4255 21.7508C14.341 21.7508 15.0858 22.4886 15.0858 23.3956C15.0858 24.3026 14.3411 25.0405 13.4255 25.0405C12.51 25.0405 11.7653 24.3026 11.7653 23.3956Z" fill="#F952FE"/>
<path d="M22.0061 20.4181C22.0061 19.047 20.8802 17.9316 19.4963 17.9316C18.1124 17.9316 16.9866 19.047 16.9866 20.4181C16.9866 21.7891 18.1124 22.9046 19.4963 22.9046C20.8802 22.9046 22.0061 21.7891 22.0061 20.4181ZM17.8361 20.4181C17.8361 19.5112 18.5809 18.7733 19.4964 18.7733C20.4119 18.7733 21.1567 19.5111 21.1567 20.4181C21.1567 21.3251 20.4119 22.063 19.4964 22.063C18.5809 22.063 17.8361 21.3251 17.8361 20.4181Z" fill="#F952FE"/>
<path d="M28.7587 18.6949L23.2525 10.4019C23.1236 10.2077 22.8602 10.1538 22.6642 10.2816C22.4682 10.4094 22.4139 10.6703 22.5428 10.8645L28.05 19.159C28.2262 19.4219 28.1604 19.7704 27.9 19.9524C27.6397 20.1343 27.286 20.0788 27.0942 19.8246L19.7257 10.1535C19.5843 9.96807 19.318 9.93114 19.1307 10.0711C18.9435 10.2112 18.9063 10.4751 19.0476 10.6605L21.1604 13.4337C17.3516 13.3673 15.1817 11.7205 15.1605 11.704C15.1587 11.7027 15.1569 11.7012 15.155 11.6999C13.8364 10.7023 12.9168 9.49844 12.422 8.12172C12.0519 7.0923 12.0712 6.34524 12.0714 6.33924C12.0716 6.33379 12.0718 6.32846 12.0718 6.32302C12.0718 4.82262 11.2467 3.96065 9.80795 3.95801C9.80659 3.95801 9.80523 3.95801 9.80387 3.95801C8.80546 3.95801 7.82462 4.37954 7.73677 4.4182C5.84593 5.21335 4.15538 6.47885 2.848 8.07801C2.70034 8.25859 2.72844 8.52362 2.9107 8.66991C3.09309 8.81614 3.36049 8.78831 3.50815 8.60779C4.72915 7.11424 6.30733 5.93297 8.07202 5.19158C8.07497 5.19034 8.07786 5.18911 8.08063 5.18782C8.08936 5.18395 8.96021 4.79967 9.80347 4.79967H9.8067C10.7704 4.80141 11.2203 5.28349 11.2223 6.31651C11.2154 6.55477 11.1908 9.75837 14.6371 12.3671C14.7747 12.4738 17.1651 14.2777 21.3973 14.2777C21.4552 14.2777 21.5197 14.277 21.5898 14.2762C21.6557 14.2755 21.7267 14.2748 21.8011 14.2745L24.4118 17.7011C23.5907 23.4556 18.582 27.7742 12.6896 27.7742C6.16103 27.7742 0.849553 22.5121 0.849553 16.044C0.849553 13.9958 1.38922 11.9749 2.41023 10.1999C2.5264 9.99798 2.45531 9.74097 2.25152 9.62594C2.04756 9.51084 1.78831 9.58138 1.67214 9.78317C0.578187 11.6848 0 13.8497 0 16.0439C0 19.402 1.3199 22.559 3.71659 24.9335C6.11328 27.308 9.29999 28.6157 12.6896 28.6157C18.7282 28.6157 23.901 24.3832 25.1118 18.6197L26.4149 20.3302C26.6976 20.7044 27.1256 20.9024 27.561 20.9024C27.847 20.9024 28.1362 20.8171 28.3895 20.6401C29.0284 20.1937 29.1902 19.3386 28.7587 18.6949Z" fill="#F952FE"/>
<path d="M15.6756 6.14527L17.8491 9.08826C17.9904 9.27367 18.2568 9.31059 18.4441 9.17064C18.6313 9.03058 18.6685 8.76667 18.5272 8.58121L17.5994 7.36352L19.3881 6.11384L21.4383 9.2015C21.5198 9.32439 21.6554 9.39112 21.7935 9.39112C21.8736 9.39112 21.9546 9.36872 22.0266 9.32181C22.2226 9.1941 22.2769 8.93316 22.148 8.73895L18.8757 3.9096C18.8842 3.55922 18.8145 2.76946 18.159 1.8485C17.1672 0.455228 15.3002 0.259668 15.1135 0.243507L14.1326 0.118764C13.9656 0.0971599 13.8016 0.176057 13.7147 0.319038C13.6278 0.462018 13.6344 0.642315 13.7315 0.77873L13.9535 1.09067C13.8615 1.07148 13.7648 1.08287 13.6791 1.12457C13.5695 1.17776 13.4883 1.27507 13.4562 1.39173C13.4344 1.47096 12.9342 3.34811 13.9567 4.78454C14.6121 5.70538 15.3397 6.03551 15.6756 6.14527ZM17.0984 6.68369L16.5277 5.88198L18.3392 4.61631L18.9099 5.41802L17.0984 6.68369ZM14.2143 1.93166C14.386 1.8902 14.5439 1.79317 14.6618 1.64727C14.8011 1.47483 14.8609 1.26351 14.8398 1.05712C14.8398 1.05712 16.6703 1.21744 17.4647 2.33345C17.9404 3.00172 18.021 3.54626 18.0282 3.80377L15.8596 5.31881C15.6172 5.22571 15.1266 4.96759 14.6509 4.29937C14.0777 3.49424 14.1373 2.44887 14.2143 1.93166Z" fill="#F952FE"/>
</g>
<defs>
<clipPath id="clip0_1642_440">
<rect width="29" height="28.7308" fill="white"/>
</clipPath>
</defs>
</svg>
