<svg width="16" height="16" viewBox="0 0 16 16" fill="none" xmlns="http://www.w3.org/2000/svg">
<path d="M0.125074 1.8125C0.125074 1.36495 0.302865 0.935725 0.619332 0.619257C0.935801 0.30279 1.36502 0.125 1.81257 0.125H6.95382C7.18209 0.125109 7.40795 0.171526 7.61776 0.261443C7.82757 0.35136 8.01695 0.482907 8.17445 0.648125L15.0482 7.85375C15.3557 8.16894 15.5278 8.59184 15.5278 9.03219C15.5278 9.47253 15.3557 9.89544 15.0482 10.2106L10.2669 14.9919C9.95078 15.3084 9.52185 15.4865 9.07445 15.4869C8.85118 15.4859 8.63032 15.4407 8.42465 15.3538C8.21899 15.2669 8.03261 15.1401 7.87632 14.9806L0.608825 7.60063C0.297763 7.28401 0.123962 6.8576 0.125074 6.41375V1.8125ZM1.39633 6.80188L8.64132 14.1875C8.69342 14.2407 8.75555 14.2829 8.8241 14.3119C8.89265 14.3409 8.96628 14.3559 9.0407 14.3563C9.18827 14.3556 9.32968 14.297 9.43445 14.1931L14.2269 9.41188C14.3283 9.30699 14.385 9.16682 14.385 9.02094C14.385 8.87506 14.3283 8.73489 14.2269 8.63L7.36445 1.42438C7.31217 1.36953 7.24934 1.32581 7.17975 1.29585C7.11015 1.26588 7.03522 1.25029 6.95945 1.25H1.81257C1.66339 1.25 1.52032 1.30926 1.41483 1.41475C1.30934 1.52024 1.25007 1.66332 1.25007 1.8125V6.4025C1.24814 6.47841 1.2616 6.55393 1.28963 6.6245C1.31767 6.69507 1.3597 6.75924 1.4132 6.81313L1.39633 6.80188ZM5.15945 2.77438C5.46323 3.09322 5.63032 3.51818 5.62507 3.95854C5.61981 4.39889 5.44262 4.81975 5.13132 5.13125C4.82022 5.44577 4.39805 5.62555 3.9557 5.63188C3.7394 5.63345 3.52499 5.59153 3.3252 5.50863C3.12541 5.42572 2.94432 5.30351 2.79269 5.14925C2.64105 4.99499 2.52196 4.81183 2.44249 4.61065C2.36302 4.40947 2.32479 4.19437 2.33008 3.97813C2.3364 3.53578 2.51618 3.1136 2.8307 2.8025C3.14091 2.49951 3.55585 2.32756 3.98944 2.32232C4.42304 2.31708 4.84202 2.47896 5.15945 2.77438ZM3.56758 4.36625C3.61697 4.41323 3.67526 4.44987 3.73901 4.47402C3.80276 4.49817 3.8707 4.50934 3.93883 4.50688C4.01325 4.50657 4.08687 4.49149 4.15542 4.46252C4.22398 4.43356 4.2861 4.39127 4.3382 4.33813C4.44018 4.23743 4.49987 4.10161 4.5051 3.95839C4.51032 3.81517 4.46069 3.67536 4.36632 3.5675C4.26955 3.47434 4.14065 3.42197 4.00632 3.42125C3.85217 3.42463 3.70518 3.48705 3.5957 3.59563C3.54255 3.64772 3.50027 3.70985 3.4713 3.7784C3.44233 3.84696 3.42726 3.92058 3.42695 3.995C3.4235 4.06324 3.43421 4.13145 3.45841 4.19534C3.48262 4.25923 3.51978 4.31742 3.56758 4.36625Z" fill="white"/>
</svg>
