<svg width="31" height="31" viewBox="0 0 31 31" fill="none" xmlns="http://www.w3.org/2000/svg">
<path fill-rule="evenodd" clip-rule="evenodd" d="M25.7102 2.38089C25.7898 2.43998 25.8369 2.53334 25.8369 2.63257V21.1138C25.8369 23.2368 23.8224 24.8726 21.4515 24.8726C19.0807 24.8726 17.0662 23.2368 17.0662 21.1138C17.0662 18.9908 19.0807 17.3549 21.4515 17.3549C23.021 17.3549 24.4343 18.0718 25.2104 19.1722V3.05534L11.4278 7.25005V24.2462C11.4278 26.3692 9.41332 28.005 7.04247 28.005C4.67159 28.005 2.6571 26.3692 2.6571 24.2462C2.6571 22.1232 4.67159 20.4873 7.04247 20.4873C8.61193 20.4873 10.0252 21.2042 10.8014 22.3046V7.01794C10.8014 6.88005 10.8915 6.75839 11.0234 6.7183L25.4324 2.33291C25.5274 2.30402 25.6304 2.32182 25.7102 2.38089ZM10.8014 24.2462C10.8014 22.5632 9.16956 21.1138 7.04247 21.1138C4.91541 21.1138 3.28359 22.5632 3.28359 24.2462C3.28359 25.9291 4.91541 27.3786 7.04247 27.3786C9.16956 27.3786 10.8014 25.9291 10.8014 24.2462ZM25.2104 21.1138C25.2104 19.4308 23.5786 17.9814 21.4515 17.9814C19.3244 17.9814 17.6926 19.4308 17.6926 21.1138C17.6926 22.7967 19.3244 24.2462 21.4515 24.2462C23.5786 24.2462 25.2104 22.7967 25.2104 21.1138Z" fill="#F952FE" stroke="#F952FE"/>
</svg>
