<svg width="18" height="18" viewBox="0 0 18 18" fill="none" xmlns="http://www.w3.org/2000/svg">
<path d="M17 10.0674C17 9.38412 16.552 8.80378 15.9345 8.60389C16.0534 8.38568 16.1211 8.13566 16.1211 7.87012C16.1211 7.02203 15.4311 6.33203 14.583 6.33203L8.60038 6.33212C9.34051 5.21515 9.74067 3.89711 9.74067 2.53809C9.74067 1.69 9.05067 1 8.20259 1C7.3545 1 6.6645 1.69 6.6645 2.53809C6.6645 4.63012 4.96628 6.33212 2.87891 6.33212H2V16H13.7041C14.5522 16 15.2422 15.31 15.2422 14.4619C15.2422 14.1964 15.1745 13.9463 15.0556 13.7281C15.6731 13.5283 16.1211 12.9479 16.1211 12.2646C16.1211 11.9991 16.0534 11.7491 15.9345 11.5309C16.552 11.331 17 10.7506 17 10.0674ZM2.87891 7.21103C4.12771 7.21103 5.30012 6.72505 6.18011 5.84263C7.05925 4.96105 7.54341 3.78748 7.54341 2.53809C7.54341 2.17463 7.83913 1.87891 8.20259 1.87891C8.56604 1.87891 8.86177 2.17463 8.86177 2.53809C8.86177 3.99303 8.33639 5.39365 7.38245 6.48191L7.27344 6.60625V6.7716C7.27344 8.95243 5.49919 10.7267 3.31836 10.7267H2.87891V7.21103ZM8.99407 15.1211H2.87891V11.6056H3.31836C5.83563 11.6056 7.90938 9.67126 8.13222 7.21105L14.583 7.21094C14.9465 7.21094 15.2422 7.50666 15.2422 7.87012C15.2422 8.23357 14.9465 8.5293 14.583 8.5293H8.99407V15.1211ZM13.7041 15.1211H9.87298V13.8027H13.7041C14.0676 13.8027 14.3633 14.0985 14.3633 14.4619C14.3633 14.8254 14.0676 15.1211 13.7041 15.1211ZM14.583 12.9238H9.87298V11.6055H14.583C14.9465 11.6055 15.2422 11.9012 15.2422 12.2646C15.2422 12.6281 14.9465 12.9238 14.583 12.9238ZM15.4619 10.7266H9.87298V9.4082H15.4619C15.8254 9.4082 16.1211 9.70393 16.1211 10.0674C16.1211 10.4308 15.8254 10.7266 15.4619 10.7266Z" fill="white"/>
</svg>
