<svg width="29" height="30" viewBox="0 0 29 30" fill="none" xmlns="http://www.w3.org/2000/svg">
<path d="M14.5 25V21" stroke="#F952FE"/>
<rect x="8.5" y="25" width="12" height="4" rx="0.5" stroke="#F952FE"/>
<path d="M6 1H23V12.5C23 17.1944 19.1944 21 14.5 21V21C9.80558 21 6 17.1944 6 12.5V1Z" stroke="#F952FE"/>
<path fill-rule="evenodd" clip-rule="evenodd" d="M22.1104 16.8477C26.0347 16.0951 29 12.6438 29 8.5V4V3H28H23V4H28V8.5C28 11.871 25.7759 14.7226 22.7152 15.6675C22.5658 16.0898 22.3613 16.4861 22.1104 16.8477Z" fill="#F952FE"/>
<path fill-rule="evenodd" clip-rule="evenodd" d="M6.88965 16.8477C2.96528 16.0951 4.48227e-05 12.6438 4.48227e-05 8.5V4V3H1.00004H6.00004V4H1.00004V8.5C1.00004 11.871 3.22406 14.7226 6.28484 15.6675C6.4342 16.0898 6.63868 16.4861 6.88965 16.8477Z" fill="#F952FE"/>
<path d="M14.3186 6.39059C14.3903 6.23625 14.6097 6.23625 14.6814 6.39059L15.4447 8.03427C15.4739 8.09702 15.5334 8.14025 15.6021 8.14858L17.4012 8.36662C17.5701 8.3871 17.6379 8.59579 17.5133 8.71166L16.1859 9.94555C16.1353 9.99266 16.1125 10.0626 16.1258 10.1305L16.4744 11.9089C16.5071 12.0759 16.3296 12.2049 16.1809 12.1222L14.5972 11.2411C14.5368 11.2075 14.4632 11.2075 14.4028 11.2411L12.8191 12.1222C12.6704 12.2049 12.4929 12.0759 12.5256 11.9089L12.8742 10.1305C12.8875 10.0626 12.8647 9.99266 12.8141 9.94555L11.4867 8.71166C11.3621 8.59579 11.4299 8.3871 11.5988 8.36662L13.3979 8.14858C13.4666 8.14025 13.5261 8.09702 13.5553 8.03427L14.3186 6.39059Z" fill="#F952FE"/>
</svg>
