<svg width="25" height="25" viewBox="0 0 25 25" fill="none" xmlns="http://www.w3.org/2000/svg">
<g clip-path="url(#clip0_1741_1111)">
<path d="M17.6402 21.1708L16.4964 22.0859L12.9292 17.627L10.3516 17.627L10.3516 25L4.49219 25L4.49219 17.627L-3.22286e-07 17.627L7.42349 8.3999L17.6402 21.1708ZM8.88672 23.5352L8.88672 16.1621L11.7574 16.1621L7.42026 10.7407L3.05859 16.1621L5.95703 16.1621L5.95703 23.5352L8.88672 23.5352Z" fill="#72849F"/>
<path d="M24.9994 7.37324L17.6777 16.6055L7.31396 3.65078L8.45781 2.7357L12.1678 7.37324L14.7455 7.37324L14.7455 0.000198039L20.6049 0.000197783L20.6049 7.37324L24.9994 7.37324ZM17.6727 14.2543L21.9681 8.83809L19.14 8.83809L19.14 1.46504L16.2104 1.46504L16.2104 8.83809L13.3397 8.83809L17.6727 14.2543Z" fill="#72849F"/>
</g>
<defs>
<clipPath id="clip0_1741_1111">
<rect width="25" height="25" fill="white" transform="translate(0 25) rotate(-90)"/>
</clipPath>
</defs>
</svg>
