<svg width="16" height="14" viewBox="0 0 16 14" fill="none" xmlns="http://www.w3.org/2000/svg">
<path fill-rule="evenodd" clip-rule="evenodd" d="M7.5208 3.99289L7.55438 4.54653L6.99479 4.47873C4.95791 4.21886 3.17843 3.33757 1.66756 1.85744L0.928908 1.12302L0.73865 1.66536C0.33575 2.87432 0.593158 4.15107 1.43253 5.00977C1.8802 5.48432 1.77948 5.55211 1.00725 5.26964C0.73865 5.17925 0.503625 5.11146 0.481242 5.14536C0.4029 5.22445 0.6715 6.25263 0.884142 6.65938C1.17513 7.22432 1.76828 7.77795 2.4174 8.10562L2.96579 8.36549L2.31668 8.37679C1.68994 8.37679 1.66756 8.38808 1.73471 8.62536C1.95854 9.35977 2.84268 10.1394 3.82755 10.4783L4.52143 10.7156L3.91708 11.0772C3.02175 11.5969 1.96973 11.8907 0.917717 11.9133C0.414092 11.9246 -6.45836e-08 11.9698 -6.47759e-08 12.0037C-6.5417e-08 12.1167 1.36538 12.7494 2.15999 12.998C4.54382 13.7324 7.37531 13.416 9.50173 12.1618C11.0126 11.2693 12.5235 9.49536 13.2286 7.77795C13.6091 6.86276 13.9896 5.19055 13.9896 4.38835C13.9896 3.86861 14.0232 3.80081 14.6499 3.17938C15.0192 2.81783 15.3662 2.42237 15.4333 2.30939C15.5452 2.09471 15.534 2.09471 14.9633 2.28679C14.012 2.62575 13.8777 2.58055 14.3477 2.07211C14.6947 1.71055 15.1088 1.05523 15.1088 0.863152C15.1088 0.829256 14.9409 0.88575 14.7506 0.987438C14.5492 1.10042 14.1015 1.26991 13.7658 1.37159L13.1614 1.56367L12.613 1.19081C12.3108 0.987438 11.8856 0.761464 11.6617 0.693672C11.0909 0.53549 10.218 0.558087 9.70318 0.738867C8.30422 1.24731 7.42008 2.55796 7.5208 3.99289Z" fill="#FEFEFE"/>
</svg>
